SplineFontDB: 3.2
FontName: MyFontRegular
FullName: My Font Regular
FamilyName: My Font
Weight: Regular
Copyright: Copyright 2010, 2012 Adobe Systems Incorporated (http://www.adobe.com/), with Reserved Font Name `Source'.
Version: Version 0.001
ItalicAngle: 0
UnderlinePosition: 0
UnderlineWidth: 0
Ascent: 800
Descent: 200
InvalidEm: 0
sfntRevision: 0x00010000
LayerCount: 2
Layer: 0 0 "Back" 1
Layer: 1 0 "Fore" 0
XUID: [1021 99 811733777 3235583]
StyleMap: 0x0040
FSType: 0
OS2Version: 3
OS2_WeightWidthSlopeOnly: 0
OS2_UseTypoMetrics: 0
CreationTime: 1606471499
ModificationTime: 1606487660
PfmFamily: 81
TTFWeight: 500
TTFWidth: 5
LineGap: 0
VLineGap: 0
Panose: 0 0 0 0 0 0 0 0 0 0
OS2TypoAscent: 984
OS2TypoAOffset: 0
OS2TypoDescent: -273
OS2TypoDOffset: 0
OS2TypoLinegap: 0
OS2WinAscent: 1060
OS2WinAOffset: 0
OS2WinDescent: 454
OS2WinDOffset: 0
HheadAscent: 984
HheadAOffset: 0
HheadDescent: -273
HheadDOffset: 0
OS2SubXSize: 650
OS2SubYSize: 699
OS2SubXOff: 0
OS2SubYOff: 140
OS2SupXSize: 650
OS2SupYSize: 699
OS2SupXOff: 0
OS2SupYOff: 479
OS2StrikeYSize: 49
OS2StrikeYPos: 258
OS2CapHeight: 656
OS2XHeight: 486
OS2Vendor: 'XXXX'
OS2CodePages: 00000001.00000000
OS2UnicodeRanges: e00002ff.5000f8fb.08000000.00000000
DEI: 91125

StartChar: .notdef
Encoding: 0 -1 0
AltUni2: 000000.ffffffff.0
Width: 457
Flags: W
LayerCount: 2
Fore
SplineSet
20 675 m 1
 437 675 l 1
 437 0 l 1
 20 0 l 1
 20 675 l 1
68 48 m 1
 388 48 l 1
 388 627 l 1
 68 627 l 1
 68 48 l 1
EndSplineSet
Validated: 1
EndChar

StartChar: exclam
Encoding: 33 33 2
Width: 600
GlyphClass: 2
Flags: W
LayerCount: 2
Fore
SplineSet
272 232 m 1
 328 232 l 1
 338 576 l 1
 340 670 l 1
 260 670 l 1
 262 576 l 1
 272 232 l 1
300 -12 m 0
 340 -12 373 18 373 66 c 0
 373 113 340 142 300 142 c 0
 260 142 227 113 227 66 c 0
 227 18 260 -12 300 -12 c 0
EndSplineSet
Validated: 9
EndChar

StartChar: quotedbl
Encoding: 34 34 3
Width: 600
GlyphClass: 2
Flags: W
LayerCount: 2
Fore
SplineSet
157 352 m 1
 213 352 l 1
 238 577 l 1
 240 687 l 1
 130 687 l 1
 132 577 l 1
 157 352 l 1
387 352 m 1
 443 352 l 1
 468 577 l 1
 470 687 l 1
 360 687 l 1
 362 577 l 1
 387 352 l 1
EndSplineSet
Validated: 9
EndChar

StartChar: numbersign
Encoding: 35 35 4
Width: 600
GlyphClass: 2
Flags: W
LayerCount: 2
Fore
SplineSet
328 0 m 1
 382 0 l 1
 407 204 l 1
 499 204 l 1
 499 261 l 1
 414 261 l 1
 432 409 l 1
 519 409 l 1
 519 467 l 1
 439 467 l 1
 461 650 l 1
 408 650 l 1
 385 467 l 1
 253 467 l 1
 275 650 l 1
 222 650 l 1
 199 467 l 1
 107 467 l 1
 107 409 l 1
 192 409 l 1
 174 261 l 1
 87 261 l 1
 87 204 l 1
 167 204 l 1
 142 0 l 1
 196 0 l 1
 221 204 l 1
 353 204 l 1
 328 0 l 1
360 261 m 1
 228 261 l 1
 246 409 l 1
 378 409 l 1
 360 261 l 1
EndSplineSet
Validated: 9
EndChar

StartChar: dollar
Encoding: 36 36 5
Width: 600
GlyphClass: 2
Flags: W
LayerCount: 2
Fore
SplineSet
85 113 m 1
 131 74 202 41 276 35 c 1
 276 -110 l 1
 336 -110 l 1
 336 36 l 1
 441 47 512 109 512 195 c 0
 512 378 194 357 194 467 c 0
 194 518 237 550 304 550 c 0
 371 550 406 528 451 493 c 1
 495 541 l 1
 455 580 409 611 336 617 c 1
 336 748 l 1
 276 748 l 1
 276 616 l 1
 179 606 114 549 114 465 c 0
 114 291 431 313 431 189 c 0
 431 138 389 102 310 102 c 0
 235 102 174 134 124 170 c 1
 85 113 l 1
EndSplineSet
Validated: 9
EndChar

StartChar: percent
Encoding: 37 37 6
Width: 600
GlyphClass: 2
Flags: W
LayerCount: 2
Fore
SplineSet
166 321 m 0
 247 321 305 383 305 487 c 0
 305 591 247 650 166 650 c 0
 85 650 27 591 27 487 c 0
 27 383 85 321 166 321 c 0
166 371 m 0
 123 371 88 409 88 487 c 0
 88 567 123 601 166 601 c 0
 209 601 244 567 244 487 c 0
 244 409 209 371 166 371 c 0
77 32 m 1
 244 235 l 1
 211 265 l 1
 28 77 l 1
 77 32 l 1
389 391 m 1
 572 579 l 1
 523 624 l 1
 356 421 l 1
 389 391 l 1
434 -12 m 0
 515 -12 573 50 573 154 c 0
 573 258 515 317 434 317 c 0
 353 317 295 258 295 154 c 0
 295 50 353 -12 434 -12 c 0
434 38 m 0
 391 38 356 76 356 154 c 0
 356 234 391 268 434 268 c 0
 477 268 512 234 512 154 c 0
 512 76 477 38 434 38 c 0
EndSplineSet
Validated: 9
EndChar

StartChar: ampersand
Encoding: 38 38 7
Width: 600
GlyphClass: 2
Flags: W
LayerCount: 2
Fore
SplineSet
238 -12 m 0
 312 -12 369 17 417 63 c 1
 465 26 511 1 554 -12 c 1
 577 56 l 1
 542 67 504 88 464 119 c 1
 512 188 546 268 570 354 c 1
 494 354 l 1
 475 279 448 215 411 162 c 1
 351 214 293 279 251 346 c 1
 320 399 392 454 392 538 c 0
 392 615 346 668 265 668 c 0
 178 668 121 600 121 513 c 0
 121 466 137 412 165 358 c 1
 101 311 42 256 42 170 c 0
 42 64 122 -12 238 -12 c 0
192 514 m 0
 192 568 219 609 265 609 c 0
 309 609 325 575 325 537 c 0
 325 479 278 439 222 399 c 1
 203 439 192 478 192 514 c 0
248 54 m 0
 178 54 122 102 122 175 c 0
 122 226 154 265 196 302 c 1
 241 231 300 162 363 106 c 1
 329 74 289 54 248 54 c 0
EndSplineSet
Validated: 9
EndChar

StartChar: quotesingle
Encoding: 39 39 8
Width: 600
GlyphClass: 2
Flags: W
LayerCount: 2
Fore
SplineSet
272 352 m 1
 328 352 l 1
 353 577 l 1
 355 687 l 1
 245 687 l 1
 247 577 l 1
 272 352 l 1
EndSplineSet
Validated: 9
EndChar

StartChar: parenleft
Encoding: 40 40 9
Width: 600
GlyphClass: 2
Flags: W
LayerCount: 2
Fore
SplineSet
433 -176 m 1
 478 -134 l 1
 344 -21 282 110 282 278 c 0
 282 446 344 577 478 690 c 1
 433 732 l 1
 294 624 208 471 208 278 c 0
 208 85 294 -68 433 -176 c 1
EndSplineSet
Validated: 9
EndChar

StartChar: parenright
Encoding: 41 41 10
Width: 600
GlyphClass: 2
Flags: W
LayerCount: 2
Fore
SplineSet
167 -176 m 1
 306 -68 392 85 392 278 c 0
 392 471 306 624 167 732 c 1
 122 690 l 1
 256 577 318 446 318 278 c 0
 318 110 256 -21 122 -134 c 1
 167 -176 l 1
EndSplineSet
Validated: 9
EndChar

StartChar: asterisk
Encoding: 42 42 11
Width: 600
GlyphClass: 2
Flags: W
LayerCount: 2
Fore
SplineSet
180 111 m 1
 300 270 l 1
 420 111 l 1
 462 141 l 1
 354 306 l 1
 516 376 l 1
 500 422 l 1
 333 367 l 1
 324 556 l 1
 276 556 l 1
 267 367 l 1
 100 422 l 1
 84 376 l 1
 246 306 l 1
 138 141 l 1
 180 111 l 1
EndSplineSet
Validated: 9
EndChar

StartChar: plus
Encoding: 43 43 12
Width: 600
GlyphClass: 2
Flags: W
LayerCount: 2
Fore
SplineSet
267 104 m 1
 333 104 l 1
 333 299 l 1
 515 299 l 1
 515 361 l 1
 333 361 l 1
 333 556 l 1
 267 556 l 1
 267 361 l 1
 85 361 l 1
 85 299 l 1
 267 299 l 1
 267 104 l 1
EndSplineSet
Validated: 9
EndChar

StartChar: comma
Encoding: 44 44 13
Width: 600
GlyphClass: 2
Flags: W
LayerCount: 2
Fore
SplineSet
220 -213 m 1
 330 -172 396 -90 396 27 c 0
 396 105 365 155 306 155 c 0
 263 155 226 128 226 79 c 0
 226 29 261 4 304 4 c 0
 310 4 317 4 323 6 c 1
 320 -73 279 -124 197 -161 c 1
 220 -213 l 1
EndSplineSet
Validated: 9
EndChar

StartChar: hyphen
Encoding: 45 45 14
Width: 600
GlyphClass: 2
Flags: W
LayerCount: 2
Fore
SplineSet
85 299 m 1
 515 299 l 1
 515 361 l 1
 85 361 l 1
 85 299 l 1
EndSplineSet
Validated: 9
EndChar

StartChar: period
Encoding: 46 46 15
Width: 600
GlyphClass: 2
Flags: W
LayerCount: 2
Fore
SplineSet
300 -12 m 0
 345 -12 381 22 381 72 c 0
 381 123 345 157 300 157 c 0
 255 157 219 123 219 72 c 0
 219 22 255 -12 300 -12 c 0
EndSplineSet
Validated: 9
EndChar

StartChar: slash
Encoding: 47 47 16
Width: 600
GlyphClass: 2
Flags: W
LayerCount: 2
Fore
SplineSet
99 -160 m 1
 173 -160 l 1
 501 710 l 1
 427 710 l 1
 99 -160 l 1
EndSplineSet
Validated: 9
EndChar

StartChar: zero
Encoding: 48 48 17
Width: 600
GlyphClass: 2
Flags: W
LayerCount: 2
Fore
SplineSet
300 -12 m 0
 442 -12 529 109 529 321 c 0
 529 535 442 650 300 650 c 0
 158 650 71 535 71 321 c 0
 71 109 158 -12 300 -12 c 0
300 54 m 0
 211 54 148 138 148 321 c 0
 148 505 211 584 300 584 c 0
 389 584 452 505 452 321 c 0
 452 138 389 54 300 54 c 0
300 261 m 0
 333 261 362 286 362 328 c 0
 362 369 333 394 300 394 c 0
 267 394 238 369 238 328 c 0
 238 286 267 261 300 261 c 0
EndSplineSet
Validated: 9
EndChar

StartChar: one
Encoding: 49 49 18
Width: 600
GlyphClass: 2
Flags: W
LayerCount: 2
Fore
SplineSet
97 0 m 1
 530 0 l 1
 530 68 l 1
 363 68 l 1
 363 638 l 1
 302 638 l 1
 261 616 213 601 138 591 c 1
 138 538 l 1
 281 538 l 1
 281 68 l 1
 97 68 l 1
 97 0 l 1
EndSplineSet
Validated: 9
EndChar

StartChar: two
Encoding: 50 50 19
Width: 600
GlyphClass: 2
Flags: W
LayerCount: 2
Fore
SplineSet
73 0 m 1
 522 0 l 1
 522 71 l 1
 312 71 l 2
 274 71 233 68 193 65 c 1
 367 223 487 342 487 462 c 0
 487 575 407 650 279 650 c 0
 189 650 126 611 69 553 c 1
 116 506 l 1
 157 549 209 583 269 583 c 0
 363 583 408 531 408 458 c 0
 408 352 289 240 73 49 c 1
 73 0 l 1
EndSplineSet
Validated: 9
EndChar

StartChar: three
Encoding: 51 51 20
Width: 600
GlyphClass: 2
Flags: W
LayerCount: 2
Fore
SplineSet
287 -12 m 0
 414 -12 518 57 518 170 c 0
 518 258 445 314 360 332 c 1
 360 336 l 1
 439 362 496 411 496 488 c 0
 496 591 405 650 285 650 c 0
 203 650 134 616 81 570 c 1
 125 518 l 1
 167 556 222 583 282 583 c 0
 360 583 412 544 412 482 c 0
 412 415 354 363 203 363 c 1
 203 300 l 1
 371 300 435 249 435 173 c 0
 435 102 369 56 282 56 c 0
 200 56 141 92 99 132 c 1
 57 78 l 1
 104 31 177 -12 287 -12 c 0
EndSplineSet
Validated: 9
EndChar

StartChar: four
Encoding: 52 52 21
Width: 600
GlyphClass: 2
Flags: W
LayerCount: 2
Fore
SplineSet
368 0 m 1
 446 0 l 1
 446 176 l 1
 545 176 l 1
 545 242 l 1
 446 242 l 1
 446 638 l 1
 358 638 l 1
 39 231 l 1
 39 176 l 1
 368 176 l 1
 368 0 l 1
130 242 m 1
 303 460 l 2
 324 491 348 522 368 553 c 1
 373 553 l 1
 371 518 369 475 368 440 c 2
 368 242 l 1
 130 242 l 1
EndSplineSet
Validated: 9
EndChar

StartChar: five
Encoding: 53 53 22
Width: 600
GlyphClass: 2
Flags: W
LayerCount: 2
Fore
SplineSet
286 -12 m 0
 408 -12 522 66 522 204 c 0
 522 342 425 404 303 404 c 0
 254 404 222 394 185 378 c 1
 202 567 l 1
 490 567 l 1
 490 638 l 1
 129 638 l 1
 108 331 l 1
 152 303 l 1
 197 328 229 342 282 342 c 0
 377 342 439 290 439 202 c 0
 439 113 367 56 277 56 c 0
 191 56 139 91 97 129 c 1
 56 75 l 1
 105 31 172 -12 286 -12 c 0
EndSplineSet
Validated: 9
EndChar

StartChar: six
Encoding: 54 54 23
Width: 600
GlyphClass: 2
Flags: W
LayerCount: 2
Fore
SplineSet
321 -12 m 0
 435 -12 534 71 534 193 c 0
 534 324 453 390 335 390 c 0
 271 390 206 358 154 307 c 1
 158 512 247 581 349 581 c 0
 397 581 443 562 476 531 c 1
 522 582 l 1
 480 621 422 650 344 650 c 0
 205 650 77 551 77 295 c 0
 77 90 182 -12 321 -12 c 0
321 53 m 0
 228 53 169 119 157 242 c 1
 208 303 269 328 320 328 c 0
 408 328 456 280 456 193 c 0
 456 109 397 53 321 53 c 0
EndSplineSet
Validated: 9
EndChar

StartChar: seven
Encoding: 55 55 24
Width: 600
GlyphClass: 2
Flags: W
LayerCount: 2
Fore
SplineSet
226 0 m 1
 312 0 l 1
 321 250 363 394 532 587 c 1
 532 638 l 1
 70 638 l 1
 70 567 l 1
 438 567 l 1
 292 388 237 242 226 0 c 1
EndSplineSet
Validated: 9
EndChar

StartChar: eight
Encoding: 56 56 25
Width: 600
GlyphClass: 2
Flags: W
LayerCount: 2
Fore
SplineSet
302 -12 m 0
 448 -12 531 63 531 158 c 0
 531 249 476 289 406 324 c 1
 406 328 l 1
 459 365 503 420 503 480 c 0
 503 579 430 650 305 650 c 0
 191 650 108 584 108 486 c 0
 108 419 152 370 205 337 c 1
 205 333 l 1
 137 301 68 251 68 163 c 0
 68 62 158 -12 302 -12 c 0
352 348 m 1
 257 378 183 410 183 486 c 0
 183 548 232 589 303 589 c 0
 387 589 432 539 432 476 c 0
 432 429 404 386 352 348 c 1
304 49 m 0
 206 49 143 100 143 171 c 0
 143 235 190 276 252 310 c 1
 364 272 452 250 452 161 c 0
 452 95 399 49 304 49 c 0
EndSplineSet
Validated: 9
EndChar

StartChar: nine
Encoding: 57 57 26
Width: 600
GlyphClass: 2
Flags: W
LayerCount: 2
Fore
SplineSet
281 310 m 0
 192 310 145 358 145 445 c 0
 145 529 204 585 280 585 c 0
 374 585 431 519 444 395 c 1
 392 335 331 310 281 310 c 0
257 -12 m 0
 395 -12 524 87 524 343 c 0
 524 548 418 650 279 650 c 0
 166 650 67 567 67 445 c 0
 67 314 147 248 265 248 c 0
 330 248 394 279 446 330 c 1
 442 126 353 56 252 56 c 0
 203 56 157 76 125 107 c 1
 79 55 l 1
 121 17 179 -12 257 -12 c 0
EndSplineSet
Validated: 9
EndChar

StartChar: colon
Encoding: 58 58 27
Width: 600
GlyphClass: 2
Flags: W
LayerCount: 2
Fore
SplineSet
300 346 m 0
 345 346 381 380 381 430 c 0
 381 481 345 515 300 515 c 0
 255 515 219 481 219 430 c 0
 219 380 255 346 300 346 c 0
300 -12 m 0
 345 -12 381 22 381 72 c 0
 381 123 345 157 300 157 c 0
 255 157 219 123 219 72 c 0
 219 22 255 -12 300 -12 c 0
EndSplineSet
Validated: 9
EndChar

StartChar: semicolon
Encoding: 59 59 28
Width: 600
GlyphClass: 2
Flags: W
LayerCount: 2
Fore
SplineSet
300 346 m 0
 345 346 381 380 381 430 c 0
 381 481 345 515 300 515 c 0
 255 515 219 481 219 430 c 0
 219 380 255 346 300 346 c 0
220 -213 m 1
 330 -172 396 -90 396 27 c 0
 396 105 365 155 306 155 c 0
 263 155 226 128 226 79 c 0
 226 29 261 4 304 4 c 0
 310 4 317 4 323 6 c 1
 320 -73 279 -124 197 -161 c 1
 220 -213 l 1
EndSplineSet
Validated: 9
EndChar

StartChar: less
Encoding: 60 60 29
Width: 600
GlyphClass: 2
Flags: W
LayerCount: 2
Fore
SplineSet
493 48 m 1
 493 127 l 1
 192 330 l 1
 192 334 l 1
 493 537 l 1
 493 616 l 1
 120 363 l 1
 120 301 l 1
 493 48 l 1
EndSplineSet
Validated: 9
EndChar

StartChar: equal
Encoding: 61 61 30
Width: 600
GlyphClass: 2
Flags: W
LayerCount: 2
Fore
SplineSet
85 406 m 1
 515 406 l 1
 515 468 l 1
 85 468 l 1
 85 406 l 1
85 192 m 1
 515 192 l 1
 515 254 l 1
 85 254 l 1
 85 192 l 1
EndSplineSet
Validated: 9
EndChar

StartChar: greater
Encoding: 62 62 31
Width: 600
GlyphClass: 2
Flags: W
LayerCount: 2
Fore
SplineSet
107 48 m 1
 480 301 l 1
 480 363 l 1
 107 616 l 1
 107 537 l 1
 408 334 l 1
 408 330 l 1
 107 127 l 1
 107 48 l 1
EndSplineSet
Validated: 9
EndChar

StartChar: question
Encoding: 63 63 32
Width: 600
GlyphClass: 2
Flags: W
LayerCount: 2
Fore
SplineSet
242 232 m 1
 315 232 l 1
 297 362 479 390 479 526 c 0
 479 621 404 682 293 682 c 0
 216 682 154 648 109 601 c 1
 158 556 l 1
 194 592 237 614 288 614 c 0
 361 614 398 572 398 517 c 0
 398 415 218 375 242 232 c 1
286 -12 m 0
 326 -12 359 18 359 66 c 0
 359 113 326 142 286 142 c 0
 246 142 213 113 213 66 c 0
 213 18 246 -12 286 -12 c 0
EndSplineSet
Validated: 41
EndChar

StartChar: at
Encoding: 64 64 33
Width: 600
GlyphClass: 2
Flags: W
LayerCount: 2
Fore
SplineSet
341 -144 m 0
 407 -144 460 -125 512 -89 c 1
 484 -44 l 1
 445 -73 403 -89 343 -89 c 0
 213 -89 112 33 112 247 c 0
 112 468 219 580 339 580 c 0
 444 580 488 500 488 404 c 2
 488 390 l 1
 318 369 224 321 224 219 c 0
 224 138 282 88 353 88 c 0
 405 88 456 121 485 158 c 1
 489 158 l 1
 496 100 l 1
 546 100 l 1
 546 397 l 2
 546 532 481 635 343 635 c 0
 178 635 49 505 49 250 c 0
 49 -7 183 -144 341 -144 c 0
370 146 m 0
 321 146 290 174 290 221 c 0
 290 282 344 317 482 336 c 1
 482 210 l 1
 445 168 406 146 370 146 c 0
EndSplineSet
Validated: 9
EndChar

StartChar: A
Encoding: 65 65 34
Width: 600
GlyphClass: 2
Flags: W
LayerCount: 2
Fore
SplineSet
232 367 m 2
 255 440 276 512 297 588 c 1
 301 588 l 1
 321 512 343 440 366 367 c 2
 397 267 l 1
 201 267 l 1
 232 367 l 2
32 0 m 1
 117 0 l 1
 180 200 l 1
 418 200 l 1
 480 0 l 1
 568 0 l 1
 347 656 l 1
 253 656 l 1
 32 0 l 1
EndSplineSet
Validated: 9
EndChar

StartChar: B
Encoding: 66 66 35
Width: 600
GlyphClass: 2
Flags: W
LayerCount: 2
Fore
SplineSet
99 0 m 1
 300 0 l 2
 447 0 547 63 547 192 c 0
 547 282 491 334 395 349 c 1
 395 353 l 1
 473 373 510 431 510 496 c 0
 510 611 419 656 285 656 c 2
 99 656 l 1
 99 0 l 1
182 380 m 1
 182 586 l 1
 275 586 l 2
 376 586 428 560 428 489 c 0
 428 416 383 380 271 380 c 2
 182 380 l 1
182 70 m 1
 182 310 l 1
 288 310 l 2
 403 310 465 277 465 196 c 0
 465 107 400 70 288 70 c 2
 182 70 l 1
EndSplineSet
Validated: 9
EndChar

StartChar: C
Encoding: 67 67 36
Width: 600
GlyphClass: 2
Flags: W
LayerCount: 2
Fore
SplineSet
351 -12 m 0
 438 -12 502 23 554 83 c 1
 507 134 l 1
 465 87 419 61 359 61 c 0
 233 61 151 165 151 330 c 0
 151 493 233 595 359 595 c 0
 414 595 457 571 491 535 c 1
 538 588 l 1
 500 630 437 668 359 668 c 0
 188 668 65 539 65 328 c 0
 65 114 189 -12 351 -12 c 0
EndSplineSet
Validated: 9
EndChar

StartChar: D
Encoding: 68 68 37
Width: 600
GlyphClass: 2
Flags: W
LayerCount: 2
Fore
SplineSet
87 0 m 1
 253 0 l 2
 446 0 553 122 553 331 c 0
 553 539 446 656 249 656 c 2
 87 656 l 1
 87 0 l 1
170 68 m 1
 170 588 l 1
 243 588 l 2
 393 588 467 496 467 331 c 0
 467 165 393 68 243 68 c 2
 170 68 l 1
EndSplineSet
Validated: 9
EndChar

StartChar: E
Encoding: 69 69 38
Width: 600
GlyphClass: 2
Flags: W
LayerCount: 2
Fore
SplineSet
114 0 m 1
 530 0 l 1
 530 71 l 1
 198 71 l 1
 198 309 l 1
 470 309 l 1
 470 380 l 1
 198 380 l 1
 198 586 l 1
 520 586 l 1
 520 656 l 1
 114 656 l 1
 114 0 l 1
EndSplineSet
Validated: 9
EndChar

StartChar: F
Encoding: 70 70 39
Width: 600
GlyphClass: 2
Flags: W
LayerCount: 2
Fore
SplineSet
133 0 m 1
 217 0 l 1
 217 294 l 1
 487 294 l 1
 487 364 l 1
 217 364 l 1
 217 586 l 1
 536 586 l 1
 536 656 l 1
 133 656 l 1
 133 0 l 1
EndSplineSet
Validated: 9
EndChar

StartChar: G
Encoding: 71 71 40
Width: 600
GlyphClass: 2
Flags: W
LayerCount: 2
Fore
SplineSet
337 -12 m 0
 422 -12 492 22 533 64 c 1
 533 340 l 1
 325 340 l 1
 325 271 l 1
 456 271 l 1
 456 100 l 1
 431 76 388 61 342 61 c 0
 213 61 140 165 140 330 c 0
 140 493 221 595 344 595 c 0
 407 595 446 569 478 535 c 1
 525 588 l 1
 488 627 431 668 344 668 c 0
 174 668 53 540 53 328 c 0
 53 114 172 -12 337 -12 c 0
EndSplineSet
Validated: 9
EndChar

StartChar: H
Encoding: 72 72 41
Width: 600
GlyphClass: 2
Flags: W
LayerCount: 2
Fore
SplineSet
79 0 m 1
 163 0 l 1
 163 309 l 1
 437 309 l 1
 437 0 l 1
 521 0 l 1
 521 656 l 1
 437 656 l 1
 437 381 l 1
 163 381 l 1
 163 656 l 1
 79 656 l 1
 79 0 l 1
EndSplineSet
Validated: 9
EndChar

StartChar: I
Encoding: 73 73 42
Width: 600
GlyphClass: 2
Flags: W
LayerCount: 2
Fore
SplineSet
95 0 m 1
 505 0 l 1
 505 71 l 1
 342 71 l 1
 342 586 l 1
 505 586 l 1
 505 656 l 1
 95 656 l 1
 95 586 l 1
 258 586 l 1
 258 71 l 1
 95 71 l 1
 95 0 l 1
EndSplineSet
Validated: 9
EndChar

StartChar: J
Encoding: 74 74 43
Width: 600
GlyphClass: 2
Flags: W
LayerCount: 2
Fore
SplineSet
276 -12 m 0
 439 -12 493 88 493 210 c 2
 493 657 l 1
 135 657 l 1
 135 587 l 1
 410 587 l 1
 410 217 l 2
 410 109 368 61 274 61 c 0
 223 61 170 89 133 148 c 1
 81 97 l 1
 126 22 203 -12 276 -12 c 0
EndSplineSet
Validated: 9
EndChar

StartChar: K
Encoding: 75 75 44
Width: 600
GlyphClass: 2
Flags: W
LayerCount: 2
Fore
SplineSet
98 0 m 1
 182 0 l 1
 182 209 l 1
 295 344 l 1
 486 0 l 1
 580 0 l 1
 348 407 l 1
 556 656 l 1
 461 656 l 1
 185 327 l 1
 182 327 l 1
 182 656 l 1
 98 656 l 1
 98 0 l 1
EndSplineSet
Validated: 9
EndChar

StartChar: L
Encoding: 76 76 45
Width: 600
GlyphClass: 2
Flags: W
LayerCount: 2
Fore
SplineSet
134 0 m 1
 541 0 l 1
 541 71 l 1
 216 71 l 1
 216 656 l 1
 134 656 l 1
 134 0 l 1
EndSplineSet
Validated: 9
EndChar

StartChar: M
Encoding: 77 77 46
Width: 600
GlyphClass: 2
Flags: W
LayerCount: 2
Fore
SplineSet
72 0 m 1
 150 0 l 1
 150 328 l 2
 150 392 142 504 136 560 c 1
 138 560 l 1
 176 432 l 1
 268 174 l 1
 328 174 l 1
 422 432 l 1
 459 560 l 1
 462 560 l 1
 458 504 448 392 448 328 c 2
 448 0 l 1
 528 0 l 1
 528 656 l 1
 426 656 l 1
 333 376 l 1
 302 270 l 1
 298 270 l 1
 266 376 l 1
 174 656 l 1
 72 656 l 1
 72 0 l 1
EndSplineSet
Validated: 9
EndChar

StartChar: N
Encoding: 78 78 47
Width: 600
GlyphClass: 2
Flags: W
LayerCount: 2
Fore
SplineSet
82 0 m 1
 162 0 l 1
 162 343 l 2
 162 411 154 481 151 548 c 1
 153 548 l 1
 216 412 l 1
 426 0 l 1
 518 0 l 1
 518 656 l 1
 438 656 l 1
 438 316 l 2
 438 247 446 173 449 108 c 1
 447 108 l 1
 384 244 l 1
 174 656 l 1
 82 656 l 1
 82 0 l 1
EndSplineSet
Validated: 9
EndChar

StartChar: O
Encoding: 79 79 48
Width: 600
GlyphClass: 2
Flags: W
LayerCount: 2
Fore
SplineSet
300 -12 m 0
 448 -12 552 116 552 331 c 0
 552 543 448 668 300 668 c 0
 152 668 48 543 48 331 c 0
 48 116 152 -12 300 -12 c 0
300 61 m 0
 200 61 134 163 134 331 c 0
 134 496 200 595 300 595 c 0
 400 595 466 496 466 331 c 0
 466 163 400 61 300 61 c 0
EndSplineSet
Validated: 9
EndChar

StartChar: P
Encoding: 80 80 49
Width: 600
GlyphClass: 2
Flags: W
LayerCount: 2
Fore
SplineSet
102 0 m 1
 185 0 l 1
 185 260 l 1
 300 260 l 2
 444 260 543 325 543 463 c 0
 543 607 445 656 300 656 c 2
 102 656 l 1
 102 0 l 1
185 328 m 1
 185 589 l 1
 290 589 l 2
 403 589 459 558 459 463 c 0
 459 370 405 328 290 328 c 2
 185 328 l 1
EndSplineSet
Validated: 9
EndChar

StartChar: Q
Encoding: 81 81 50
Width: 600
GlyphClass: 2
Flags: W
LayerCount: 2
Fore
SplineSet
300 57 m 0
 200 57 134 157 134 331 c 0
 134 496 200 595 300 595 c 0
 400 595 466 496 466 331 c 0
 466 157 400 57 300 57 c 0
481 -163 m 0
 509 -163 533 -157 555 -149 c 1
 539 -82 l 1
 527 -87 510 -92 490 -92 c 0
 422 -92 371 -64 348 -7 c 1
 470 18 552 140 552 331 c 0
 552 543 448 668 300 668 c 0
 152 668 48 543 48 331 c 0
 48 136 133 13 260 -9 c 1
 292 -97 365 -163 481 -163 c 0
EndSplineSet
Validated: 9
EndChar

StartChar: R
Encoding: 82 82 51
Width: 600
GlyphClass: 2
Flags: W
LayerCount: 2
Fore
SplineSet
100 0 m 1
 183 0 l 1
 183 277 l 1
 300 277 l 1
 458 0 l 1
 553 0 l 1
 386 286 l 1
 475 309 533 370 533 472 c 0
 533 608 437 656 304 656 c 2
 100 656 l 1
 100 0 l 1
183 345 m 1
 183 589 l 1
 292 589 l 2
 394 589 450 558 450 472 c 0
 450 387 394 345 292 345 c 2
 183 345 l 1
EndSplineSet
Validated: 9
EndChar

StartChar: S
Encoding: 83 83 52
Width: 600
GlyphClass: 2
Flags: W
LayerCount: 2
Fore
SplineSet
305 -12 m 0
 449 -12 537 71 537 175 c 0
 537 272 473 317 392 350 c 2
 300 390 l 2
 244 413 183 436 183 499 c 0
 183 558 234 595 310 595 c 0
 378 595 428 571 471 533 c 1
 515 587 l 1
 467 635 395 668 313 668 c 0
 188 668 98 594 98 494 c 0
 98 398 174 351 240 325 c 2
 334 284 l 2
 401 255 452 235 452 165 c 0
 452 104 399 61 309 61 c 0
 234 61 166 94 117 143 c 1
 67 85 l 1
 126 26 209 -12 305 -12 c 0
EndSplineSet
Validated: 9
EndChar

StartChar: T
Encoding: 84 84 53
Width: 600
GlyphClass: 2
Flags: W
LayerCount: 2
Fore
SplineSet
258 0 m 1
 342 0 l 1
 342 586 l 1
 558 586 l 1
 558 656 l 1
 42 656 l 1
 42 586 l 1
 258 586 l 1
 258 0 l 1
EndSplineSet
Validated: 9
EndChar

StartChar: U
Encoding: 85 85 54
Width: 600
GlyphClass: 2
Flags: W
LayerCount: 2
Fore
SplineSet
301 -12 m 0
 429 -12 521 60 521 248 c 2
 521 656 l 1
 440 656 l 1
 440 246 l 2
 440 110 380 61 301 61 c 0
 222 61 163 110 163 246 c 2
 163 656 l 1
 79 656 l 1
 79 248 l 2
 79 60 172 -12 301 -12 c 0
EndSplineSet
Validated: 9
EndChar

StartChar: V
Encoding: 86 86 55
Width: 600
GlyphClass: 2
Flags: W
LayerCount: 2
Fore
SplineSet
252 0 m 1
 349 0 l 1
 557 656 l 1
 472 656 l 1
 367 302 l 2
 345 224 328 162 304 85 c 1
 300 85 l 1
 276 162 260 224 237 302 c 2
 131 656 l 1
 43 656 l 1
 252 0 l 1
EndSplineSet
Validated: 9
EndChar

StartChar: W
Encoding: 87 87 56
Width: 600
GlyphClass: 2
Flags: W
LayerCount: 2
Fore
SplineSet
110 0 m 1
 212 0 l 1
 276 264 l 2
 286 304 292 342 299 382 c 1
 302 382 l 1
 308 342 316 304 326 264 c 2
 390 0 l 1
 494 0 l 1
 590 657 l 1
 500 657 l 1
 454 244 l 2
 448 190 446 158 442 93 c 1
 438 93 l 1
 426 158 420 190 406 244 c 2
 344 488 l 1
 264 488 l 1
 200 244 l 2
 187 190 180 158 168 93 c 1
 165 93 l 1
 162 158 158 190 152 245 c 2
 104 657 l 1
 10 657 l 1
 110 0 l 1
EndSplineSet
Validated: 9
EndChar

StartChar: X
Encoding: 88 88 57
Width: 600
GlyphClass: 2
Flags: W
LayerCount: 2
Fore
SplineSet
54 0 m 1
 142 0 l 1
 240 177 l 2
 257 209 274 242 293 282 c 1
 297 282 l 1
 319 242 337 209 355 177 c 2
 454 0 l 1
 546 0 l 1
 350 335 l 1
 533 656 l 1
 445 656 l 1
 355 488 l 2
 339 458 326 431 308 393 c 1
 304 393 l 1
 283 431 268 458 251 488 c 2
 159 656 l 1
 67 656 l 1
 250 339 l 1
 54 0 l 1
EndSplineSet
Validated: 9
EndChar

StartChar: Y
Encoding: 89 89 58
Width: 600
GlyphClass: 2
Flags: W
LayerCount: 2
Fore
SplineSet
258 0 m 1
 342 0 l 1
 342 234 l 1
 562 656 l 1
 476 656 l 1
 381 462 l 2
 356 411 330 361 304 308 c 1
 300 308 l 1
 273 361 250 411 225 461 c 2
 126 656 l 1
 38 656 l 1
 258 234 l 1
 258 0 l 1
EndSplineSet
Validated: 9
EndChar

StartChar: Z
Encoding: 90 90 59
Width: 600
GlyphClass: 2
Flags: W
LayerCount: 2
Fore
SplineSet
65 0 m 1
 539 0 l 1
 539 71 l 1
 167 71 l 1
 534 607 l 1
 534 657 l 1
 97 657 l 1
 97 587 l 1
 431 587 l 1
 65 50 l 1
 65 0 l 1
EndSplineSet
Validated: 9
EndChar

StartChar: bracketleft
Encoding: 91 91 60
Width: 600
GlyphClass: 2
Flags: W
LayerCount: 2
Fore
SplineSet
225 -152 m 1
 502 -152 l 1
 502 -105 l 1
 291 -105 l 1
 291 661 l 1
 502 661 l 1
 502 708 l 1
 225 708 l 1
 225 -152 l 1
EndSplineSet
Validated: 9
EndChar

StartChar: backslash
Encoding: 92 92 61
Width: 600
GlyphClass: 2
Flags: W
LayerCount: 2
Fore
SplineSet
427 -160 m 1
 501 -160 l 1
 173 710 l 1
 99 710 l 1
 427 -160 l 1
EndSplineSet
Validated: 9
EndChar

StartChar: bracketright
Encoding: 93 93 62
Width: 600
GlyphClass: 2
Flags: W
LayerCount: 2
Fore
SplineSet
98 -152 m 1
 375 -152 l 1
 375 708 l 1
 98 708 l 1
 98 661 l 1
 309 661 l 1
 309 -105 l 1
 98 -105 l 1
 98 -152 l 1
EndSplineSet
Validated: 9
EndChar

StartChar: asciicircum
Encoding: 94 94 63
Width: 600
GlyphClass: 2
Flags: W
LayerCount: 2
Fore
SplineSet
111 284 m 1
 183 284 l 1
 249 460 l 1
 298 593 l 1
 302 593 l 1
 351 460 l 1
 417 284 l 1
 489 284 l 1
 336 670 l 1
 264 670 l 1
 111 284 l 1
EndSplineSet
Validated: 9
EndChar

StartChar: underscore
Encoding: 95 95 64
Width: 600
GlyphClass: 2
Flags: W
LayerCount: 2
Fore
SplineSet
60 -140 m 1
 540 -140 l 1
 540 -69 l 1
 60 -69 l 1
 60 -140 l 1
EndSplineSet
Validated: 9
EndChar

StartChar: grave
Encoding: 96 96 65
Width: 600
GlyphClass: 2
Flags: W
LayerCount: 2
Fore
SplineSet
321 568 m 1
 364 609 l 1
 222 777 l 1
 164 721 l 1
 321 568 l 1
EndSplineSet
Validated: 9
EndChar

StartChar: a
Encoding: 97 97 66
Width: 600
GlyphClass: 2
Flags: W
LayerCount: 2
Fore
SplineSet
246 -12 m 0
 315 -12 384 24 438 66 c 1
 441 66 l 1
 448 0 l 1
 515 0 l 1
 515 298 l 2
 515 419 451 498 318 498 c 0
 233 498 151 460 102 428 c 1
 134 372 l 1
 179 400 241 430 304 430 c 0
 398 430 431 374 433 308 c 1
 182 288 81 235 81 126 c 0
 81 39 155 -12 246 -12 c 0
268 54 m 0
 212 54 161 77 161 132 c 0
 161 196 225 237 433 254 c 1
 433 126 l 1
 378 80 323 54 268 54 c 0
EndSplineSet
Validated: 9
EndChar

StartChar: b
Encoding: 98 98 67
Width: 600
GlyphClass: 2
Flags: W
LayerCount: 2
Fore
SplineSet
320 -12 m 0
 436 -12 540 85 540 251 c 0
 540 401 469 498 338 498 c 0
 281 498 219 469 175 424 c 1
 172 424 l 1
 175 518 l 1
 175 712 l 1
 93 712 l 1
 93 0 l 1
 159 0 l 1
 166 54 l 1
 169 54 l 1
 215 13 273 -12 320 -12 c 0
307 57 m 0
 272 57 221 73 175 114 c 1
 175 356 l 1
 225 406 275 429 318 429 c 0
 415 429 455 357 455 250 c 0
 455 130 392 57 307 57 c 0
EndSplineSet
Validated: 9
EndChar

StartChar: c
Encoding: 99 99 68
Width: 600
GlyphClass: 2
Flags: W
LayerCount: 2
Fore
SplineSet
346 -12 m 0
 418 -12 485 16 539 64 c 1
 502 117 l 1
 462 83 412 56 352 56 c 0
 240 56 165 131 165 242 c 0
 165 354 242 430 354 430 c 0
 405 430 447 409 487 374 c 1
 528 427 l 1
 488 466 430 498 351 498 c 0
 204 498 80 405 80 242 c 0
 80 81 194 -12 346 -12 c 0
EndSplineSet
Validated: 9
EndChar

StartChar: d
Encoding: 100 100 69
Width: 600
GlyphClass: 2
Flags: W
LayerCount: 2
Fore
SplineSet
271 -12 m 0
 331 -12 389 23 429 64 c 1
 432 64 l 1
 439 0 l 1
 507 0 l 1
 507 712 l 1
 425 712 l 1
 425 525 l 1
 429 435 l 1
 426 435 l 1
 384 475 339 498 281 498 c 0
 166 498 60 400 60 242 c 0
 60 80 144 -12 271 -12 c 0
288 57 m 0
 198 57 145 127 145 243 c 0
 145 354 213 429 297 429 c 0
 339 429 381 413 425 372 c 1
 425 130 l 1
 382 82 336 57 288 57 c 0
EndSplineSet
Validated: 9
EndChar

StartChar: e
Encoding: 101 101 70
Width: 600
GlyphClass: 2
Flags: W
LayerCount: 2
Fore
SplineSet
330 -12 m 0
 408 -12 470 14 518 46 c 1
 488 100 l 1
 444 72 398 54 340 54 c 0
 239 54 161 110 151 220 c 1
 534 220 l 1
 536 233 538 251 538 270 c 0
 538 407 456 498 316 498 c 0
 186 498 68 402 68 244 c 0
 68 82 184 -12 330 -12 c 0
318 433 m 0
 401 433 456 384 463 284 c 1
 153 284 l 1
 168 380 238 433 318 433 c 0
EndSplineSet
Validated: 9
EndChar

StartChar: f
Encoding: 102 102 71
Width: 600
GlyphClass: 2
Flags: W
LayerCount: 2
Fore
SplineSet
242 0 m 1
 323 0 l 1
 323 419 l 1
 527 419 l 1
 527 486 l 1
 323 486 l 1
 323 530 l 2
 323 609 359 657 446 657 c 0
 488 657 519 652 559 634 c 1
 578 696 l 1
 532 715 486 724 438 724 c 0
 304 724 242 646 242 527 c 2
 242 486 l 1
 103 481 l 1
 103 419 l 1
 242 419 l 1
 242 0 l 1
EndSplineSet
Validated: 9
EndChar

StartChar: g
Encoding: 103 103 72
Width: 600
GlyphClass: 2
Flags: W
LayerCount: 2
Fore
SplineSet
296 -224 m 0
 461 -224 566 -145 566 -54 c 0
 566 28 506 60 381 60 c 2
 272 60 l 2
 208 60 171 78 171 116 c 0
 171 139 185 157 209 172 c 1
 236 160 266 154 291 154 c 0
 396 154 479 217 479 321 c 0
 479 360 460 396 438 419 c 1
 564 419 l 1
 564 486 l 1
 363 486 l 1
 342 494 319 498 291 498 c 0
 188 498 100 430 100 324 c 0
 100 266 127 223 160 198 c 1
 160 194 l 1
 123 169 102 134 102 103 c 0
 102 62 126 37 152 23 c 1
 152 19 l 1
 100 -11 72 -50 72 -89 c 0
 72 -175 154 -224 296 -224 c 0
291 209 m 0
 230 209 179 254 179 324 c 0
 179 392 230 438 291 438 c 0
 353 438 403 392 403 324 c 0
 403 254 353 209 291 209 c 0
302 -164 m 0
 198 -164 143 -132 143 -81 c 0
 143 -53 159 -25 205 0 c 1
 226 -6 251 -8 279 -8 c 2
 374 -8 l 2
 448 -8 485 -21 485 -67 c 0
 485 -117 415 -164 302 -164 c 0
EndSplineSet
Validated: 9
EndChar

StartChar: h
Encoding: 104 104 73
Width: 600
GlyphClass: 2
Flags: W
LayerCount: 2
Fore
SplineSet
93 0 m 1
 175 0 l 1
 175 339 l 1
 232 398 271 427 329 427 c 0
 409 427 441 383 441 291 c 2
 441 0 l 1
 523 0 l 1
 523 302 l 2
 523 430 470 498 355 498 c 0
 279 498 223 457 173 403 c 1
 170 403 l 1
 175 518 l 1
 175 712 l 1
 93 712 l 1
 93 0 l 1
EndSplineSet
Validated: 9
EndChar

StartChar: i
Encoding: 105 105 74
Width: 600
GlyphClass: 2
Flags: W
LayerCount: 2
Fore
SplineSet
316 0 m 1
 398 0 l 1
 398 486 l 1
 90 486 l 1
 90 419 l 1
 316 419 l 1
 316 0 l 1
348 588 m 0
 385 588 414 613 414 652 c 0
 414 690 385 716 348 716 c 0
 311 716 282 690 282 652 c 0
 282 613 311 588 348 588 c 0
EndSplineSet
Validated: 9
EndChar

StartChar: j
Encoding: 106 106 75
Width: 600
GlyphClass: 2
Flags: W
LayerCount: 2
Fore
SplineSet
194 -217 m 0
 351 -217 398 -132 398 -12 c 2
 398 486 l 1
 90 486 l 1
 90 419 l 1
 316 419 l 1
 316 -18 l 2
 316 -101 290 -150 193 -150 c 0
 156 -150 117 -140 82 -123 c 1
 55 -184 l 1
 94 -203 143 -217 194 -217 c 0
348 588 m 0
 385 588 414 613 414 652 c 0
 414 690 385 716 348 716 c 0
 311 716 282 690 282 652 c 0
 282 613 311 588 348 588 c 0
EndSplineSet
Validated: 9
EndChar

StartChar: k
Encoding: 107 107 76
Width: 600
GlyphClass: 2
Flags: W
LayerCount: 2
Fore
SplineSet
106 0 m 1
 188 0 l 1
 188 132 l 1
 303 245 l 1
 482 0 l 1
 574 0 l 1
 354 295 l 1
 548 486 l 1
 454 486 l 1
 192 230 l 1
 188 230 l 1
 188 712 l 1
 106 712 l 1
 106 0 l 1
EndSplineSet
Validated: 9
EndChar

StartChar: l
Encoding: 108 108 77
Width: 600
GlyphClass: 2
Flags: W
LayerCount: 2
Fore
SplineSet
407 -12 m 0
 460 -12 492 -2 537 17 c 1
 516 78 l 1
 483 63 453 56 425 56 c 0
 367 56 329 86 329 157 c 2
 329 712 l 1
 74 712 l 1
 74 645 l 1
 247 645 l 1
 247 163 l 2
 247 48 304 -12 407 -12 c 0
EndSplineSet
Validated: 9
EndChar

StartChar: m
Encoding: 109 109 78
Width: 600
GlyphClass: 2
Flags: W
LayerCount: 2
Fore
SplineSet
58 0 m 1
 140 0 l 1
 140 352 l 1
 164 402 186 427 220 427 c 0
 256 427 270 398 270 342 c 2
 270 0 l 1
 346 0 l 1
 346 352 l 1
 372 402 390 427 424 427 c 0
 460 427 476 398 476 342 c 2
 476 0 l 1
 558 0 l 1
 558 348 l 2
 558 445 518 498 450 498 c 0
 394 498 364 466 336 414 c 1
 322 470 292 498 244 498 c 0
 188 498 158 467 133 422 c 1
 131 422 l 1
 124 486 l 1
 58 486 l 1
 58 0 l 1
EndSplineSet
Validated: 9
EndChar

StartChar: n
Encoding: 110 110 79
Width: 600
GlyphClass: 2
Flags: W
LayerCount: 2
Fore
SplineSet
93 0 m 1
 175 0 l 1
 175 339 l 1
 232 398 271 427 329 427 c 0
 409 427 441 383 441 291 c 2
 441 0 l 1
 523 0 l 1
 523 302 l 2
 523 430 470 498 355 498 c 0
 279 498 223 457 172 403 c 1
 168 403 l 1
 161 486 l 1
 93 486 l 1
 93 0 l 1
EndSplineSet
Validated: 9
EndChar

StartChar: o
Encoding: 111 111 80
Width: 600
GlyphClass: 2
Flags: W
LayerCount: 2
Fore
SplineSet
300 -12 m 0
 428 -12 540 81 540 242 c 0
 540 405 428 498 300 498 c 0
 172 498 60 405 60 242 c 0
 60 81 172 -12 300 -12 c 0
300 56 m 0
 207 56 145 131 145 242 c 0
 145 354 207 430 300 430 c 0
 393 430 455 354 455 242 c 0
 455 131 393 56 300 56 c 0
EndSplineSet
Validated: 9
EndChar

StartChar: p
Encoding: 112 112 81
Width: 600
GlyphClass: 2
Flags: W
LayerCount: 2
Fore
SplineSet
93 -205 m 1
 175 -205 l 1
 175 -41 l 1
 171 51 l 1
 174 51 l 1
 217 11 274 -12 319 -12 c 0
 436 -12 540 85 540 250 c 0
 540 401 470 498 339 498 c 0
 279 498 216 467 171 424 c 1
 168 424 l 1
 161 486 l 1
 93 486 l 1
 93 -205 l 1
305 57 m 0
 272 57 221 73 175 114 c 1
 175 356 l 1
 225 406 275 429 318 429 c 0
 415 429 455 357 455 250 c 0
 455 130 392 57 305 57 c 0
EndSplineSet
Validated: 9
EndChar

StartChar: q
Encoding: 113 113 82
Width: 600
GlyphClass: 2
Flags: W
LayerCount: 2
Fore
SplineSet
425 -205 m 1
 507 -205 l 1
 507 486 l 1
 441 486 l 1
 434 432 l 1
 431 432 l 1
 385 475 340 498 281 498 c 0
 166 498 60 400 60 242 c 0
 60 80 144 -12 270 -12 c 0
 330 -12 386 21 426 62 c 1
 429 62 l 1
 425 -28 l 1
 425 -205 l 1
288 57 m 0
 198 57 145 127 145 243 c 0
 145 354 213 429 297 429 c 0
 339 429 381 413 425 372 c 1
 425 130 l 1
 382 82 336 57 288 57 c 0
EndSplineSet
Validated: 9
EndChar

StartChar: r
Encoding: 114 114 83
Width: 600
GlyphClass: 2
Flags: W
LayerCount: 2
Fore
SplineSet
146 0 m 1
 228 0 l 1
 228 285 l 1
 286 386 355 424 428 424 c 0
 466 424 484 419 518 407 c 1
 537 478 l 1
 507 493 477 498 441 498 c 0
 351 498 275 449 224 371 c 1
 221 371 l 1
 214 486 l 1
 146 486 l 1
 146 0 l 1
EndSplineSet
Validated: 9
EndChar

StartChar: s
Encoding: 115 115 84
Width: 600
GlyphClass: 2
Flags: W
LayerCount: 2
Fore
SplineSet
310 -12 m 0
 449 -12 526 54 526 133 c 0
 526 207 487 248 325 283 c 0
 226 304 184 322 184 364 c 0
 184 401 213 434 296 434 c 0
 358 434 414 414 459 383 c 1
 499 436 l 1
 451 469 377 498 303 498 c 0
 170 498 101 438 101 360 c 0
 101 287 165 244 291 218 c 0
 423 191 443 165 443 128 c 0
 443 87 402 52 320 52 c 0
 230 52 165 78 109 118 c 1
 71 64 l 1
 130 23 215 -12 310 -12 c 0
EndSplineSet
Validated: 9
EndChar

StartChar: t
Encoding: 116 116 85
Width: 600
GlyphClass: 2
Flags: W
LayerCount: 2
Fore
SplineSet
394 -12 m 0
 455 -12 502 1 546 17 c 1
 528 77 l 1
 493 64 457 55 411 55 c 0
 317 55 288 101 288 188 c 2
 288 419 l 1
 527 419 l 1
 527 486 l 1
 288 486 l 1
 288 642 l 1
 220 642 l 1
 209 486 l 1
 69 481 l 1
 69 419 l 1
 206 419 l 1
 206 189 l 2
 206 69 252 -12 394 -12 c 0
EndSplineSet
Validated: 9
EndChar

StartChar: u
Encoding: 117 117 86
Width: 600
GlyphClass: 2
Flags: W
LayerCount: 2
Fore
SplineSet
246 -12 m 0
 321 -12 378 28 427 85 c 1
 431 85 l 1
 438 0 l 1
 505 0 l 1
 505 486 l 1
 423 486 l 1
 423 149 l 1
 369 86 328 59 272 59 c 0
 191 59 160 103 160 195 c 2
 160 486 l 1
 77 486 l 1
 77 184 l 2
 77 56 130 -12 246 -12 c 0
EndSplineSet
Validated: 9
EndChar

StartChar: v
Encoding: 118 118 87
Width: 600
GlyphClass: 2
Flags: W
LayerCount: 2
Fore
SplineSet
256 0 m 1
 348 0 l 1
 549 486 l 1
 470 486 l 1
 358 210 l 2
 338 161 322 113 305 67 c 1
 301 67 l 1
 284 113 266 161 246 210 c 2
 134 486 l 1
 51 486 l 1
 256 0 l 1
EndSplineSet
Validated: 9
EndChar

StartChar: w
Encoding: 119 119 88
Width: 600
GlyphClass: 2
Flags: W
LayerCount: 2
Fore
SplineSet
114 0 m 1
 220 0 l 1
 274 232 l 2
 282 266 290 314 298 376 c 1
 302 376 l 1
 310 314 318 266 326 232 c 2
 382 0 l 1
 488 0 l 1
 592 486 l 1
 516 486 l 1
 458 204 l 2
 449 158 444 116 436 70 c 1
 432 70 l 1
 426 116 413 158 402 204 c 2
 344 456 l 1
 262 456 l 1
 202 204 l 2
 191 159 180 116 174 70 c 1
 170 70 l 1
 164 116 157 158 148 204 c 2
 90 486 l 1
 8 486 l 1
 114 0 l 1
EndSplineSet
Validated: 9
EndChar

StartChar: x
Encoding: 120 120 89
Width: 600
GlyphClass: 2
Flags: W
LayerCount: 2
Fore
SplineSet
64 0 m 1
 152 0 l 1
 232 112 l 2
 252 143 272 171 292 200 c 1
 296 200 l 1
 317 172 340 140 360 112 c 2
 445 0 l 1
 535 0 l 1
 349 245 l 1
 522 486 l 1
 435 486 l 1
 362 381 l 2
 345 354 325 324 307 297 c 1
 303 297 l 1
 283 324 263 353 246 379 c 2
 169 486 l 1
 78 486 l 1
 249 252 l 1
 64 0 l 1
EndSplineSet
Validated: 9
EndChar

StartChar: y
Encoding: 121 121 90
Width: 600
GlyphClass: 2
Flags: W
LayerCount: 2
Fore
SplineSet
131 -209 m 0
 241 -209 301 -136 337 -40 c 2
 551 486 l 1
 473 486 l 1
 367 217 l 2
 351 173 332 122 315 76 c 1
 311 76 l 1
 291 123 270 174 251 217 c 2
 132 486 l 1
 49 486 l 1
 276 -1 l 1
 261 -37 l 2
 237 -97 196 -141 128 -141 c 0
 113 -141 97 -138 84 -134 c 1
 67 -199 l 1
 84 -205 108 -209 131 -209 c 0
EndSplineSet
Validated: 9
EndChar

StartChar: z
Encoding: 122 122 91
Width: 600
GlyphClass: 2
Flags: W
LayerCount: 2
Fore
SplineSet
71 0 m 1
 531 0 l 1
 531 67 l 1
 188 67 l 1
 522 442 l 1
 522 486 l 1
 108 486 l 1
 108 419 l 1
 404 419 l 1
 71 44 l 1
 71 0 l 1
EndSplineSet
Validated: 9
EndChar

StartChar: braceleft
Encoding: 123 123 92
Width: 600
GlyphClass: 2
Flags: W
LayerCount: 2
Fore
SplineSet
441 -152 m 2
 502 -152 l 1
 502 -105 l 1
 450 -105 l 2
 348 -105 326 -79 326 -14 c 0
 326 47 332 99 332 167 c 0
 332 232 310 264 241 276 c 1
 241 280 l 1
 310 292 332 324 332 389 c 0
 332 451 326 513 326 570 c 0
 326 635 348 661 450 661 c 2
 502 661 l 1
 502 708 l 1
 441 708 l 2
 315 708 256 678 256 575 c 0
 256 506 265 445 265 382 c 0
 265 343 238 305 120 304 c 1
 120 252 l 1
 238 251 265 213 265 174 c 0
 265 107 256 54 256 -19 c 0
 256 -122 315 -152 441 -152 c 2
EndSplineSet
Validated: 9
EndChar

StartChar: bar
Encoding: 124 124 93
Width: 600
GlyphClass: 2
Flags: W
LayerCount: 2
Fore
SplineSet
263 -250 m 1
 337 -250 l 1
 337 750 l 1
 263 750 l 1
 263 -250 l 1
EndSplineSet
Validated: 9
EndChar

StartChar: braceright
Encoding: 125 125 94
Width: 600
GlyphClass: 2
Flags: W
LayerCount: 2
Fore
SplineSet
99 -152 m 1
 160 -152 l 2
 285 -152 344 -122 344 -19 c 0
 344 54 335 107 335 174 c 0
 335 213 362 251 480 252 c 1
 480 304 l 1
 362 305 335 343 335 382 c 0
 335 445 344 506 344 575 c 0
 344 678 285 708 160 708 c 2
 99 708 l 1
 99 661 l 1
 150 661 l 2
 252 661 275 635 275 570 c 0
 275 513 269 451 269 389 c 0
 269 324 290 292 359 280 c 1
 359 276 l 1
 290 264 269 232 269 167 c 0
 269 99 275 47 275 -14 c 0
 275 -79 252 -105 150 -105 c 2
 99 -105 l 1
 99 -152 l 1
EndSplineSet
Validated: 9
EndChar

StartChar: asciitilde
Encoding: 126 126 95
Width: 600
GlyphClass: 2
Flags: W
LayerCount: 2
Fore
SplineSet
388 257 m 0
 439 257 489 288 524 381 c 1
 471 405 l 1
 448 335 421 319 390 319 c 0
 333 319 291 403 212 403 c 0
 161 403 111 372 76 278 c 1
 129 255 l 1
 152 324 179 341 210 341 c 0
 267 341 309 257 388 257 c 0
EndSplineSet
Validated: 9
EndChar

StartChar: exclamdown
Encoding: 161 161 97
Width: 600
GlyphClass: 2
Flags: W
LayerCount: 2
Fore
SplineSet
260 -184 m 1
 340 -184 l 1
 338 -90 l 1
 328 254 l 1
 272 254 l 1
 262 -90 l 1
 260 -184 l 1
300 344 m 0
 340 344 373 373 373 421 c 0
 373 468 340 498 300 498 c 0
 260 498 227 468 227 421 c 0
 227 373 260 344 300 344 c 0
EndSplineSet
Validated: 9
EndChar

StartChar: cent
Encoding: 162 162 98
Width: 600
GlyphClass: 2
Flags: W
LayerCount: 2
Fore
SplineSet
194 310 m 0
 194 398 240 460 314 477 c 1
 314 142 l 1
 239 159 194 221 194 310 c 0
314 -33 m 1
 365 -33 l 1
 365 70 l 1
 417 74 466 98 506 133 c 1
 470 185 l 1
 442 161 407 141 365 138 c 1
 365 482 l 1
 400 480 430 464 456 440 c 1
 496 492 l 1
 465 521 423 547 365 550 c 1
 365 653 l 1
 314 653 l 1
 314 547 l 1
 201 532 113 448 113 310 c 0
 113 169 195 84 314 71 c 1
 314 -33 l 1
EndSplineSet
Validated: 9
EndChar

StartChar: sterling
Encoding: 163 163 99
Width: 600
GlyphClass: 2
Flags: W
LayerCount: 2
Fore
SplineSet
78 0 m 1
 531 0 l 1
 531 71 l 1
 203 71 l 1
 203 75 l 1
 251 116 275 159 275 229 c 0
 275 249 273 267 269 285 c 1
 442 285 l 1
 442 341 l 1
 253 341 l 1
 238 383 223 422 223 464 c 0
 223 533 271 581 358 581 c 0
 414 581 451 559 482 528 c 1
 530 575 l 1
 491 618 436 650 354 650 c 0
 227 650 144 579 144 466 c 0
 144 424 161 383 176 341 c 1
 77 337 l 1
 77 285 l 1
 194 285 l 1
 199 267 202 249 202 230 c 0
 202 155 161 87 78 50 c 1
 78 0 l 1
EndSplineSet
Validated: 9
EndChar

StartChar: currency
Encoding: 164 164 100
Width: 600
GlyphClass: 2
Flags: W
LayerCount: 2
Fore
SplineSet
102 83 m 1
 189 172 l 1
 221 147 259 134 300 134 c 0
 340 134 379 147 410 172 c 1
 498 83 l 1
 542 128 l 1
 458 213 l 1
 480 244 494 283 494 329 c 0
 494 375 481 415 458 446 c 1
 542 532 l 1
 498 577 l 1
 411 487 l 1
 379 511 340 524 300 524 c 0
 259 524 220 511 189 487 c 1
 102 577 l 1
 58 532 l 1
 141 446 l 1
 119 415 106 375 106 329 c 0
 106 283 119 244 142 213 c 1
 58 128 l 1
 102 83 l 1
300 195 m 0
 235 195 182 249 182 329 c 0
 182 409 235 463 300 463 c 0
 365 463 418 409 418 329 c 0
 418 249 365 195 300 195 c 0
EndSplineSet
Validated: 9
EndChar

StartChar: yen
Encoding: 165 165 101
Width: 600
GlyphClass: 2
Flags: W
LayerCount: 2
Fore
SplineSet
258 0 m 1
 340 0 l 1
 340 158 l 1
 523 158 l 1
 523 206 l 1
 340 206 l 1
 340 271 l 1
 523 271 l 1
 523 318 l 1
 361 318 l 1
 547 638 l 1
 465 638 l 1
 373 467 l 2
 349 423 327 379 303 332 c 1
 299 332 l 1
 274 379 253 423 230 467 c 2
 138 638 l 1
 53 638 l 1
 238 318 l 1
 77 318 l 1
 77 271 l 1
 258 271 l 1
 258 206 l 1
 77 206 l 1
 77 158 l 1
 258 158 l 1
 258 0 l 1
EndSplineSet
Validated: 9
EndChar

StartChar: brokenbar
Encoding: 166 166 102
Width: 600
GlyphClass: 2
Flags: W
LayerCount: 2
Fore
SplineSet
263 -250 m 1
 337 -250 l 1
 337 190 l 1
 263 190 l 1
 263 -250 l 1
263 310 m 1
 337 310 l 1
 337 750 l 1
 263 750 l 1
 263 310 l 1
EndSplineSet
Validated: 9
EndChar

StartChar: section
Encoding: 167 167 103
Width: 600
GlyphClass: 2
Flags: W
LayerCount: 2
Fore
SplineSet
287 -64 m 0
 382 -64 448 -6 448 73 c 0
 448 107 437 133 418 154 c 1
 473 183 509 220 509 284 c 0
 509 468 226 449 226 557 c 0
 226 591 250 620 306 620 c 0
 352 620 389 600 423 574 c 1
 463 627 l 1
 423 658 368 684 302 684 c 0
 202 684 151 623 151 554 c 0
 151 520 163 494 182 473 c 1
 129 445 91 402 91 343 c 0
 91 158 373 183 373 69 c 0
 373 31 341 0 287 0 c 0
 231 0 193 20 158 52 c 1
 108 7 l 1
 150 -37 214 -64 287 -64 c 0
162 348 m 0
 162 389 189 415 230 436 c 1
 315 387 438 368 438 278 c 0
 438 233 414 211 371 192 c 1
 286 242 162 260 162 348 c 0
EndSplineSet
Validated: 9
EndChar

StartChar: dieresis
Encoding: 168 168 104
Width: 600
GlyphClass: 2
Flags: W
LayerCount: 2
Fore
SplineSet
203 588 m 0
 235 588 258 612 258 644 c 0
 258 675 235 700 203 700 c 0
 171 700 148 675 148 644 c 0
 148 612 171 588 203 588 c 0
397 588 m 0
 429 588 452 612 452 644 c 0
 452 675 429 700 397 700 c 0
 365 700 342 675 342 644 c 0
 342 612 365 588 397 588 c 0
EndSplineSet
Validated: 9
EndChar

StartChar: copyright
Encoding: 169 169 105
Width: 600
GlyphClass: 2
Flags: W
LayerCount: 2
Fore
SplineSet
300 -11 m 0
 453 -11 570 119 570 323 c 0
 570 527 453 653 300 653 c 0
 147 653 30 527 30 323 c 0
 30 119 147 -11 300 -11 c 0
300 31 m 0
 166 31 76 148 76 323 c 0
 76 498 166 612 300 612 c 0
 434 612 524 498 524 323 c 0
 524 148 434 31 300 31 c 0
308 125 m 0
 358 125 391 145 421 172 c 1
 391 214 l 1
 368 195 345 180 310 180 c 0
 251 180 212 235 212 323 c 0
 212 401 253 457 314 457 c 0
 341 457 360 445 381 426 c 1
 415 465 l 1
 389 492 358 512 311 512 c 0
 224 512 146 439 146 323 c 0
 146 199 218 125 308 125 c 0
EndSplineSet
Validated: 9
EndChar

StartChar: ordfeminine
Encoding: 170 170 106
Width: 600
GlyphClass: 2
Flags: W
LayerCount: 2
Fore
SplineSet
269 387 m 0
 313 387 354 407 387 433 c 1
 389 433 l 1
 393 395 l 1
 446 395 l 1
 446 590 l 2
 446 674 404 724 318 724 c 0
 264 724 211 703 176 682 c 1
 201 639 l 1
 231 657 269 673 307 673 c 0
 362 673 380 639 382 598 c 1
 232 586 163 549 163 479 c 0
 163 422 209 387 269 387 c 0
285 436 m 0
 253 436 225 450 225 485 c 0
 225 524 268 548 382 559 c 1
 382 476 l 1
 350 451 320 436 285 436 c 0
EndSplineSet
Validated: 9
EndChar

StartChar: guillemotleft
Encoding: 171 171 107
Width: 600
GlyphClass: 2
Flags: W
LayerCount: 2
Fore
SplineSet
235 52 m 1
 274 86 l 1
 147 252 l 1
 274 417 l 1
 235 452 l 1
 82 292 l 1
 82 212 l 1
 235 52 l 1
465 52 m 1
 504 86 l 1
 377 252 l 1
 504 417 l 1
 465 452 l 1
 312 292 l 1
 312 212 l 1
 465 52 l 1
EndSplineSet
Validated: 9
EndChar

StartChar: logicalnot
Encoding: 172 172 108
Width: 600
GlyphClass: 2
Flags: W
LayerCount: 2
Fore
SplineSet
449 104 m 1
 515 104 l 1
 515 361 l 1
 85 361 l 1
 85 299 l 1
 449 299 l 1
 449 104 l 1
EndSplineSet
Validated: 9
EndChar

StartChar: uni00AD
Encoding: 173 173 109
Width: 600
GlyphClass: 2
Flags: W
LayerCount: 2
Fore
SplineSet
85 299 m 1
 515 299 l 1
 515 361 l 1
 85 361 l 1
 85 299 l 1
EndSplineSet
Validated: 9
EndChar

StartChar: registered
Encoding: 174 174 110
Width: 600
GlyphClass: 2
Flags: W
LayerCount: 2
Fore
SplineSet
300 319 m 0
 403 319 488 399 488 516 c 0
 488 633 403 713 300 713 c 0
 196 713 112 633 112 516 c 0
 112 399 196 319 300 319 c 0
300 356 m 0
 216 356 151 421 151 516 c 0
 151 610 216 677 300 677 c 0
 384 677 448 610 448 516 c 0
 448 421 384 356 300 356 c 0
227 417 m 1
 268 417 l 1
 268 487 l 1
 309 487 l 1
 344 417 l 1
 390 417 l 1
 344 500 l 1
 366 508 382 531 382 555 c 0
 382 603 345 620 303 620 c 2
 227 620 l 1
 227 417 l 1
268 519 m 1
 268 586 l 1
 296 586 l 2
 326 586 338 573 338 553 c 0
 338 531 321 519 294 519 c 2
 268 519 l 1
EndSplineSet
Validated: 9
EndChar

StartChar: macron
Encoding: 175 175 111
Width: 600
GlyphClass: 2
Flags: W
LayerCount: 2
Fore
SplineSet
167 601 m 1
 433 601 l 1
 433 658 l 1
 167 658 l 1
 167 601 l 1
EndSplineSet
Validated: 9
EndChar

StartChar: degree
Encoding: 176 176 112
Width: 600
GlyphClass: 2
Flags: W
LayerCount: 2
Fore
SplineSet
300 429 m 0
 367 429 426 479 426 556 c 0
 426 635 367 685 300 685 c 0
 233 685 175 635 175 556 c 0
 175 479 233 429 300 429 c 0
300 475 m 0
 256 475 225 509 225 556 c 0
 225 605 256 639 300 639 c 0
 345 639 376 605 376 556 c 0
 376 509 345 475 300 475 c 0
EndSplineSet
Validated: 9
EndChar

StartChar: plusminus
Encoding: 177 177 113
Width: 600
GlyphClass: 2
Flags: W
LayerCount: 2
Fore
SplineSet
267 127 m 1
 333 127 l 1
 333 304 l 1
 515 304 l 1
 515 366 l 1
 333 366 l 1
 333 556 l 1
 267 556 l 1
 267 366 l 1
 85 366 l 1
 85 304 l 1
 267 304 l 1
 267 127 l 1
85 0 m 1
 515 0 l 1
 515 62 l 1
 85 62 l 1
 85 0 l 1
EndSplineSet
Validated: 9
EndChar

StartChar: uni00B2
Encoding: 178 178 114
Width: 600
GlyphClass: 2
Flags: W
LayerCount: 2
Fore
SplineSet
162 395 m 1
 446 395 l 1
 446 449 l 1
 262 449 l 1
 357 539 427 595 427 670 c 0
 427 753 370 797 287 797 c 0
 230 797 176 767 146 721 c 1
 184 686 l 1
 207 719 241 743 278 743 c 0
 330 743 363 711 363 661 c 0
 363 602 292 546 158 432 c 1
 162 395 l 1
EndSplineSet
Validated: 9
EndChar

StartChar: uni00B3
Encoding: 179 179 115
Width: 600
GlyphClass: 2
Flags: W
LayerCount: 2
Fore
SplineSet
297 383 m 0
 378 383 445 428 445 500 c 0
 445 551 408 585 351 596 c 1
 404 616 430 645 430 692 c 0
 430 757 368 797 295 797 c 0
 237 797 192 773 158 732 c 1
 196 698 l 1
 219 727 253 746 286 746 c 0
 335 746 366 721 366 684 c 0
 366 644 329 613 250 613 c 1
 250 573 l 1
 339 573 381 548 381 503 c 0
 381 459 341 434 293 434 c 0
 249 434 209 454 184 492 c 1
 142 459 l 1
 172 414 229 383 297 383 c 0
EndSplineSet
Validated: 9
EndChar

StartChar: acute
Encoding: 180 180 116
Width: 600
GlyphClass: 2
Flags: W
LayerCount: 2
Fore
SplineSet
279 568 m 1
 436 721 l 1
 378 777 l 1
 236 609 l 1
 279 568 l 1
EndSplineSet
Validated: 9
EndChar

StartChar: mu
Encoding: 181 181 117
Width: 600
GlyphClass: 2
Flags: W
LayerCount: 2
Fore
SplineSet
84 -187 m 1
 167 -187 l 1
 161 -107 161 -58 160 43 c 1
 186 0 224 -10 268 -10 c 0
 327 -10 382 23 422 92 c 1
 424 92 l 1
 428 14 453 -12 504 -12 c 0
 524 -12 540 -9 551 -4 c 1
 540 58 l 1
 531 56 527 56 522 56 c 0
 506 56 494 66 494 92 c 0
 494 208 497 355 500 486 c 1
 417 486 l 1
 417 164 l 1
 366 75 319 59 269 59 c 0
 197 59 166 106 166 195 c 2
 166 486 l 1
 84 486 l 1
 84 -187 l 1
EndSplineSet
Validated: 9
EndChar

StartChar: paragraph
Encoding: 182 182 118
Width: 600
GlyphClass: 2
Flags: W
LayerCount: 2
Fore
SplineSet
318 226 m 2
 350 226 l 1
 350 656 l 1
 307 656 l 2
 173 656 72 600 72 443 c 0
 72 292 177 226 318 226 c 2
404 -80 m 1
 485 -80 l 1
 485 656 l 1
 404 656 l 1
 404 -80 l 1
EndSplineSet
Validated: 9
EndChar

StartChar: periodcentered
Encoding: 183 183 119
Width: 600
GlyphClass: 2
Flags: W
LayerCount: 2
Fore
SplineSet
300 263 m 0
 345 263 381 297 381 347 c 0
 381 398 345 432 300 432 c 0
 255 432 219 398 219 347 c 0
 219 297 255 263 300 263 c 0
EndSplineSet
Validated: 9
EndChar

StartChar: cedilla
Encoding: 184 184 120
Width: 600
GlyphClass: 2
Flags: W
LayerCount: 2
Fore
SplineSet
213 -226 m 1
 319 -221 378 -193 378 -135 c 0
 378 -94 351 -75 305 -64 c 1
 331 8 l 1
 277 8 l 1
 237 -88 l 1
 294 -96 314 -110 314 -136 c 0
 314 -165 289 -180 205 -186 c 1
 213 -226 l 1
EndSplineSet
Validated: 9
EndChar

StartChar: uni00B9
Encoding: 185 185 121
Width: 600
GlyphClass: 2
Flags: W
LayerCount: 2
Fore
SplineSet
175 395 m 1
 476 395 l 1
 476 449 l 1
 362 449 l 1
 362 785 l 1
 310 785 l 1
 279 762 248 752 193 744 c 1
 193 703 l 1
 298 703 l 1
 298 449 l 1
 175 449 l 1
 175 395 l 1
EndSplineSet
Validated: 9
EndChar

StartChar: ordmasculine
Encoding: 186 186 122
Width: 600
GlyphClass: 2
Flags: W
LayerCount: 2
Fore
SplineSet
300 387 m 0
 385 387 458 449 458 555 c 0
 458 663 385 724 300 724 c 0
 216 724 142 663 142 555 c 0
 142 449 216 387 300 387 c 0
300 439 m 0
 243 439 208 486 208 555 c 0
 208 625 243 672 300 672 c 0
 357 672 392 625 392 555 c 0
 392 486 357 439 300 439 c 0
EndSplineSet
Validated: 9
EndChar

StartChar: guillemotright
Encoding: 187 187 123
Width: 600
GlyphClass: 2
Flags: W
LayerCount: 2
Fore
SplineSet
135 52 m 1
 288 212 l 1
 288 292 l 1
 135 452 l 1
 96 417 l 1
 223 252 l 1
 96 86 l 1
 135 52 l 1
365 52 m 1
 518 212 l 1
 518 292 l 1
 365 452 l 1
 326 417 l 1
 453 252 l 1
 326 86 l 1
 365 52 l 1
EndSplineSet
Validated: 9
EndChar

StartChar: onequarter
Encoding: 188 188 124
Width: 600
GlyphClass: 2
Flags: W
LayerCount: 2
Fore
SplineSet
149 333 m 1
 212 333 l 1
 212 638 l 1
 162 638 l 1
 134 622 111 612 67 605 c 1
 67 563 l 1
 149 563 l 1
 149 333 l 1
77 32 m 1
 244 235 l 1
 211 265 l 1
 28 77 l 1
 77 32 l 1
389 391 m 1
 572 579 l 1
 523 624 l 1
 356 421 l 1
 389 391 l 1
468 0 m 1
 525 0 l 1
 525 74 l 1
 575 74 l 1
 575 116 l 1
 525 116 l 1
 525 213 l 1
 468 213 l 1
 468 116 l 1
 368 116 l 1
 465 297 l 1
 419 317 l 1
 306 105 l 1
 306 74 l 1
 468 74 l 1
 468 0 l 1
EndSplineSet
Validated: 9
EndChar

StartChar: onehalf
Encoding: 189 189 125
Width: 600
GlyphClass: 2
Flags: W
LayerCount: 2
Fore
SplineSet
149 333 m 1
 212 333 l 1
 212 638 l 1
 162 638 l 1
 134 622 111 612 67 605 c 1
 67 563 l 1
 149 563 l 1
 149 333 l 1
77 32 m 1
 244 235 l 1
 211 265 l 1
 28 77 l 1
 77 32 l 1
389 391 m 1
 572 579 l 1
 523 624 l 1
 356 421 l 1
 389 391 l 1
324 0 m 1
 563 0 l 1
 563 53 l 1
 427 53 l 1
 493 113 548 160 548 214 c 0
 548 280 504 317 432 317 c 0
 384 317 344 291 314 256 c 1
 353 223 l 1
 372 248 398 265 425 265 c 0
 463 265 485 242 485 206 c 0
 485 162 428 115 324 36 c 1
 324 0 l 1
EndSplineSet
Validated: 9
EndChar

StartChar: threequarters
Encoding: 190 190 126
Width: 600
GlyphClass: 2
Flags: W
LayerCount: 2
Fore
SplineSet
158 321 m 0
 226 321 279 355 279 414 c 0
 279 455 251 481 208 491 c 1
 247 505 264 528 264 566 c 0
 264 619 220 650 158 650 c 0
 112 650 68 632 43 605 c 1
 73 567 l 1
 93 587 122 601 146 601 c 0
 184 601 201 584 201 558 c 0
 201 527 175 507 120 507 c 1
 120 469 l 1
 185 469 216 452 216 418 c 0
 216 385 190 371 154 371 c 0
 118 371 83 390 63 414 c 1
 31 375 l 1
 64 341 112 321 158 321 c 0
102 32 m 1
 269 235 l 1
 236 265 l 1
 53 77 l 1
 102 32 l 1
414 391 m 1
 597 579 l 1
 548 624 l 1
 381 421 l 1
 414 391 l 1
468 0 m 1
 525 0 l 1
 525 74 l 1
 575 74 l 1
 575 116 l 1
 525 116 l 1
 525 213 l 1
 468 213 l 1
 468 116 l 1
 368 116 l 1
 465 297 l 1
 419 317 l 1
 306 105 l 1
 306 74 l 1
 468 74 l 1
 468 0 l 1
EndSplineSet
Validated: 9
EndChar

StartChar: questiondown
Encoding: 191 191 127
Width: 600
GlyphClass: 2
Flags: W
LayerCount: 2
Fore
SplineSet
307 -196 m 0
 384 -196 446 -162 491 -115 c 1
 442 -70 l 1
 406 -106 363 -127 312 -127 c 0
 239 -127 202 -86 202 -31 c 0
 202 71 382 111 358 254 c 1
 285 254 l 1
 303 124 121 96 121 -40 c 0
 121 -135 196 -196 307 -196 c 0
314 344 m 0
 354 344 387 373 387 421 c 0
 387 468 354 498 314 498 c 0
 274 498 241 468 241 421 c 0
 241 373 274 344 314 344 c 0
EndSplineSet
Validated: 41
EndChar

StartChar: Agrave
Encoding: 192 192 128
Width: 600
GlyphClass: 2
Flags: W
LayerCount: 2
Fore
SplineSet
232 367 m 2
 255 440 276 512 297 588 c 1
 301 588 l 1
 321 512 343 440 366 367 c 2
 397 267 l 1
 201 267 l 1
 232 367 l 2
32 0 m 1
 117 0 l 1
 180 200 l 1
 418 200 l 1
 480 0 l 1
 568 0 l 1
 347 656 l 1
 253 656 l 1
 32 0 l 1
329 697 m 1
 365 739 l 1
 224 867 l 1
 177 812 l 1
 329 697 l 1
EndSplineSet
Validated: 9
EndChar

StartChar: Aacute
Encoding: 193 193 129
Width: 600
GlyphClass: 2
Flags: W
LayerCount: 2
Fore
SplineSet
232 367 m 2
 255 440 276 512 297 588 c 1
 301 588 l 1
 321 512 343 440 366 367 c 2
 397 267 l 1
 201 267 l 1
 232 367 l 2
32 0 m 1
 117 0 l 1
 180 200 l 1
 418 200 l 1
 480 0 l 1
 568 0 l 1
 347 656 l 1
 253 656 l 1
 32 0 l 1
271 697 m 1
 423 812 l 1
 376 867 l 1
 235 739 l 1
 271 697 l 1
EndSplineSet
Validated: 9
EndChar

StartChar: Acircumflex
Encoding: 194 194 130
Width: 600
GlyphClass: 2
Flags: W
LayerCount: 2
Fore
SplineSet
232 367 m 2
 255 440 276 512 297 588 c 1
 301 588 l 1
 321 512 343 440 366 367 c 2
 397 267 l 1
 201 267 l 1
 232 367 l 2
32 0 m 1
 117 0 l 1
 180 200 l 1
 418 200 l 1
 480 0 l 1
 568 0 l 1
 347 656 l 1
 253 656 l 1
 32 0 l 1
188 699 m 1
 298 792 l 1
 302 792 l 1
 412 699 l 1
 448 725 l 1
 343 838 l 1
 257 838 l 1
 152 725 l 1
 188 699 l 1
EndSplineSet
Validated: 9
EndChar

StartChar: Atilde
Encoding: 195 195 131
Width: 600
GlyphClass: 2
Flags: W
LayerCount: 2
Fore
SplineSet
232 367 m 2
 255 440 276 512 297 588 c 1
 301 588 l 1
 321 512 343 440 366 367 c 2
 397 267 l 1
 201 267 l 1
 232 367 l 2
32 0 m 1
 117 0 l 1
 180 200 l 1
 418 200 l 1
 480 0 l 1
 568 0 l 1
 347 656 l 1
 253 656 l 1
 32 0 l 1
375 709 m 0
 435 709 473 755 477 832 c 1
 421 836 l 1
 416 793 398 770 373 770 c 0
 326 770 300 841 225 841 c 0
 165 841 127 794 123 718 c 1
 179 714 l 1
 183 757 202 780 227 780 c 0
 274 780 300 709 375 709 c 0
EndSplineSet
Validated: 9
EndChar

StartChar: Adieresis
Encoding: 196 196 132
Width: 600
GlyphClass: 2
Flags: W
LayerCount: 2
Fore
SplineSet
232 367 m 2
 255 440 276 512 297 588 c 1
 301 588 l 1
 321 512 343 440 366 367 c 2
 397 267 l 1
 201 267 l 1
 232 367 l 2
32 0 m 1
 117 0 l 1
 180 200 l 1
 418 200 l 1
 480 0 l 1
 568 0 l 1
 347 656 l 1
 253 656 l 1
 32 0 l 1
209 715 m 0
 238 715 259 736 259 766 c 0
 259 796 238 816 209 816 c 0
 180 816 158 796 158 766 c 0
 158 736 180 715 209 715 c 0
391 715 m 0
 420 715 442 736 442 766 c 0
 442 796 420 816 391 816 c 0
 362 816 341 796 341 766 c 0
 341 736 362 715 391 715 c 0
EndSplineSet
Validated: 9
EndChar

StartChar: Aring
Encoding: 197 197 133
Width: 600
GlyphClass: 2
Flags: W
LayerCount: 2
Fore
SplineSet
232 367 m 2
 255 440 276 512 297 588 c 1
 301 588 l 1
 321 512 343 440 366 367 c 2
 397 267 l 1
 201 267 l 1
 232 367 l 2
32 0 m 1
 117 0 l 1
 180 200 l 1
 418 200 l 1
 480 0 l 1
 568 0 l 1
 347 656 l 1
 253 656 l 1
 32 0 l 1
300 699 m 0
 355 699 397 735 397 789 c 0
 397 844 355 880 300 880 c 0
 244 880 203 844 203 789 c 0
 203 735 244 699 300 699 c 0
300 735 m 0
 271 735 248 754 248 789 c 0
 248 823 271 843 300 843 c 0
 327 843 351 823 351 789 c 0
 351 754 327 735 300 735 c 0
EndSplineSet
Validated: 9
EndChar

StartChar: AE
Encoding: 198 198 134
Width: 600
GlyphClass: 2
Flags: W
LayerCount: 2
Fore
SplineSet
231 377 m 2
 258 448 287 518 314 590 c 1
 317 590 l 1
 317 258 l 1
 185 258 l 1
 231 377 l 2
-1 0 m 1
 86 0 l 1
 159 191 l 1
 317 191 l 1
 317 0 l 1
 591 0 l 1
 591 71 l 1
 393 71 l 1
 393 310 l 1
 540 310 l 1
 540 381 l 1
 393 381 l 1
 393 586 l 1
 582 586 l 1
 582 656 l 1
 263 656 l 1
 -1 0 l 1
EndSplineSet
Validated: 9
EndChar

StartChar: Ccedilla
Encoding: 199 199 135
Width: 600
GlyphClass: 2
Flags: W
LayerCount: 2
Fore
SplineSet
263 -226 m 1
 369 -221 428 -193 428 -135 c 0
 428 -94 401 -75 355 -64 c 1
 374 -11 l 1
 449 -5 507 28 554 83 c 1
 507 134 l 1
 465 87 419 61 359 61 c 0
 233 61 151 165 151 330 c 0
 151 493 233 595 359 595 c 0
 414 595 457 571 491 535 c 1
 538 588 l 1
 500 630 437 668 359 668 c 0
 188 668 65 539 65 328 c 0
 65 128 173 5 319 -10 c 1
 287 -88 l 1
 344 -96 364 -110 364 -136 c 0
 364 -165 339 -180 255 -186 c 1
 263 -226 l 1
EndSplineSet
Validated: 9
EndChar

StartChar: Egrave
Encoding: 200 200 136
Width: 600
GlyphClass: 2
Flags: W
LayerCount: 2
Fore
SplineSet
114 0 m 1
 530 0 l 1
 530 71 l 1
 198 71 l 1
 198 309 l 1
 470 309 l 1
 470 380 l 1
 198 380 l 1
 198 586 l 1
 520 586 l 1
 520 656 l 1
 114 656 l 1
 114 0 l 1
360 697 m 1
 396 739 l 1
 255 867 l 1
 208 812 l 1
 360 697 l 1
EndSplineSet
Validated: 9
EndChar

StartChar: Eacute
Encoding: 201 201 137
Width: 600
GlyphClass: 2
Flags: W
LayerCount: 2
Fore
SplineSet
114 0 m 1
 530 0 l 1
 530 71 l 1
 198 71 l 1
 198 309 l 1
 470 309 l 1
 470 380 l 1
 198 380 l 1
 198 586 l 1
 520 586 l 1
 520 656 l 1
 114 656 l 1
 114 0 l 1
302 697 m 1
 454 812 l 1
 407 867 l 1
 266 739 l 1
 302 697 l 1
EndSplineSet
Validated: 9
EndChar

StartChar: Ecircumflex
Encoding: 202 202 138
Width: 600
GlyphClass: 2
Flags: W
LayerCount: 2
Fore
SplineSet
114 0 m 1
 530 0 l 1
 530 71 l 1
 198 71 l 1
 198 309 l 1
 470 309 l 1
 470 380 l 1
 198 380 l 1
 198 586 l 1
 520 586 l 1
 520 656 l 1
 114 656 l 1
 114 0 l 1
219 699 m 1
 329 792 l 1
 333 792 l 1
 443 699 l 1
 479 725 l 1
 374 838 l 1
 288 838 l 1
 183 725 l 1
 219 699 l 1
EndSplineSet
Validated: 9
EndChar

StartChar: Edieresis
Encoding: 203 203 139
Width: 600
GlyphClass: 2
Flags: W
LayerCount: 2
Fore
SplineSet
114 0 m 1
 530 0 l 1
 530 71 l 1
 198 71 l 1
 198 309 l 1
 470 309 l 1
 470 380 l 1
 198 380 l 1
 198 586 l 1
 520 586 l 1
 520 656 l 1
 114 656 l 1
 114 0 l 1
240 715 m 0
 269 715 290 736 290 766 c 0
 290 796 269 816 240 816 c 0
 211 816 189 796 189 766 c 0
 189 736 211 715 240 715 c 0
422 715 m 0
 451 715 473 736 473 766 c 0
 473 796 451 816 422 816 c 0
 393 816 372 796 372 766 c 0
 372 736 393 715 422 715 c 0
EndSplineSet
Validated: 9
EndChar

StartChar: Igrave
Encoding: 204 204 140
Width: 600
GlyphClass: 2
Flags: W
LayerCount: 2
Fore
SplineSet
95 0 m 1
 505 0 l 1
 505 71 l 1
 342 71 l 1
 342 586 l 1
 505 586 l 1
 505 656 l 1
 95 656 l 1
 95 586 l 1
 258 586 l 1
 258 71 l 1
 95 71 l 1
 95 0 l 1
329 697 m 1
 365 739 l 1
 224 867 l 1
 177 812 l 1
 329 697 l 1
EndSplineSet
Validated: 9
EndChar

StartChar: Iacute
Encoding: 205 205 141
Width: 600
GlyphClass: 2
Flags: W
LayerCount: 2
Fore
SplineSet
95 0 m 1
 505 0 l 1
 505 71 l 1
 342 71 l 1
 342 586 l 1
 505 586 l 1
 505 656 l 1
 95 656 l 1
 95 586 l 1
 258 586 l 1
 258 71 l 1
 95 71 l 1
 95 0 l 1
271 697 m 1
 423 812 l 1
 376 867 l 1
 235 739 l 1
 271 697 l 1
EndSplineSet
Validated: 9
EndChar

StartChar: Icircumflex
Encoding: 206 206 142
Width: 600
GlyphClass: 2
Flags: W
LayerCount: 2
Fore
SplineSet
95 0 m 1
 505 0 l 1
 505 71 l 1
 342 71 l 1
 342 586 l 1
 505 586 l 1
 505 656 l 1
 95 656 l 1
 95 586 l 1
 258 586 l 1
 258 71 l 1
 95 71 l 1
 95 0 l 1
188 699 m 1
 298 792 l 1
 302 792 l 1
 412 699 l 1
 448 725 l 1
 343 838 l 1
 257 838 l 1
 152 725 l 1
 188 699 l 1
EndSplineSet
Validated: 9
EndChar

StartChar: Idieresis
Encoding: 207 207 143
Width: 600
GlyphClass: 2
Flags: W
LayerCount: 2
Fore
SplineSet
95 0 m 1
 505 0 l 1
 505 71 l 1
 342 71 l 1
 342 586 l 1
 505 586 l 1
 505 656 l 1
 95 656 l 1
 95 586 l 1
 258 586 l 1
 258 71 l 1
 95 71 l 1
 95 0 l 1
209 715 m 0
 238 715 259 736 259 766 c 0
 259 796 238 816 209 816 c 0
 180 816 158 796 158 766 c 0
 158 736 180 715 209 715 c 0
391 715 m 0
 420 715 442 736 442 766 c 0
 442 796 420 816 391 816 c 0
 362 816 341 796 341 766 c 0
 341 736 362 715 391 715 c 0
EndSplineSet
Validated: 9
EndChar

StartChar: Eth
Encoding: 208 208 144
Width: 600
GlyphClass: 2
Flags: W
LayerCount: 2
Fore
SplineSet
87 0 m 1
 253 0 l 2
 446 0 553 122 553 331 c 0
 553 539 446 656 249 656 c 2
 87 656 l 1
 87 376 l 1
 12 370 l 1
 12 314 l 1
 87 314 l 1
 87 0 l 1
170 68 m 1
 170 314 l 1
 314 314 l 1
 314 376 l 1
 170 376 l 1
 170 588 l 1
 243 588 l 2
 392 588 466 496 466 331 c 0
 466 165 392 68 243 68 c 2
 170 68 l 1
EndSplineSet
Validated: 9
EndChar

StartChar: Ntilde
Encoding: 209 209 145
Width: 600
GlyphClass: 2
Flags: W
LayerCount: 2
Fore
SplineSet
82 0 m 1
 162 0 l 1
 162 343 l 2
 162 411 154 481 151 548 c 1
 153 548 l 1
 216 412 l 1
 426 0 l 1
 518 0 l 1
 518 656 l 1
 438 656 l 1
 438 316 l 2
 438 247 446 173 449 108 c 1
 447 108 l 1
 384 244 l 1
 174 656 l 1
 82 656 l 1
 82 0 l 1
385 709 m 0
 445 709 483 755 487 832 c 1
 431 836 l 1
 426 793 408 770 383 770 c 0
 336 770 310 841 235 841 c 0
 175 841 137 794 133 718 c 1
 189 714 l 1
 193 757 212 780 237 780 c 0
 284 780 310 709 385 709 c 0
EndSplineSet
Validated: 9
EndChar

StartChar: Ograve
Encoding: 210 210 146
Width: 600
GlyphClass: 2
Flags: W
LayerCount: 2
Fore
SplineSet
300 -12 m 0
 448 -12 552 116 552 331 c 0
 552 543 448 668 300 668 c 0
 152 668 48 543 48 331 c 0
 48 116 152 -12 300 -12 c 0
300 61 m 0
 200 61 134 163 134 331 c 0
 134 496 200 595 300 595 c 0
 400 595 466 496 466 331 c 0
 466 163 400 61 300 61 c 0
329 697 m 1
 365 739 l 1
 224 867 l 1
 177 812 l 1
 329 697 l 1
EndSplineSet
Validated: 9
EndChar

StartChar: Oacute
Encoding: 211 211 147
Width: 600
GlyphClass: 2
Flags: W
LayerCount: 2
Fore
SplineSet
300 -12 m 0
 448 -12 552 116 552 331 c 0
 552 543 448 668 300 668 c 0
 152 668 48 543 48 331 c 0
 48 116 152 -12 300 -12 c 0
300 61 m 0
 200 61 134 163 134 331 c 0
 134 496 200 595 300 595 c 0
 400 595 466 496 466 331 c 0
 466 163 400 61 300 61 c 0
271 697 m 1
 423 812 l 1
 376 867 l 1
 235 739 l 1
 271 697 l 1
EndSplineSet
Validated: 9
EndChar

StartChar: Ocircumflex
Encoding: 212 212 148
Width: 600
GlyphClass: 2
Flags: W
LayerCount: 2
Fore
SplineSet
300 -12 m 0
 448 -12 552 116 552 331 c 0
 552 543 448 668 300 668 c 0
 152 668 48 543 48 331 c 0
 48 116 152 -12 300 -12 c 0
300 61 m 0
 200 61 134 163 134 331 c 0
 134 496 200 595 300 595 c 0
 400 595 466 496 466 331 c 0
 466 163 400 61 300 61 c 0
188 699 m 1
 298 792 l 1
 302 792 l 1
 412 699 l 1
 448 725 l 1
 343 838 l 1
 257 838 l 1
 152 725 l 1
 188 699 l 1
EndSplineSet
Validated: 9
EndChar

StartChar: Otilde
Encoding: 213 213 149
Width: 600
GlyphClass: 2
Flags: W
LayerCount: 2
Fore
SplineSet
300 -12 m 0
 448 -12 552 116 552 331 c 0
 552 543 448 668 300 668 c 0
 152 668 48 543 48 331 c 0
 48 116 152 -12 300 -12 c 0
300 61 m 0
 200 61 134 163 134 331 c 0
 134 496 200 595 300 595 c 0
 400 595 466 496 466 331 c 0
 466 163 400 61 300 61 c 0
375 709 m 0
 435 709 473 755 477 832 c 1
 421 836 l 1
 416 793 398 770 373 770 c 0
 326 770 300 841 225 841 c 0
 165 841 127 794 123 718 c 1
 179 714 l 1
 183 757 202 780 227 780 c 0
 274 780 300 709 375 709 c 0
EndSplineSet
Validated: 9
EndChar

StartChar: Odieresis
Encoding: 214 214 150
Width: 600
GlyphClass: 2
Flags: W
LayerCount: 2
Fore
SplineSet
300 -12 m 0
 448 -12 552 116 552 331 c 0
 552 543 448 668 300 668 c 0
 152 668 48 543 48 331 c 0
 48 116 152 -12 300 -12 c 0
300 61 m 0
 200 61 134 163 134 331 c 0
 134 496 200 595 300 595 c 0
 400 595 466 496 466 331 c 0
 466 163 400 61 300 61 c 0
209 715 m 0
 238 715 259 736 259 766 c 0
 259 796 238 816 209 816 c 0
 180 816 158 796 158 766 c 0
 158 736 180 715 209 715 c 0
391 715 m 0
 420 715 442 736 442 766 c 0
 442 796 420 816 391 816 c 0
 362 816 341 796 341 766 c 0
 341 736 362 715 391 715 c 0
EndSplineSet
Validated: 9
EndChar

StartChar: multiply
Encoding: 215 215 151
Width: 600
GlyphClass: 2
Flags: W
LayerCount: 2
Fore
SplineSet
146 126 m 1
 300 286 l 1
 454 126 l 1
 498 171 l 1
 344 330 l 1
 498 488 l 1
 454 533 l 1
 300 374 l 1
 146 533 l 1
 102 488 l 1
 256 330 l 1
 102 171 l 1
 146 126 l 1
EndSplineSet
Validated: 9
EndChar

StartChar: Oslash
Encoding: 216 216 152
Width: 600
GlyphClass: 2
Flags: W
LayerCount: 2
Fore
SplineSet
300 -12 m 0
 448 -12 552 116 552 331 c 0
 552 425 532 502 496 558 c 1
 560 652 l 1
 504 688 l 1
 452 611 l 1
 410 648 359 668 300 668 c 0
 152 668 48 543 48 331 c 0
 48 237 68 159 103 102 c 1
 36 4 l 1
 92 -32 l 1
 146 48 l 1
 188 9 240 -12 300 -12 c 0
134 331 m 0
 134 496 200 595 300 595 c 0
 342 595 378 577 406 545 c 1
 157 181 l 1
 142 222 134 272 134 331 c 0
300 61 m 0
 257 61 220 80 192 115 c 1
 442 480 l 1
 458 440 466 390 466 331 c 0
 466 163 400 61 300 61 c 0
EndSplineSet
Validated: 9
EndChar

StartChar: Ugrave
Encoding: 217 217 153
Width: 600
GlyphClass: 2
Flags: W
LayerCount: 2
Fore
SplineSet
301 -12 m 0
 429 -12 521 60 521 248 c 2
 521 656 l 1
 440 656 l 1
 440 246 l 2
 440 110 380 61 301 61 c 0
 222 61 163 110 163 246 c 2
 163 656 l 1
 79 656 l 1
 79 248 l 2
 79 60 172 -12 301 -12 c 0
329 697 m 1
 365 739 l 1
 224 867 l 1
 177 812 l 1
 329 697 l 1
EndSplineSet
Validated: 9
EndChar

StartChar: Uacute
Encoding: 218 218 154
Width: 600
GlyphClass: 2
Flags: W
LayerCount: 2
Fore
SplineSet
301 -12 m 0
 429 -12 521 60 521 248 c 2
 521 656 l 1
 440 656 l 1
 440 246 l 2
 440 110 380 61 301 61 c 0
 222 61 163 110 163 246 c 2
 163 656 l 1
 79 656 l 1
 79 248 l 2
 79 60 172 -12 301 -12 c 0
271 697 m 1
 423 812 l 1
 376 867 l 1
 235 739 l 1
 271 697 l 1
EndSplineSet
Validated: 9
EndChar

StartChar: Ucircumflex
Encoding: 219 219 155
Width: 600
GlyphClass: 2
Flags: W
LayerCount: 2
Fore
SplineSet
301 -12 m 0
 429 -12 521 60 521 248 c 2
 521 656 l 1
 440 656 l 1
 440 246 l 2
 440 110 380 61 301 61 c 0
 222 61 163 110 163 246 c 2
 163 656 l 1
 79 656 l 1
 79 248 l 2
 79 60 172 -12 301 -12 c 0
188 699 m 1
 298 792 l 1
 302 792 l 1
 412 699 l 1
 448 725 l 1
 343 838 l 1
 257 838 l 1
 152 725 l 1
 188 699 l 1
EndSplineSet
Validated: 9
EndChar

StartChar: Udieresis
Encoding: 220 220 156
Width: 600
GlyphClass: 2
Flags: W
LayerCount: 2
Fore
SplineSet
301 -12 m 0
 429 -12 521 60 521 248 c 2
 521 656 l 1
 440 656 l 1
 440 246 l 2
 440 110 380 61 301 61 c 0
 222 61 163 110 163 246 c 2
 163 656 l 1
 79 656 l 1
 79 248 l 2
 79 60 172 -12 301 -12 c 0
209 715 m 0
 238 715 259 736 259 766 c 0
 259 796 238 816 209 816 c 0
 180 816 158 796 158 766 c 0
 158 736 180 715 209 715 c 0
391 715 m 0
 420 715 442 736 442 766 c 0
 442 796 420 816 391 816 c 0
 362 816 341 796 341 766 c 0
 341 736 362 715 391 715 c 0
EndSplineSet
Validated: 9
EndChar

StartChar: Yacute
Encoding: 221 221 157
Width: 600
GlyphClass: 2
Flags: W
LayerCount: 2
Fore
SplineSet
258 0 m 1
 342 0 l 1
 342 234 l 1
 562 656 l 1
 476 656 l 1
 381 462 l 2
 356 411 330 361 304 308 c 1
 300 308 l 1
 273 361 250 411 225 461 c 2
 126 656 l 1
 38 656 l 1
 258 234 l 1
 258 0 l 1
271 697 m 1
 423 812 l 1
 376 867 l 1
 235 739 l 1
 271 697 l 1
EndSplineSet
Validated: 9
EndChar

StartChar: Thorn
Encoding: 222 222 158
Width: 600
GlyphClass: 2
Flags: W
LayerCount: 2
Fore
SplineSet
101 0 m 1
 185 0 l 1
 185 150 l 1
 303 150 l 2
 446 150 545 214 545 353 c 0
 545 496 448 546 303 546 c 2
 185 546 l 1
 185 656 l 1
 101 656 l 1
 101 0 l 1
185 218 m 1
 185 478 l 1
 292 478 l 2
 405 478 462 447 462 353 c 0
 462 259 407 218 292 218 c 2
 185 218 l 1
EndSplineSet
Validated: 9
EndChar

StartChar: germandbls
Encoding: 223 223 159
Width: 600
GlyphClass: 2
Flags: W
LayerCount: 2
Fore
SplineSet
401 -12 m 0
 500 -12 564 53 564 137 c 0
 564 295 363 277 363 374 c 0
 363 443 453 476 453 576 c 0
 453 655 395 724 289 724 c 0
 164 724 88 642 88 519 c 2
 88 0 l 1
 170 0 l 1
 170 507 l 2
 170 606 215 657 288 657 c 0
 343 657 374 620 374 571 c 0
 374 486 284 455 284 364 c 0
 284 225 486 246 486 130 c 0
 486 89 455 52 399 52 c 0
 360 52 327 65 290 91 c 1
 257 33 l 1
 299 5 345 -12 401 -12 c 0
EndSplineSet
Validated: 9
EndChar

StartChar: agrave
Encoding: 224 224 160
Width: 600
GlyphClass: 2
Flags: W
LayerCount: 2
Fore
SplineSet
246 -12 m 0
 315 -12 384 24 438 66 c 1
 441 66 l 1
 448 0 l 1
 515 0 l 1
 515 298 l 2
 515 419 451 498 318 498 c 0
 233 498 151 460 102 428 c 1
 134 372 l 1
 179 400 241 430 304 430 c 0
 398 430 431 374 433 308 c 1
 182 288 81 235 81 126 c 0
 81 39 155 -12 246 -12 c 0
268 54 m 0
 212 54 161 77 161 132 c 0
 161 196 225 237 433 254 c 1
 433 126 l 1
 378 80 323 54 268 54 c 0
341 568 m 1
 384 609 l 1
 242 777 l 1
 184 721 l 1
 341 568 l 1
EndSplineSet
Validated: 9
EndChar

StartChar: aacute
Encoding: 225 225 161
Width: 600
GlyphClass: 2
Flags: W
LayerCount: 2
Fore
SplineSet
246 -12 m 0
 315 -12 384 24 438 66 c 1
 441 66 l 1
 448 0 l 1
 515 0 l 1
 515 298 l 2
 515 419 451 498 318 498 c 0
 233 498 151 460 102 428 c 1
 134 372 l 1
 179 400 241 430 304 430 c 0
 398 430 431 374 433 308 c 1
 182 288 81 235 81 126 c 0
 81 39 155 -12 246 -12 c 0
268 54 m 0
 212 54 161 77 161 132 c 0
 161 196 225 237 433 254 c 1
 433 126 l 1
 378 80 323 54 268 54 c 0
299 568 m 1
 456 721 l 1
 398 777 l 1
 256 609 l 1
 299 568 l 1
EndSplineSet
Validated: 9
EndChar

StartChar: acircumflex
Encoding: 226 226 162
Width: 600
GlyphClass: 2
Flags: W
LayerCount: 2
Fore
SplineSet
246 -12 m 0
 315 -12 384 24 438 66 c 1
 441 66 l 1
 448 0 l 1
 515 0 l 1
 515 298 l 2
 515 419 451 498 318 498 c 0
 233 498 151 460 102 428 c 1
 134 372 l 1
 179 400 241 430 304 430 c 0
 398 430 431 374 433 308 c 1
 182 288 81 235 81 126 c 0
 81 39 155 -12 246 -12 c 0
268 54 m 0
 212 54 161 77 161 132 c 0
 161 196 225 237 433 254 c 1
 433 126 l 1
 378 80 323 54 268 54 c 0
200 568 m 1
 318 681 l 1
 322 681 l 1
 440 568 l 1
 475 600 l 1
 361 740 l 1
 279 740 l 1
 165 600 l 1
 200 568 l 1
EndSplineSet
Validated: 9
EndChar

StartChar: atilde
Encoding: 227 227 163
Width: 600
GlyphClass: 2
Flags: W
LayerCount: 2
Fore
SplineSet
246 -12 m 0
 315 -12 384 24 438 66 c 1
 441 66 l 1
 448 0 l 1
 515 0 l 1
 515 298 l 2
 515 419 451 498 318 498 c 0
 233 498 151 460 102 428 c 1
 134 372 l 1
 179 400 241 430 304 430 c 0
 398 430 431 374 433 308 c 1
 182 288 81 235 81 126 c 0
 81 39 155 -12 246 -12 c 0
268 54 m 0
 212 54 161 77 161 132 c 0
 161 196 225 237 433 254 c 1
 433 126 l 1
 378 80 323 54 268 54 c 0
392 577 m 0
 461 577 490 635 493 712 c 1
 438 716 l 1
 435 670 421 637 392 637 c 0
 345 637 319 721 248 721 c 0
 179 721 150 663 147 585 c 1
 202 582 l 1
 205 629 219 661 249 661 c 0
 295 661 321 577 392 577 c 0
EndSplineSet
Validated: 9
EndChar

StartChar: adieresis
Encoding: 228 228 164
Width: 600
GlyphClass: 2
Flags: W
LayerCount: 2
Fore
SplineSet
246 -12 m 0
 315 -12 384 24 438 66 c 1
 441 66 l 1
 448 0 l 1
 515 0 l 1
 515 298 l 2
 515 419 451 498 318 498 c 0
 233 498 151 460 102 428 c 1
 134 372 l 1
 179 400 241 430 304 430 c 0
 398 430 431 374 433 308 c 1
 182 288 81 235 81 126 c 0
 81 39 155 -12 246 -12 c 0
268 54 m 0
 212 54 161 77 161 132 c 0
 161 196 225 237 433 254 c 1
 433 126 l 1
 378 80 323 54 268 54 c 0
223 588 m 0
 255 588 278 612 278 644 c 0
 278 675 255 700 223 700 c 0
 191 700 168 675 168 644 c 0
 168 612 191 588 223 588 c 0
417 588 m 0
 449 588 472 612 472 644 c 0
 472 675 449 700 417 700 c 0
 385 700 362 675 362 644 c 0
 362 612 385 588 417 588 c 0
EndSplineSet
Validated: 9
EndChar

StartChar: aring
Encoding: 229 229 165
Width: 600
GlyphClass: 2
Flags: W
LayerCount: 2
Fore
SplineSet
246 -12 m 0
 315 -12 384 24 438 66 c 1
 441 66 l 1
 448 0 l 1
 515 0 l 1
 515 298 l 2
 515 419 451 498 318 498 c 0
 233 498 151 460 102 428 c 1
 134 372 l 1
 179 400 241 430 304 430 c 0
 398 430 431 374 433 308 c 1
 182 288 81 235 81 126 c 0
 81 39 155 -12 246 -12 c 0
268 54 m 0
 212 54 161 77 161 132 c 0
 161 196 225 237 433 254 c 1
 433 126 l 1
 378 80 323 54 268 54 c 0
320 569 m 0
 389 569 430 611 430 665 c 0
 430 719 389 761 320 761 c 0
 251 761 210 719 210 665 c 0
 210 611 251 569 320 569 c 0
320 606 m 0
 288 606 263 632 263 665 c 0
 263 699 288 724 320 724 c 0
 352 724 377 699 377 665 c 0
 377 632 352 606 320 606 c 0
EndSplineSet
Validated: 9
EndChar

StartChar: ae
Encoding: 230 230 166
Width: 600
GlyphClass: 2
Flags: W
LayerCount: 2
Fore
SplineSet
145 -12 m 0
 204 -12 257 20 304 75 c 1
 336 20 386 -12 454 -12 c 0
 504 -12 549 7 582 31 c 1
 552 87 l 1
 526 69 494 55 457 55 c 0
 381 55 337 118 332 220 c 1
 593 220 l 1
 595 237 597 257 597 276 c 0
 597 395 549 498 448 498 c 0
 394 498 341 469 308 398 c 1
 285 469 243 498 185 498 c 0
 128 498 73 472 33 446 c 1
 64 390 l 1
 95 411 138 430 178 430 c 0
 229 430 263 397 266 302 c 1
 90 280 17 219 17 120 c 0
 17 38 71 -12 145 -12 c 0
167 54 m 0
 123 54 93 81 93 128 c 0
 93 187 131 229 266 249 c 1
 266 242 l 2
 266 198 272 158 283 123 c 1
 248 78 204 54 167 54 c 0
443 433 m 0
 499 433 527 384 530 284 c 1
 333 284 l 1
 343 392 393 433 443 433 c 0
EndSplineSet
Validated: 9
EndChar

StartChar: ccedilla
Encoding: 231 231 167
Width: 600
GlyphClass: 2
Flags: W
LayerCount: 2
Fore
SplineSet
259 -226 m 1
 365 -221 424 -193 424 -135 c 0
 424 -94 397 -75 351 -64 c 1
 370 -11 l 1
 433 -5 491 21 539 64 c 1
 502 117 l 1
 462 83 412 56 352 56 c 0
 240 56 165 131 165 242 c 0
 165 354 242 430 354 430 c 0
 405 430 447 409 487 374 c 1
 528 427 l 1
 488 466 430 498 351 498 c 0
 204 498 80 405 80 242 c 0
 80 92 179 1 315 -11 c 1
 283 -88 l 1
 340 -96 360 -110 360 -136 c 0
 360 -165 335 -180 251 -186 c 1
 259 -226 l 1
EndSplineSet
Validated: 9
EndChar

StartChar: egrave
Encoding: 232 232 168
Width: 600
GlyphClass: 2
Flags: W
LayerCount: 2
Fore
SplineSet
330 -12 m 0
 408 -12 470 14 518 46 c 1
 488 100 l 1
 444 72 398 54 340 54 c 0
 239 54 161 110 151 220 c 1
 534 220 l 1
 536 233 538 251 538 270 c 0
 538 407 456 498 316 498 c 0
 186 498 68 402 68 244 c 0
 68 82 184 -12 330 -12 c 0
318 433 m 0
 401 433 456 384 463 284 c 1
 153 284 l 1
 168 380 238 433 318 433 c 0
337 568 m 1
 380 609 l 1
 238 777 l 1
 180 721 l 1
 337 568 l 1
EndSplineSet
Validated: 9
EndChar

StartChar: eacute
Encoding: 233 233 169
Width: 600
GlyphClass: 2
Flags: W
LayerCount: 2
Fore
SplineSet
330 -12 m 0
 408 -12 470 14 518 46 c 1
 488 100 l 1
 444 72 398 54 340 54 c 0
 239 54 161 110 151 220 c 1
 534 220 l 1
 536 233 538 251 538 270 c 0
 538 407 456 498 316 498 c 0
 186 498 68 402 68 244 c 0
 68 82 184 -12 330 -12 c 0
318 433 m 0
 401 433 456 384 463 284 c 1
 153 284 l 1
 168 380 238 433 318 433 c 0
295 568 m 1
 452 721 l 1
 394 777 l 1
 252 609 l 1
 295 568 l 1
EndSplineSet
Validated: 9
EndChar

StartChar: ecircumflex
Encoding: 234 234 170
Width: 600
GlyphClass: 2
Flags: W
LayerCount: 2
Fore
SplineSet
330 -12 m 0
 408 -12 470 14 518 46 c 1
 488 100 l 1
 444 72 398 54 340 54 c 0
 239 54 161 110 151 220 c 1
 534 220 l 1
 536 233 538 251 538 270 c 0
 538 407 456 498 316 498 c 0
 186 498 68 402 68 244 c 0
 68 82 184 -12 330 -12 c 0
318 433 m 0
 401 433 456 384 463 284 c 1
 153 284 l 1
 168 380 238 433 318 433 c 0
196 568 m 1
 314 681 l 1
 318 681 l 1
 436 568 l 1
 471 600 l 1
 357 740 l 1
 275 740 l 1
 161 600 l 1
 196 568 l 1
EndSplineSet
Validated: 9
EndChar

StartChar: edieresis
Encoding: 235 235 171
Width: 600
GlyphClass: 2
Flags: W
LayerCount: 2
Fore
SplineSet
330 -12 m 0
 408 -12 470 14 518 46 c 1
 488 100 l 1
 444 72 398 54 340 54 c 0
 239 54 161 110 151 220 c 1
 534 220 l 1
 536 233 538 251 538 270 c 0
 538 407 456 498 316 498 c 0
 186 498 68 402 68 244 c 0
 68 82 184 -12 330 -12 c 0
318 433 m 0
 401 433 456 384 463 284 c 1
 153 284 l 1
 168 380 238 433 318 433 c 0
219 588 m 0
 251 588 274 612 274 644 c 0
 274 675 251 700 219 700 c 0
 187 700 164 675 164 644 c 0
 164 612 187 588 219 588 c 0
413 588 m 0
 445 588 468 612 468 644 c 0
 468 675 445 700 413 700 c 0
 381 700 358 675 358 644 c 0
 358 612 381 588 413 588 c 0
EndSplineSet
Validated: 9
EndChar

StartChar: igrave
Encoding: 236 236 172
Width: 600
GlyphClass: 2
Flags: W
LayerCount: 2
Fore
SplineSet
316 0 m 1
 398 0 l 1
 398 486 l 1
 90 486 l 1
 90 419 l 1
 316 419 l 1
 316 0 l 1
369 568 m 1
 412 609 l 1
 270 777 l 1
 212 721 l 1
 369 568 l 1
EndSplineSet
Validated: 9
EndChar

StartChar: iacute
Encoding: 237 237 173
Width: 600
GlyphClass: 2
Flags: W
LayerCount: 2
Fore
SplineSet
316 0 m 1
 398 0 l 1
 398 486 l 1
 90 486 l 1
 90 419 l 1
 316 419 l 1
 316 0 l 1
327 568 m 1
 484 721 l 1
 426 777 l 1
 284 609 l 1
 327 568 l 1
EndSplineSet
Validated: 9
EndChar

StartChar: icircumflex
Encoding: 238 238 174
Width: 600
GlyphClass: 2
Flags: W
LayerCount: 2
Fore
SplineSet
316 0 m 1
 398 0 l 1
 398 486 l 1
 90 486 l 1
 90 419 l 1
 316 419 l 1
 316 0 l 1
228 568 m 1
 346 681 l 1
 350 681 l 1
 468 568 l 1
 503 600 l 1
 389 740 l 1
 307 740 l 1
 193 600 l 1
 228 568 l 1
EndSplineSet
Validated: 9
EndChar

StartChar: idieresis
Encoding: 239 239 175
Width: 600
GlyphClass: 2
Flags: W
LayerCount: 2
Fore
SplineSet
316 0 m 1
 398 0 l 1
 398 486 l 1
 90 486 l 1
 90 419 l 1
 316 419 l 1
 316 0 l 1
251 588 m 0
 283 588 306 612 306 644 c 0
 306 675 283 700 251 700 c 0
 219 700 196 675 196 644 c 0
 196 612 219 588 251 588 c 0
445 588 m 0
 477 588 500 612 500 644 c 0
 500 675 477 700 445 700 c 0
 413 700 390 675 390 644 c 0
 390 612 413 588 445 588 c 0
EndSplineSet
Validated: 9
EndChar

StartChar: eth
Encoding: 240 240 176
Width: 600
GlyphClass: 2
Flags: W
LayerCount: 2
Fore
SplineSet
298 -12 m 0
 444 -12 536 97 536 257 c 0
 536 415 480 524 396 605 c 1
 514 666 l 1
 484 716 l 1
 347 646 l 1
 303 679 254 706 203 730 c 1
 165 678 l 1
 207 657 246 636 280 612 c 1
 150 546 l 1
 180 494 l 1
 332 572 l 1
 390 520 429 455 447 367 c 1
 410 417 350 447 288 447 c 0
 156 447 60 358 60 222 c 0
 60 77 172 -12 298 -12 c 0
300 56 m 0
 211 56 137 122 137 222 c 0
 137 314 193 383 300 383 c 0
 352 383 409 360 456 298 c 1
 457 284 457 269 457 254 c 0
 457 138 406 56 300 56 c 0
EndSplineSet
Validated: 9
EndChar

StartChar: ntilde
Encoding: 241 241 177
Width: 600
GlyphClass: 2
Flags: W
LayerCount: 2
Fore
SplineSet
93 0 m 1
 175 0 l 1
 175 339 l 1
 232 398 271 427 329 427 c 0
 409 427 441 383 441 291 c 2
 441 0 l 1
 523 0 l 1
 523 302 l 2
 523 430 470 498 355 498 c 0
 279 498 223 457 172 403 c 1
 168 403 l 1
 161 486 l 1
 93 486 l 1
 93 0 l 1
390 577 m 0
 459 577 488 635 491 712 c 1
 436 716 l 1
 433 670 419 637 390 637 c 0
 343 637 317 721 246 721 c 0
 177 721 148 663 145 585 c 1
 200 582 l 1
 203 629 217 661 247 661 c 0
 293 661 319 577 390 577 c 0
EndSplineSet
Validated: 9
EndChar

StartChar: ograve
Encoding: 242 242 178
Width: 600
GlyphClass: 2
Flags: W
LayerCount: 2
Fore
SplineSet
300 -12 m 0
 428 -12 540 81 540 242 c 0
 540 405 428 498 300 498 c 0
 172 498 60 405 60 242 c 0
 60 81 172 -12 300 -12 c 0
300 56 m 0
 207 56 145 131 145 242 c 0
 145 354 207 430 300 430 c 0
 393 430 455 354 455 242 c 0
 455 131 393 56 300 56 c 0
321 568 m 1
 364 609 l 1
 222 777 l 1
 164 721 l 1
 321 568 l 1
EndSplineSet
Validated: 9
EndChar

StartChar: oacute
Encoding: 243 243 179
Width: 600
GlyphClass: 2
Flags: W
LayerCount: 2
Fore
SplineSet
300 -12 m 0
 428 -12 540 81 540 242 c 0
 540 405 428 498 300 498 c 0
 172 498 60 405 60 242 c 0
 60 81 172 -12 300 -12 c 0
300 56 m 0
 207 56 145 131 145 242 c 0
 145 354 207 430 300 430 c 0
 393 430 455 354 455 242 c 0
 455 131 393 56 300 56 c 0
279 568 m 1
 436 721 l 1
 378 777 l 1
 236 609 l 1
 279 568 l 1
EndSplineSet
Validated: 9
EndChar

StartChar: ocircumflex
Encoding: 244 244 180
Width: 600
GlyphClass: 2
Flags: W
LayerCount: 2
Fore
SplineSet
300 -12 m 0
 428 -12 540 81 540 242 c 0
 540 405 428 498 300 498 c 0
 172 498 60 405 60 242 c 0
 60 81 172 -12 300 -12 c 0
300 56 m 0
 207 56 145 131 145 242 c 0
 145 354 207 430 300 430 c 0
 393 430 455 354 455 242 c 0
 455 131 393 56 300 56 c 0
180 568 m 1
 298 681 l 1
 302 681 l 1
 420 568 l 1
 455 600 l 1
 341 740 l 1
 259 740 l 1
 145 600 l 1
 180 568 l 1
EndSplineSet
Validated: 9
EndChar

StartChar: otilde
Encoding: 245 245 181
Width: 600
GlyphClass: 2
Flags: W
LayerCount: 2
Fore
SplineSet
300 -12 m 0
 428 -12 540 81 540 242 c 0
 540 405 428 498 300 498 c 0
 172 498 60 405 60 242 c 0
 60 81 172 -12 300 -12 c 0
300 56 m 0
 207 56 145 131 145 242 c 0
 145 354 207 430 300 430 c 0
 393 430 455 354 455 242 c 0
 455 131 393 56 300 56 c 0
372 577 m 0
 441 577 470 635 473 712 c 1
 418 716 l 1
 415 670 401 637 372 637 c 0
 325 637 299 721 228 721 c 0
 159 721 130 663 127 585 c 1
 182 582 l 1
 185 629 199 661 229 661 c 0
 275 661 301 577 372 577 c 0
EndSplineSet
Validated: 9
EndChar

StartChar: odieresis
Encoding: 246 246 182
Width: 600
GlyphClass: 2
Flags: W
LayerCount: 2
Fore
SplineSet
300 -12 m 0
 428 -12 540 81 540 242 c 0
 540 405 428 498 300 498 c 0
 172 498 60 405 60 242 c 0
 60 81 172 -12 300 -12 c 0
300 56 m 0
 207 56 145 131 145 242 c 0
 145 354 207 430 300 430 c 0
 393 430 455 354 455 242 c 0
 455 131 393 56 300 56 c 0
203 588 m 0
 235 588 258 612 258 644 c 0
 258 675 235 700 203 700 c 0
 171 700 148 675 148 644 c 0
 148 612 171 588 203 588 c 0
397 588 m 0
 429 588 452 612 452 644 c 0
 452 675 429 700 397 700 c 0
 365 700 342 675 342 644 c 0
 342 612 365 588 397 588 c 0
EndSplineSet
Validated: 9
EndChar

StartChar: divide
Encoding: 247 247 183
Width: 600
GlyphClass: 2
Flags: W
LayerCount: 2
Fore
SplineSet
300 456 m 0
 331 456 354 478 354 510 c 0
 354 541 331 563 300 563 c 0
 269 563 246 541 246 510 c 0
 246 478 269 456 300 456 c 0
300 96 m 0
 331 96 354 118 354 150 c 0
 354 181 331 203 300 203 c 0
 269 203 246 181 246 150 c 0
 246 118 269 96 300 96 c 0
85 299 m 1
 515 299 l 1
 515 361 l 1
 85 361 l 1
 85 299 l 1
EndSplineSet
Validated: 9
EndChar

StartChar: oslash
Encoding: 248 248 184
Width: 600
GlyphClass: 2
Flags: W
LayerCount: 2
Fore
SplineSet
300 -12 m 0
 428 -12 540 81 540 242 c 0
 540 312 519 370 485 412 c 1
 538 474 l 1
 492 516 l 1
 440 455 l 1
 400 483 351 498 300 498 c 0
 172 498 60 405 60 242 c 0
 60 173 81 116 115 74 c 1
 62 12 l 1
 108 -30 l 1
 160 31 l 1
 200 3 249 -12 300 -12 c 0
145 242 m 0
 145 354 207 432 300 432 c 0
 336 432 368 420 392 399 c 1
 168 136 l 1
 153 166 145 202 145 242 c 0
300 54 m 0
 264 54 232 66 207 86 c 1
 432 349 l 1
 447 320 455 283 455 242 c 0
 455 131 393 54 300 54 c 0
EndSplineSet
Validated: 9
EndChar

StartChar: ugrave
Encoding: 249 249 185
Width: 600
GlyphClass: 2
Flags: W
LayerCount: 2
Fore
SplineSet
246 -12 m 0
 321 -12 378 28 427 85 c 1
 431 85 l 1
 438 0 l 1
 505 0 l 1
 505 486 l 1
 423 486 l 1
 423 149 l 1
 369 86 328 59 272 59 c 0
 191 59 160 103 160 195 c 2
 160 486 l 1
 77 486 l 1
 77 184 l 2
 77 56 130 -12 246 -12 c 0
316 568 m 1
 359 609 l 1
 217 777 l 1
 159 721 l 1
 316 568 l 1
EndSplineSet
Validated: 9
EndChar

StartChar: uacute
Encoding: 250 250 186
Width: 600
GlyphClass: 2
Flags: W
LayerCount: 2
Fore
SplineSet
246 -12 m 0
 321 -12 378 28 427 85 c 1
 431 85 l 1
 438 0 l 1
 505 0 l 1
 505 486 l 1
 423 486 l 1
 423 149 l 1
 369 86 328 59 272 59 c 0
 191 59 160 103 160 195 c 2
 160 486 l 1
 77 486 l 1
 77 184 l 2
 77 56 130 -12 246 -12 c 0
274 568 m 1
 431 721 l 1
 373 777 l 1
 231 609 l 1
 274 568 l 1
EndSplineSet
Validated: 9
EndChar

StartChar: ucircumflex
Encoding: 251 251 187
Width: 600
GlyphClass: 2
Flags: W
LayerCount: 2
Fore
SplineSet
246 -12 m 0
 321 -12 378 28 427 85 c 1
 431 85 l 1
 438 0 l 1
 505 0 l 1
 505 486 l 1
 423 486 l 1
 423 149 l 1
 369 86 328 59 272 59 c 0
 191 59 160 103 160 195 c 2
 160 486 l 1
 77 486 l 1
 77 184 l 2
 77 56 130 -12 246 -12 c 0
175 568 m 1
 293 681 l 1
 297 681 l 1
 415 568 l 1
 450 600 l 1
 336 740 l 1
 254 740 l 1
 140 600 l 1
 175 568 l 1
EndSplineSet
Validated: 9
EndChar

StartChar: udieresis
Encoding: 252 252 188
Width: 600
GlyphClass: 2
Flags: W
LayerCount: 2
Fore
SplineSet
246 -12 m 0
 321 -12 378 28 427 85 c 1
 431 85 l 1
 438 0 l 1
 505 0 l 1
 505 486 l 1
 423 486 l 1
 423 149 l 1
 369 86 328 59 272 59 c 0
 191 59 160 103 160 195 c 2
 160 486 l 1
 77 486 l 1
 77 184 l 2
 77 56 130 -12 246 -12 c 0
198 588 m 0
 230 588 253 612 253 644 c 0
 253 675 230 700 198 700 c 0
 166 700 143 675 143 644 c 0
 143 612 166 588 198 588 c 0
392 588 m 0
 424 588 447 612 447 644 c 0
 447 675 424 700 392 700 c 0
 360 700 337 675 337 644 c 0
 337 612 360 588 392 588 c 0
EndSplineSet
Validated: 9
EndChar

StartChar: yacute
Encoding: 253 253 189
Width: 600
GlyphClass: 2
Flags: W
LayerCount: 2
Fore
SplineSet
131 -209 m 0
 241 -209 301 -136 337 -40 c 2
 551 486 l 1
 473 486 l 1
 367 217 l 2
 351 173 332 122 315 76 c 1
 311 76 l 1
 291 123 270 174 251 217 c 2
 132 486 l 1
 49 486 l 1
 276 -1 l 1
 261 -37 l 2
 237 -97 196 -141 128 -141 c 0
 113 -141 97 -138 84 -134 c 1
 67 -199 l 1
 84 -205 108 -209 131 -209 c 0
283 568 m 1
 440 721 l 1
 382 777 l 1
 240 609 l 1
 283 568 l 1
EndSplineSet
Validated: 9
EndChar

StartChar: thorn
Encoding: 254 254 190
Width: 600
GlyphClass: 2
Flags: W
LayerCount: 2
Fore
SplineSet
93 -205 m 1
 175 -205 l 1
 175 -41 l 1
 175 -41 172 51 172 51 c 1
 172 51 175 51 175 51 c 1
 217 13 271 -12 319 -12 c 0
 434 -12 540 85 540 250 c 0
 540 401 468 498 337 498 c 0
 280 498 220 469 175 424 c 1
 175 424 172 424 172 424 c 1
 172 424 175 511 175 511 c 1
 175 712 l 1
 93 712 l 1
 93 -205 l 1
305 57 m 0
 271 57 221 73 175 114 c 1
 175 356 l 1
 225 406 274 429 317 429 c 0
 414 429 455 357 455 250 c 0
 455 130 390 57 305 57 c 0
EndSplineSet
Validated: 9
EndChar

StartChar: ydieresis
Encoding: 255 255 191
Width: 600
GlyphClass: 2
Flags: W
LayerCount: 2
Fore
SplineSet
131 -209 m 0
 241 -209 301 -136 337 -40 c 2
 551 486 l 1
 473 486 l 1
 367 217 l 2
 351 173 332 122 315 76 c 1
 311 76 l 1
 291 123 270 174 251 217 c 2
 132 486 l 1
 49 486 l 1
 276 -1 l 1
 261 -37 l 2
 237 -97 196 -141 128 -141 c 0
 113 -141 97 -138 84 -134 c 1
 67 -199 l 1
 84 -205 108 -209 131 -209 c 0
207 588 m 0
 239 588 262 612 262 644 c 0
 262 675 239 700 207 700 c 0
 175 700 152 675 152 644 c 0
 152 612 175 588 207 588 c 0
401 588 m 0
 433 588 456 612 456 644 c 0
 456 675 433 700 401 700 c 0
 369 700 346 675 346 644 c 0
 346 612 369 588 401 588 c 0
EndSplineSet
Validated: 9
EndChar

StartChar: Amacron
Encoding: 256 256 192
Width: 600
GlyphClass: 2
Flags: W
LayerCount: 2
Fore
SplineSet
232 367 m 2
 255 440 276 512 297 588 c 1
 301 588 l 1
 321 512 343 440 366 367 c 2
 397 267 l 1
 201 267 l 1
 232 367 l 2
32 0 m 1
 117 0 l 1
 180 200 l 1
 418 200 l 1
 480 0 l 1
 568 0 l 1
 347 656 l 1
 253 656 l 1
 32 0 l 1
166 735 m 1
 434 735 l 1
 434 792 l 1
 166 792 l 1
 166 735 l 1
EndSplineSet
Validated: 9
EndChar

StartChar: amacron
Encoding: 257 257 193
Width: 600
GlyphClass: 2
Flags: W
LayerCount: 2
Fore
SplineSet
246 -12 m 0
 315 -12 384 24 438 66 c 1
 441 66 l 1
 448 0 l 1
 515 0 l 1
 515 298 l 2
 515 419 451 498 318 498 c 0
 233 498 151 460 102 428 c 1
 134 372 l 1
 179 400 241 430 304 430 c 0
 398 430 431 374 433 308 c 1
 182 288 81 235 81 126 c 0
 81 39 155 -12 246 -12 c 0
268 54 m 0
 212 54 161 77 161 132 c 0
 161 196 225 237 433 254 c 1
 433 126 l 1
 378 80 323 54 268 54 c 0
187 601 m 1
 453 601 l 1
 453 658 l 1
 187 658 l 1
 187 601 l 1
EndSplineSet
Validated: 9
EndChar

StartChar: Abreve
Encoding: 258 258 194
Width: 600
GlyphClass: 2
Flags: W
LayerCount: 2
Fore
SplineSet
232 367 m 2
 255 440 276 512 297 588 c 1
 301 588 l 1
 321 512 343 440 366 367 c 2
 397 267 l 1
 201 267 l 1
 232 367 l 2
32 0 m 1
 117 0 l 1
 180 200 l 1
 418 200 l 1
 480 0 l 1
 568 0 l 1
 347 656 l 1
 253 656 l 1
 32 0 l 1
300 705 m 0
 393 705 438 764 446 834 c 1
 396 842 l 1
 388 795 357 758 300 758 c 0
 243 758 212 795 204 842 c 1
 154 834 l 1
 162 764 207 705 300 705 c 0
EndSplineSet
Validated: 9
EndChar

StartChar: abreve
Encoding: 259 259 195
Width: 600
GlyphClass: 2
Flags: W
LayerCount: 2
Fore
SplineSet
246 -12 m 0
 315 -12 384 24 438 66 c 1
 441 66 l 1
 448 0 l 1
 515 0 l 1
 515 298 l 2
 515 419 451 498 318 498 c 0
 233 498 151 460 102 428 c 1
 134 372 l 1
 179 400 241 430 304 430 c 0
 398 430 431 374 433 308 c 1
 182 288 81 235 81 126 c 0
 81 39 155 -12 246 -12 c 0
268 54 m 0
 212 54 161 77 161 132 c 0
 161 196 225 237 433 254 c 1
 433 126 l 1
 378 80 323 54 268 54 c 0
320 571 m 0
 427 571 471 648 476 722 c 1
 425 730 l 1
 417 679 385 626 320 626 c 0
 255 626 223 679 215 730 c 1
 164 722 l 1
 169 648 213 571 320 571 c 0
EndSplineSet
Validated: 9
EndChar

StartChar: Aogonek
Encoding: 260 260 196
Width: 600
GlyphClass: 2
Flags: W
LayerCount: 2
Fore
SplineSet
515 -225 m 0
 553 -225 584 -209 607 -189 c 1
 581 -146 l 1
 569 -157 553 -167 531 -167 c 0
 502 -167 477 -150 477 -116 c 0
 477 -67 517 -23 568 0 c 1
 347 656 l 1
 253 656 l 1
 32 0 l 1
 117 0 l 1
 180 200 l 1
 418 200 l 1
 480 0 l 1
 499 0 l 1
 459 -26 412 -72 412 -134 c 0
 412 -195 457 -225 515 -225 c 0
232 367 m 2
 255 440 276 512 297 588 c 1
 301 588 l 1
 321 512 343 440 366 367 c 2
 397 267 l 1
 201 267 l 1
 232 367 l 2
EndSplineSet
Validated: 9
EndChar

StartChar: aogonek
Encoding: 261 261 197
Width: 600
GlyphClass: 2
Flags: W
LayerCount: 2
Fore
SplineSet
456 -225 m 0
 494 -225 526 -211 549 -189 c 1
 525 -150 l 1
 513 -162 495 -171 473 -171 c 0
 443 -171 414 -154 414 -116 c 0
 414 -75 443 -32 515 0 c 1
 515 298 l 2
 515 419 451 498 318 498 c 0
 233 498 151 460 102 428 c 1
 134 372 l 1
 179 400 241 430 304 430 c 0
 398 430 431 374 433 308 c 1
 182 288 81 235 81 126 c 0
 81 39 155 -12 246 -12 c 0
 315 -12 384 24 438 66 c 1
 441 66 l 1
 448 5 l 1
 396 -27 353 -72 353 -132 c 0
 353 -195 398 -225 456 -225 c 0
268 54 m 0
 212 54 161 77 161 132 c 0
 161 196 225 237 433 254 c 1
 433 126 l 1
 378 80 323 54 268 54 c 0
EndSplineSet
Validated: 9
EndChar

StartChar: Cacute
Encoding: 262 262 198
Width: 600
GlyphClass: 2
Flags: W
LayerCount: 2
Fore
SplineSet
351 -12 m 0
 438 -12 502 23 554 83 c 1
 507 134 l 1
 465 87 419 61 359 61 c 0
 233 61 151 165 151 330 c 0
 151 493 233 595 359 595 c 0
 414 595 457 571 491 535 c 1
 538 588 l 1
 500 630 437 668 359 668 c 0
 188 668 65 539 65 328 c 0
 65 114 189 -12 351 -12 c 0
317 697 m 1
 469 812 l 1
 422 867 l 1
 281 739 l 1
 317 697 l 1
EndSplineSet
Validated: 9
EndChar

StartChar: cacute
Encoding: 263 263 199
Width: 600
GlyphClass: 2
Flags: W
LayerCount: 2
Fore
SplineSet
346 -12 m 0
 418 -12 485 16 539 64 c 1
 502 117 l 1
 462 83 412 56 352 56 c 0
 240 56 165 131 165 242 c 0
 165 354 242 430 354 430 c 0
 405 430 447 409 487 374 c 1
 528 427 l 1
 488 466 430 498 351 498 c 0
 204 498 80 405 80 242 c 0
 80 81 194 -12 346 -12 c 0
325 568 m 1
 482 721 l 1
 424 777 l 1
 282 609 l 1
 325 568 l 1
EndSplineSet
Validated: 9
EndChar

StartChar: Ccircumflex
Encoding: 264 264 200
Width: 600
GlyphClass: 2
Flags: W
LayerCount: 2
Fore
SplineSet
351 -12 m 0
 438 -12 502 23 554 83 c 1
 507 134 l 1
 465 87 419 61 359 61 c 0
 233 61 151 165 151 330 c 0
 151 493 233 595 359 595 c 0
 414 595 457 571 491 535 c 1
 538 588 l 1
 500 630 437 668 359 668 c 0
 188 668 65 539 65 328 c 0
 65 114 189 -12 351 -12 c 0
234 699 m 1
 344 792 l 1
 348 792 l 1
 458 699 l 1
 494 725 l 1
 389 838 l 1
 303 838 l 1
 198 725 l 1
 234 699 l 1
EndSplineSet
Validated: 9
EndChar

StartChar: ccircumflex
Encoding: 265 265 201
Width: 600
GlyphClass: 2
Flags: W
LayerCount: 2
Fore
SplineSet
346 -12 m 0
 418 -12 485 16 539 64 c 1
 502 117 l 1
 462 83 412 56 352 56 c 0
 240 56 165 131 165 242 c 0
 165 354 242 430 354 430 c 0
 405 430 447 409 487 374 c 1
 528 427 l 1
 488 466 430 498 351 498 c 0
 204 498 80 405 80 242 c 0
 80 81 194 -12 346 -12 c 0
226 568 m 1
 344 681 l 1
 348 681 l 1
 466 568 l 1
 501 600 l 1
 387 740 l 1
 305 740 l 1
 191 600 l 1
 226 568 l 1
EndSplineSet
Validated: 9
EndChar

StartChar: Cdotaccent
Encoding: 266 266 202
Width: 600
GlyphClass: 2
Flags: W
LayerCount: 2
Fore
SplineSet
351 -12 m 0
 438 -12 502 23 554 83 c 1
 507 134 l 1
 465 87 419 61 359 61 c 0
 233 61 151 165 151 330 c 0
 151 493 233 595 359 595 c 0
 414 595 457 571 491 535 c 1
 538 588 l 1
 500 630 437 668 359 668 c 0
 188 668 65 539 65 328 c 0
 65 114 189 -12 351 -12 c 0
346 714 m 0
 379 714 405 737 405 771 c 0
 405 804 379 827 346 827 c 0
 313 827 287 804 287 771 c 0
 287 737 313 714 346 714 c 0
EndSplineSet
Validated: 9
EndChar

StartChar: cdotaccent
Encoding: 267 267 203
Width: 600
GlyphClass: 2
Flags: W
LayerCount: 2
Fore
SplineSet
346 -12 m 0
 418 -12 485 16 539 64 c 1
 502 117 l 1
 462 83 412 56 352 56 c 0
 240 56 165 131 165 242 c 0
 165 354 242 430 354 430 c 0
 405 430 447 409 487 374 c 1
 528 427 l 1
 488 466 430 498 351 498 c 0
 204 498 80 405 80 242 c 0
 80 81 194 -12 346 -12 c 0
346 588 m 0
 383 588 412 613 412 652 c 0
 412 690 383 716 346 716 c 0
 309 716 280 690 280 652 c 0
 280 613 309 588 346 588 c 0
EndSplineSet
Validated: 9
EndChar

StartChar: Ccaron
Encoding: 268 268 204
Width: 600
GlyphClass: 2
Flags: W
LayerCount: 2
Fore
SplineSet
351 -12 m 0
 438 -12 502 23 554 83 c 1
 507 134 l 1
 465 87 419 61 359 61 c 0
 233 61 151 165 151 330 c 0
 151 493 233 595 359 595 c 0
 414 595 457 571 491 535 c 1
 538 588 l 1
 500 630 437 668 359 668 c 0
 188 668 65 539 65 328 c 0
 65 114 189 -12 351 -12 c 0
303 706 m 1
 389 706 l 1
 494 819 l 1
 458 845 l 1
 348 753 l 1
 344 753 l 1
 234 845 l 1
 198 819 l 1
 303 706 l 1
EndSplineSet
Validated: 9
EndChar

StartChar: ccaron
Encoding: 269 269 205
Width: 600
GlyphClass: 2
Flags: W
LayerCount: 2
Fore
SplineSet
346 -12 m 0
 418 -12 485 16 539 64 c 1
 502 117 l 1
 462 83 412 56 352 56 c 0
 240 56 165 131 165 242 c 0
 165 354 242 430 354 430 c 0
 405 430 447 409 487 374 c 1
 528 427 l 1
 488 466 430 498 351 498 c 0
 204 498 80 405 80 242 c 0
 80 81 194 -12 346 -12 c 0
305 574 m 1
 387 574 l 1
 501 714 l 1
 466 746 l 1
 348 633 l 1
 344 633 l 1
 226 746 l 1
 191 714 l 1
 305 574 l 1
EndSplineSet
Validated: 9
EndChar

StartChar: Dcaron
Encoding: 270 270 206
Width: 600
GlyphClass: 2
Flags: W
LayerCount: 2
Fore
SplineSet
87 0 m 1
 253 0 l 2
 446 0 553 122 553 331 c 0
 553 539 446 656 249 656 c 2
 87 656 l 1
 87 0 l 1
170 68 m 1
 170 588 l 1
 243 588 l 2
 393 588 467 496 467 331 c 0
 467 165 393 68 243 68 c 2
 170 68 l 1
257 706 m 1
 343 706 l 1
 448 819 l 1
 412 845 l 1
 302 753 l 1
 298 753 l 1
 188 845 l 1
 152 819 l 1
 257 706 l 1
EndSplineSet
Validated: 9
EndChar

StartChar: dcaron
Encoding: 271 271 207
Width: 600
GlyphClass: 2
Flags: W
LayerCount: 2
Fore
SplineSet
254 -12 m 0
 312 -12 366 24 405 64 c 1
 408 64 l 1
 415 0 l 1
 479 0 l 1
 479 712 l 1
 400 712 l 1
 400 525 l 1
 405 435 l 1
 402 435 l 1
 360 474 319 498 264 498 c 0
 154 498 54 400 54 242 c 0
 54 80 134 -12 254 -12 c 0
271 57 m 0
 186 57 135 127 135 243 c 0
 135 354 200 429 280 429 c 0
 320 429 357 412 400 372 c 1
 400 130 l 1
 358 82 316 57 271 57 c 0
548 548 m 1
 605 548 l 1
 619 735 l 1
 619 816 l 1
 545 816 l 1
 548 548 l 1
EndSplineSet
Validated: 9
EndChar

StartChar: Dcroat
Encoding: 272 272 208
Width: 600
GlyphClass: 2
Flags: W
LayerCount: 2
Fore
SplineSet
87 0 m 1
 253 0 l 2
 446 0 553 122 553 331 c 0
 553 539 446 656 249 656 c 2
 87 656 l 1
 87 376 l 1
 12 370 l 1
 12 314 l 1
 87 314 l 1
 87 0 l 1
170 68 m 1
 170 314 l 1
 314 314 l 1
 314 376 l 1
 170 376 l 1
 170 588 l 1
 243 588 l 2
 392 588 466 496 466 331 c 0
 466 165 392 68 243 68 c 2
 170 68 l 1
EndSplineSet
Validated: 9
EndChar

StartChar: dcroat
Encoding: 273 273 209
Width: 600
GlyphClass: 2
Flags: W
LayerCount: 2
Fore
SplineSet
271 -12 m 0
 331 -12 389 23 429 64 c 1
 432 64 l 1
 439 0 l 1
 507 0 l 1
 507 562 l 1
 580 568 l 1
 580 626 l 1
 507 626 l 1
 507 712 l 1
 425 712 l 1
 425 626 l 1
 250 626 l 1
 250 562 l 1
 425 562 l 1
 425 505 l 1
 429 415 l 1
 426 415 l 1
 384 454 340 478 281 478 c 0
 166 478 60 384 60 232 c 0
 60 76 144 -12 271 -12 c 0
288 57 m 0
 198 57 145 123 145 233 c 0
 145 337 213 409 298 409 c 0
 339 409 381 393 425 352 c 1
 425 130 l 1
 382 82 336 57 288 57 c 0
EndSplineSet
Validated: 9
EndChar

StartChar: Emacron
Encoding: 274 274 210
Width: 600
GlyphClass: 2
Flags: W
LayerCount: 2
Fore
SplineSet
114 0 m 1
 530 0 l 1
 530 71 l 1
 198 71 l 1
 198 309 l 1
 470 309 l 1
 470 380 l 1
 198 380 l 1
 198 586 l 1
 520 586 l 1
 520 656 l 1
 114 656 l 1
 114 0 l 1
197 735 m 1
 465 735 l 1
 465 792 l 1
 197 792 l 1
 197 735 l 1
EndSplineSet
Validated: 9
EndChar

StartChar: emacron
Encoding: 275 275 211
Width: 600
GlyphClass: 2
Flags: W
LayerCount: 2
Fore
SplineSet
330 -12 m 0
 408 -12 470 14 518 46 c 1
 488 100 l 1
 444 72 398 54 340 54 c 0
 239 54 161 110 151 220 c 1
 534 220 l 1
 536 233 538 251 538 270 c 0
 538 407 456 498 316 498 c 0
 186 498 68 402 68 244 c 0
 68 82 184 -12 330 -12 c 0
318 433 m 0
 401 433 456 384 463 284 c 1
 153 284 l 1
 168 380 238 433 318 433 c 0
183 601 m 1
 449 601 l 1
 449 658 l 1
 183 658 l 1
 183 601 l 1
EndSplineSet
Validated: 9
EndChar

StartChar: Ebreve
Encoding: 276 276 212
Width: 600
GlyphClass: 2
Flags: W
LayerCount: 2
Fore
SplineSet
114 0 m 1
 530 0 l 1
 530 71 l 1
 198 71 l 1
 198 309 l 1
 470 309 l 1
 470 380 l 1
 198 380 l 1
 198 586 l 1
 520 586 l 1
 520 656 l 1
 114 656 l 1
 114 0 l 1
331 705 m 0
 424 705 469 764 477 834 c 1
 427 842 l 1
 419 795 388 758 331 758 c 0
 274 758 243 795 235 842 c 1
 185 834 l 1
 193 764 238 705 331 705 c 0
EndSplineSet
Validated: 9
EndChar

StartChar: ebreve
Encoding: 277 277 213
Width: 600
GlyphClass: 2
Flags: W
LayerCount: 2
Fore
SplineSet
330 -12 m 0
 408 -12 470 14 518 46 c 1
 488 100 l 1
 444 72 398 54 340 54 c 0
 239 54 161 110 151 220 c 1
 534 220 l 1
 536 233 538 251 538 270 c 0
 538 407 456 498 316 498 c 0
 186 498 68 402 68 244 c 0
 68 82 184 -12 330 -12 c 0
318 433 m 0
 401 433 456 384 463 284 c 1
 153 284 l 1
 168 380 238 433 318 433 c 0
316 571 m 0
 423 571 467 648 472 722 c 1
 421 730 l 1
 413 679 381 626 316 626 c 0
 251 626 219 679 211 730 c 1
 160 722 l 1
 165 648 209 571 316 571 c 0
EndSplineSet
Validated: 9
EndChar

StartChar: Edotaccent
Encoding: 278 278 214
Width: 600
GlyphClass: 2
Flags: W
LayerCount: 2
Fore
SplineSet
114 0 m 1
 530 0 l 1
 530 71 l 1
 198 71 l 1
 198 309 l 1
 470 309 l 1
 470 380 l 1
 198 380 l 1
 198 586 l 1
 520 586 l 1
 520 656 l 1
 114 656 l 1
 114 0 l 1
331 714 m 0
 364 714 390 737 390 771 c 0
 390 804 364 827 331 827 c 0
 298 827 272 804 272 771 c 0
 272 737 298 714 331 714 c 0
EndSplineSet
Validated: 9
EndChar

StartChar: edotaccent
Encoding: 279 279 215
Width: 600
GlyphClass: 2
Flags: W
LayerCount: 2
Fore
SplineSet
330 -12 m 0
 408 -12 470 14 518 46 c 1
 488 100 l 1
 444 72 398 54 340 54 c 0
 239 54 161 110 151 220 c 1
 534 220 l 1
 536 233 538 251 538 270 c 0
 538 407 456 498 316 498 c 0
 186 498 68 402 68 244 c 0
 68 82 184 -12 330 -12 c 0
318 433 m 0
 401 433 456 384 463 284 c 1
 153 284 l 1
 168 380 238 433 318 433 c 0
316 588 m 0
 353 588 382 613 382 652 c 0
 382 690 353 716 316 716 c 0
 279 716 250 690 250 652 c 0
 250 613 279 588 316 588 c 0
EndSplineSet
Validated: 9
EndChar

StartChar: Eogonek
Encoding: 280 280 216
Width: 600
GlyphClass: 2
Flags: W
LayerCount: 2
Fore
SplineSet
462 -225 m 0
 500 -225 530 -209 553 -189 c 1
 528 -146 l 1
 515 -157 499 -167 478 -167 c 0
 450 -167 423 -151 423 -116 c 0
 423 -63 475 -8 526 0 c 1
 530 0 l 1
 530 71 l 1
 199 71 l 1
 199 309 l 1
 470 309 l 1
 470 380 l 1
 199 380 l 1
 199 586 l 1
 520 586 l 1
 520 656 l 1
 115 656 l 1
 115 0 l 1
 445 0 l 1
 401 -26 359 -74 359 -134 c 0
 359 -195 403 -225 462 -225 c 0
EndSplineSet
Validated: 9
EndChar

StartChar: eogonek
Encoding: 281 281 217
Width: 600
GlyphClass: 2
Flags: W
LayerCount: 2
Fore
SplineSet
422 -225 m 0
 460 -225 492 -211 516 -189 c 1
 492 -150 l 1
 479 -162 462 -171 439 -171 c 0
 408 -171 380 -153 380 -116 c 0
 380 -64 416 -26 518 46 c 1
 488 100 l 1
 444 72 398 54 340 54 c 0
 239 54 161 110 151 220 c 1
 534 220 l 1
 536 233 538 251 538 270 c 0
 538 407 456 498 316 498 c 0
 186 498 68 402 68 242 c 0
 68 82 184 -12 330 -12 c 0
 340 -12 361 -13 395 -1 c 1
 351 -39 319 -79 319 -132 c 0
 319 -195 362 -225 422 -225 c 0
318 433 m 0
 401 433 456 384 463 284 c 1
 153 284 l 1
 168 380 238 433 318 433 c 0
EndSplineSet
Validated: 41
EndChar

StartChar: Ecaron
Encoding: 282 282 218
Width: 600
GlyphClass: 2
Flags: W
LayerCount: 2
Fore
SplineSet
114 0 m 1
 530 0 l 1
 530 71 l 1
 198 71 l 1
 198 309 l 1
 470 309 l 1
 470 380 l 1
 198 380 l 1
 198 586 l 1
 520 586 l 1
 520 656 l 1
 114 656 l 1
 114 0 l 1
288 706 m 1
 374 706 l 1
 479 819 l 1
 443 845 l 1
 333 753 l 1
 329 753 l 1
 219 845 l 1
 183 819 l 1
 288 706 l 1
EndSplineSet
Validated: 9
EndChar

StartChar: ecaron
Encoding: 283 283 219
Width: 600
GlyphClass: 2
Flags: W
LayerCount: 2
Fore
SplineSet
330 -12 m 0
 408 -12 470 14 518 46 c 1
 488 100 l 1
 444 72 398 54 340 54 c 0
 239 54 161 110 151 220 c 1
 534 220 l 1
 536 233 538 251 538 270 c 0
 538 407 456 498 316 498 c 0
 186 498 68 402 68 244 c 0
 68 82 184 -12 330 -12 c 0
318 433 m 0
 401 433 456 384 463 284 c 1
 153 284 l 1
 168 380 238 433 318 433 c 0
275 574 m 1
 357 574 l 1
 471 714 l 1
 436 746 l 1
 318 633 l 1
 314 633 l 1
 196 746 l 1
 161 714 l 1
 275 574 l 1
EndSplineSet
Validated: 9
EndChar

StartChar: Gcircumflex
Encoding: 284 284 220
Width: 600
GlyphClass: 2
Flags: W
LayerCount: 2
Fore
SplineSet
337 -12 m 0
 422 -12 492 22 533 64 c 1
 533 340 l 1
 325 340 l 1
 325 271 l 1
 456 271 l 1
 456 100 l 1
 431 76 388 61 342 61 c 0
 213 61 140 165 140 330 c 0
 140 493 221 595 344 595 c 0
 407 595 446 569 478 535 c 1
 525 588 l 1
 488 627 431 668 344 668 c 0
 174 668 53 540 53 328 c 0
 53 114 172 -12 337 -12 c 0
218 699 m 1
 328 792 l 1
 332 792 l 1
 442 699 l 1
 478 725 l 1
 373 838 l 1
 287 838 l 1
 182 725 l 1
 218 699 l 1
EndSplineSet
Validated: 9
EndChar

StartChar: gcircumflex
Encoding: 285 285 221
Width: 600
GlyphClass: 2
Flags: W
LayerCount: 2
Fore
SplineSet
296 -224 m 0
 461 -224 566 -145 566 -54 c 0
 566 28 506 60 381 60 c 2
 272 60 l 2
 208 60 171 78 171 116 c 0
 171 139 185 157 209 172 c 1
 236 160 266 154 291 154 c 0
 396 154 479 217 479 321 c 0
 479 360 460 396 438 419 c 1
 564 419 l 1
 564 486 l 1
 363 486 l 1
 342 494 319 498 291 498 c 0
 188 498 100 430 100 324 c 0
 100 266 127 223 160 198 c 1
 160 194 l 1
 123 169 102 134 102 103 c 0
 102 62 126 37 152 23 c 1
 152 19 l 1
 100 -11 72 -50 72 -89 c 0
 72 -175 154 -224 296 -224 c 0
291 209 m 0
 230 209 179 254 179 324 c 0
 179 392 230 438 291 438 c 0
 353 438 403 392 403 324 c 0
 403 254 353 209 291 209 c 0
302 -164 m 0
 198 -164 143 -132 143 -81 c 0
 143 -53 159 -25 205 0 c 1
 226 -6 251 -8 279 -8 c 2
 374 -8 l 2
 448 -8 485 -21 485 -67 c 0
 485 -117 415 -164 302 -164 c 0
187 568 m 1
 305 681 l 1
 309 681 l 1
 427 568 l 1
 462 600 l 1
 348 740 l 1
 266 740 l 1
 152 600 l 1
 187 568 l 1
EndSplineSet
Validated: 9
EndChar

StartChar: Gbreve
Encoding: 286 286 222
Width: 600
GlyphClass: 2
Flags: W
LayerCount: 2
Fore
SplineSet
337 -12 m 0
 422 -12 492 22 533 64 c 1
 533 340 l 1
 325 340 l 1
 325 271 l 1
 456 271 l 1
 456 100 l 1
 431 76 388 61 342 61 c 0
 213 61 140 165 140 330 c 0
 140 493 221 595 344 595 c 0
 407 595 446 569 478 535 c 1
 525 588 l 1
 488 627 431 668 344 668 c 0
 174 668 53 540 53 328 c 0
 53 114 172 -12 337 -12 c 0
330 705 m 0
 423 705 468 764 476 834 c 1
 426 842 l 1
 418 795 387 758 330 758 c 0
 273 758 242 795 234 842 c 1
 184 834 l 1
 192 764 237 705 330 705 c 0
EndSplineSet
Validated: 9
EndChar

StartChar: gbreve
Encoding: 287 287 223
Width: 600
GlyphClass: 2
Flags: W
LayerCount: 2
Fore
SplineSet
296 -224 m 0
 461 -224 566 -145 566 -54 c 0
 566 28 506 60 381 60 c 2
 272 60 l 2
 208 60 171 78 171 116 c 0
 171 139 185 157 209 172 c 1
 236 160 266 154 291 154 c 0
 396 154 479 217 479 321 c 0
 479 360 460 396 438 419 c 1
 564 419 l 1
 564 486 l 1
 363 486 l 1
 342 494 319 498 291 498 c 0
 188 498 100 430 100 324 c 0
 100 266 127 223 160 198 c 1
 160 194 l 1
 123 169 102 134 102 103 c 0
 102 62 126 37 152 23 c 1
 152 19 l 1
 100 -11 72 -50 72 -89 c 0
 72 -175 154 -224 296 -224 c 0
291 209 m 0
 230 209 179 254 179 324 c 0
 179 392 230 438 291 438 c 0
 353 438 403 392 403 324 c 0
 403 254 353 209 291 209 c 0
302 -164 m 0
 198 -164 143 -132 143 -81 c 0
 143 -53 159 -25 205 0 c 1
 226 -6 251 -8 279 -8 c 2
 374 -8 l 2
 448 -8 485 -21 485 -67 c 0
 485 -117 415 -164 302 -164 c 0
307 571 m 0
 414 571 458 648 463 722 c 1
 412 730 l 1
 404 679 372 626 307 626 c 0
 242 626 210 679 202 730 c 1
 151 722 l 1
 156 648 200 571 307 571 c 0
EndSplineSet
Validated: 9
EndChar

StartChar: Gdotaccent
Encoding: 288 288 224
Width: 600
GlyphClass: 2
Flags: W
LayerCount: 2
Fore
SplineSet
337 -12 m 0
 422 -12 492 22 533 64 c 1
 533 340 l 1
 325 340 l 1
 325 271 l 1
 456 271 l 1
 456 100 l 1
 431 76 388 61 342 61 c 0
 213 61 140 165 140 330 c 0
 140 493 221 595 344 595 c 0
 407 595 446 569 478 535 c 1
 525 588 l 1
 488 627 431 668 344 668 c 0
 174 668 53 540 53 328 c 0
 53 114 172 -12 337 -12 c 0
330 714 m 0
 363 714 389 737 389 771 c 0
 389 804 363 827 330 827 c 0
 297 827 271 804 271 771 c 0
 271 737 297 714 330 714 c 0
EndSplineSet
Validated: 9
EndChar

StartChar: gdotaccent
Encoding: 289 289 225
Width: 600
GlyphClass: 2
Flags: W
LayerCount: 2
Fore
SplineSet
296 -224 m 0
 461 -224 566 -145 566 -54 c 0
 566 28 506 60 381 60 c 2
 272 60 l 2
 208 60 171 78 171 116 c 0
 171 139 185 157 209 172 c 1
 236 160 266 154 291 154 c 0
 396 154 479 217 479 321 c 0
 479 360 460 396 438 419 c 1
 564 419 l 1
 564 486 l 1
 363 486 l 1
 342 494 319 498 291 498 c 0
 188 498 100 430 100 324 c 0
 100 266 127 223 160 198 c 1
 160 194 l 1
 123 169 102 134 102 103 c 0
 102 62 126 37 152 23 c 1
 152 19 l 1
 100 -11 72 -50 72 -89 c 0
 72 -175 154 -224 296 -224 c 0
291 209 m 0
 230 209 179 254 179 324 c 0
 179 392 230 438 291 438 c 0
 353 438 403 392 403 324 c 0
 403 254 353 209 291 209 c 0
302 -164 m 0
 198 -164 143 -132 143 -81 c 0
 143 -53 159 -25 205 0 c 1
 226 -6 251 -8 279 -8 c 2
 374 -8 l 2
 448 -8 485 -21 485 -67 c 0
 485 -117 415 -164 302 -164 c 0
307 588 m 0
 344 588 373 613 373 652 c 0
 373 690 344 716 307 716 c 0
 270 716 241 690 241 652 c 0
 241 613 270 588 307 588 c 0
EndSplineSet
Validated: 9
EndChar

StartChar: uni0122
Encoding: 290 290 226
Width: 600
GlyphClass: 2
Flags: W
LayerCount: 2
Fore
SplineSet
337 -12 m 0
 422 -12 492 22 533 64 c 1
 533 340 l 1
 325 340 l 1
 325 271 l 1
 456 271 l 1
 456 100 l 1
 431 76 388 61 342 61 c 0
 213 61 140 165 140 330 c 0
 140 493 221 595 344 595 c 0
 407 595 446 569 478 535 c 1
 525 588 l 1
 488 627 431 668 344 668 c 0
 174 668 53 540 53 328 c 0
 53 114 172 -12 337 -12 c 0
243 -226 m 1
 349 -221 408 -193 408 -135 c 0
 408 -90 378 -68 291 -58 c 1
 273 -96 l 1
 319 -100 344 -112 344 -138 c 0
 344 -165 319 -180 235 -186 c 1
 243 -226 l 1
EndSplineSet
Validated: 9
EndChar

StartChar: uni0123
Encoding: 291 291 227
Width: 600
GlyphClass: 2
Flags: W
LayerCount: 2
Fore
SplineSet
296 -224 m 0
 461 -224 566 -145 566 -54 c 0
 566 28 506 60 381 60 c 2
 272 60 l 2
 208 60 171 78 171 116 c 0
 171 139 185 157 209 172 c 1
 236 160 266 154 291 154 c 0
 396 154 479 217 479 321 c 0
 479 360 460 396 438 419 c 1
 564 419 l 1
 564 486 l 1
 363 486 l 1
 342 494 319 498 291 498 c 0
 188 498 100 430 100 324 c 0
 100 266 127 223 160 198 c 1
 160 194 l 1
 123 169 102 134 102 103 c 0
 102 62 126 37 152 23 c 1
 152 19 l 1
 100 -11 72 -50 72 -89 c 0
 72 -175 154 -224 296 -224 c 0
291 209 m 0
 230 209 179 254 179 324 c 0
 179 392 230 438 291 438 c 0
 353 438 403 392 403 324 c 0
 403 254 353 209 291 209 c 0
302 -164 m 0
 198 -164 143 -132 143 -81 c 0
 143 -53 159 -25 205 0 c 1
 226 -6 251 -8 279 -8 c 2
 374 -8 l 2
 448 -8 485 -21 485 -67 c 0
 485 -117 415 -164 302 -164 c 0
346 575 m 1
 364 613 l 1
 318 617 293 629 293 655 c 0
 293 683 318 698 402 703 c 1
 394 744 l 1
 288 738 229 710 229 652 c 0
 229 607 259 585 346 575 c 1
EndSplineSet
Validated: 9
EndChar

StartChar: Hcircumflex
Encoding: 292 292 228
Width: 600
GlyphClass: 2
Flags: W
LayerCount: 2
Fore
SplineSet
79 0 m 1
 163 0 l 1
 163 309 l 1
 437 309 l 1
 437 0 l 1
 521 0 l 1
 521 656 l 1
 437 656 l 1
 437 381 l 1
 163 381 l 1
 163 656 l 1
 79 656 l 1
 79 0 l 1
188 699 m 1
 298 792 l 1
 302 792 l 1
 412 699 l 1
 448 725 l 1
 343 838 l 1
 257 838 l 1
 152 725 l 1
 188 699 l 1
EndSplineSet
Validated: 9
EndChar

StartChar: hcircumflex
Encoding: 293 293 229
Width: 600
GlyphClass: 2
Flags: W
LayerCount: 2
Fore
SplineSet
93 0 m 1
 175 0 l 1
 175 339 l 1
 232 398 271 427 329 427 c 0
 409 427 441 383 441 291 c 2
 441 0 l 1
 523 0 l 1
 523 302 l 2
 523 430 470 498 355 498 c 0
 279 498 223 457 173 403 c 1
 170 403 l 1
 175 518 l 1
 175 712 l 1
 93 712 l 1
 93 0 l 1
19 759 m 1
 129 852 l 1
 133 852 l 1
 243 759 l 1
 279 785 l 1
 174 898 l 1
 88 898 l 1
 -17 785 l 1
 19 759 l 1
EndSplineSet
Validated: 9
EndChar

StartChar: Hbar
Encoding: 294 294 230
Width: 600
GlyphClass: 2
Flags: W
LayerCount: 2
Fore
SplineSet
10 484 m 1
 79 484 l 1
 79 0 l 1
 163 0 l 1
 163 309 l 1
 437 309 l 1
 437 0 l 1
 521 0 l 1
 521 484 l 1
 590 484 l 1
 590 546 l 1
 521 546 l 1
 521 656 l 1
 437 656 l 1
 437 546 l 1
 163 546 l 1
 163 656 l 1
 79 656 l 1
 79 546 l 1
 10 540 l 1
 10 484 l 1
163 381 m 1
 163 484 l 1
 437 484 l 1
 437 381 l 1
 163 381 l 1
EndSplineSet
Validated: 9
EndChar

StartChar: hbar
Encoding: 295 295 231
Width: 600
GlyphClass: 2
Flags: W
LayerCount: 2
Fore
SplineSet
93 0 m 1
 175 0 l 1
 175 319 l 1
 232 378 271 407 329 407 c 0
 409 407 441 363 441 271 c 2
 441 0 l 1
 523 0 l 1
 523 282 l 2
 523 410 470 478 355 478 c 0
 279 478 223 437 173 383 c 1
 170 383 l 1
 175 498 l 1
 175 562 l 1
 388 562 l 1
 388 626 l 1
 175 626 l 1
 175 712 l 1
 93 712 l 1
 93 626 l 1
 20 620 l 1
 20 562 l 1
 93 562 l 1
 93 0 l 1
EndSplineSet
Validated: 9
EndChar

StartChar: Itilde
Encoding: 296 296 232
Width: 600
GlyphClass: 2
Flags: W
LayerCount: 2
Fore
SplineSet
95 0 m 1
 505 0 l 1
 505 71 l 1
 342 71 l 1
 342 586 l 1
 505 586 l 1
 505 656 l 1
 95 656 l 1
 95 586 l 1
 258 586 l 1
 258 71 l 1
 95 71 l 1
 95 0 l 1
375 709 m 0
 435 709 473 755 477 832 c 1
 421 836 l 1
 416 793 398 770 373 770 c 0
 326 770 300 841 225 841 c 0
 165 841 127 794 123 718 c 1
 179 714 l 1
 183 757 202 780 227 780 c 0
 274 780 300 709 375 709 c 0
EndSplineSet
Validated: 9
EndChar

StartChar: itilde
Encoding: 297 297 233
Width: 600
GlyphClass: 2
Flags: W
LayerCount: 2
Fore
SplineSet
316 0 m 1
 398 0 l 1
 398 486 l 1
 90 486 l 1
 90 419 l 1
 316 419 l 1
 316 0 l 1
420 577 m 0
 489 577 518 635 521 712 c 1
 466 716 l 1
 463 670 449 637 420 637 c 0
 373 637 347 721 276 721 c 0
 207 721 178 663 175 585 c 1
 230 582 l 1
 233 629 247 661 277 661 c 0
 323 661 349 577 420 577 c 0
EndSplineSet
Validated: 9
EndChar

StartChar: Imacron
Encoding: 298 298 234
Width: 600
GlyphClass: 2
Flags: W
LayerCount: 2
Fore
SplineSet
95 0 m 1
 505 0 l 1
 505 71 l 1
 342 71 l 1
 342 586 l 1
 505 586 l 1
 505 656 l 1
 95 656 l 1
 95 586 l 1
 258 586 l 1
 258 71 l 1
 95 71 l 1
 95 0 l 1
166 735 m 1
 434 735 l 1
 434 792 l 1
 166 792 l 1
 166 735 l 1
EndSplineSet
Validated: 9
EndChar

StartChar: imacron
Encoding: 299 299 235
Width: 600
GlyphClass: 2
Flags: W
LayerCount: 2
Fore
SplineSet
316 0 m 1
 398 0 l 1
 398 486 l 1
 90 486 l 1
 90 419 l 1
 316 419 l 1
 316 0 l 1
215 601 m 1
 481 601 l 1
 481 658 l 1
 215 658 l 1
 215 601 l 1
EndSplineSet
Validated: 9
EndChar

StartChar: Ibreve
Encoding: 300 300 236
Width: 600
GlyphClass: 2
Flags: W
LayerCount: 2
Fore
SplineSet
95 0 m 1
 505 0 l 1
 505 71 l 1
 342 71 l 1
 342 586 l 1
 505 586 l 1
 505 656 l 1
 95 656 l 1
 95 586 l 1
 258 586 l 1
 258 71 l 1
 95 71 l 1
 95 0 l 1
300 705 m 0
 393 705 438 764 446 834 c 1
 396 842 l 1
 388 795 357 758 300 758 c 0
 243 758 212 795 204 842 c 1
 154 834 l 1
 162 764 207 705 300 705 c 0
EndSplineSet
Validated: 9
EndChar

StartChar: ibreve
Encoding: 301 301 237
Width: 600
GlyphClass: 2
Flags: W
LayerCount: 2
Fore
SplineSet
316 0 m 1
 398 0 l 1
 398 486 l 1
 90 486 l 1
 90 419 l 1
 316 419 l 1
 316 0 l 1
348 571 m 0
 455 571 499 648 504 722 c 1
 453 730 l 1
 445 679 413 626 348 626 c 0
 283 626 251 679 243 730 c 1
 192 722 l 1
 197 648 241 571 348 571 c 0
EndSplineSet
Validated: 9
EndChar

StartChar: Iogonek
Encoding: 302 302 238
Width: 600
GlyphClass: 2
Flags: W
LayerCount: 2
Fore
SplineSet
311 -225 m 0
 349 -225 379 -209 402 -189 c 1
 377 -146 l 1
 365 -157 349 -167 327 -167 c 0
 300 -167 273 -151 273 -116 c 0
 273 -79 296 -38 347 0 c 1
 505 0 l 1
 505 71 l 1
 342 71 l 1
 342 586 l 1
 505 586 l 1
 505 656 l 1
 95 656 l 1
 95 586 l 1
 258 586 l 1
 258 71 l 1
 95 71 l 1
 95 0 l 1
 279 0 l 1
 246 -32 208 -78 208 -134 c 0
 208 -195 253 -225 311 -225 c 0
EndSplineSet
Validated: 9
EndChar

StartChar: iogonek
Encoding: 303 303 239
Width: 600
GlyphClass: 2
Flags: W
LayerCount: 2
Fore
SplineSet
353 -225 m 0
 390 -225 422 -211 446 -189 c 1
 422 -150 l 1
 408 -162 391 -171 370 -171 c 0
 338 -171 310 -153 310 -116 c 0
 310 -76 339 -34 398 -5 c 1
 398 486 l 1
 90 486 l 1
 90 419 l 1
 316 419 l 1
 316 0 l 1
 335 0 l 1
 288 -32 249 -76 249 -132 c 0
 249 -195 294 -225 353 -225 c 0
348 588 m 0
 385 588 414 613 414 652 c 0
 414 690 385 716 348 716 c 0
 311 716 282 690 282 652 c 0
 282 613 311 588 348 588 c 0
EndSplineSet
Validated: 9
EndChar

StartChar: Idotaccent
Encoding: 304 304 240
Width: 600
GlyphClass: 2
Flags: W
LayerCount: 2
Fore
SplineSet
95 0 m 1
 505 0 l 1
 505 71 l 1
 342 71 l 1
 342 586 l 1
 505 586 l 1
 505 656 l 1
 95 656 l 1
 95 586 l 1
 258 586 l 1
 258 71 l 1
 95 71 l 1
 95 0 l 1
300 714 m 0
 333 714 359 737 359 771 c 0
 359 804 333 827 300 827 c 0
 267 827 241 804 241 771 c 0
 241 737 267 714 300 714 c 0
EndSplineSet
Validated: 9
EndChar

StartChar: dotlessi
Encoding: 305 305 241
Width: 600
GlyphClass: 2
Flags: W
LayerCount: 2
Fore
SplineSet
316 0 m 1
 398 0 l 1
 398 486 l 1
 90 486 l 1
 90 419 l 1
 316 419 l 1
 316 0 l 1
EndSplineSet
Validated: 9
EndChar

StartChar: IJ
Encoding: 306 306 242
Width: 600
GlyphClass: 2
Flags: W
LayerCount: 2
Fore
SplineSet
112 0 m 1
 195 0 l 1
 195 656 l 1
 112 656 l 1
 112 0 l 1
351 -165 m 0
 450 -165 488 -102 488 -3 c 2
 488 656 l 1
 405 656 l 1
 405 0 l 2
 405 -59 392 -96 342 -96 c 0
 325 -96 307 -91 293 -86 c 1
 277 -152 l 1
 295 -159 320 -165 351 -165 c 0
EndSplineSet
Validated: 9
EndChar

StartChar: ij
Encoding: 307 307 243
Width: 600
GlyphClass: 2
Flags: W
LayerCount: 2
Fore
SplineSet
112 0 m 1
 194 0 l 1
 194 486 l 1
 112 486 l 1
 112 0 l 1
154 586 m 0
 188 586 214 609 214 644 c 0
 214 679 188 702 154 702 c 0
 119 702 93 679 93 644 c 0
 93 609 119 586 154 586 c 0
371 -217 m 0
 468 -217 504 -154 504 -55 c 2
 504 486 l 1
 422 486 l 1
 422 -55 l 2
 422 -114 411 -150 362 -150 c 0
 345 -150 329 -146 316 -142 c 1
 300 -204 l 1
 317 -211 341 -217 371 -217 c 0
464 586 m 0
 498 586 524 609 524 644 c 0
 524 679 498 702 464 702 c 0
 429 702 403 679 403 644 c 0
 403 609 429 586 464 586 c 0
EndSplineSet
Validated: 9
EndChar

StartChar: Jcircumflex
Encoding: 308 308 244
Width: 600
GlyphClass: 2
Flags: W
LayerCount: 2
Fore
SplineSet
276 -12 m 0
 439 -12 493 88 493 210 c 2
 493 657 l 1
 135 657 l 1
 135 587 l 1
 410 587 l 1
 410 217 l 2
 410 109 368 61 274 61 c 0
 223 61 170 89 133 148 c 1
 81 97 l 1
 126 22 203 -12 276 -12 c 0
212 699 m 1
 322 792 l 1
 326 792 l 1
 436 699 l 1
 472 725 l 1
 367 838 l 1
 281 838 l 1
 176 725 l 1
 212 699 l 1
EndSplineSet
Validated: 9
EndChar

StartChar: jcircumflex
Encoding: 309 309 245
Width: 600
GlyphClass: 2
Flags: W
LayerCount: 2
Fore
SplineSet
194 -217 m 0
 351 -217 398 -132 398 -12 c 2
 398 486 l 1
 90 486 l 1
 90 419 l 1
 316 419 l 1
 316 -18 l 2
 316 -101 290 -150 193 -150 c 0
 156 -150 117 -140 82 -123 c 1
 55 -184 l 1
 94 -203 143 -217 194 -217 c 0
228 568 m 1
 346 681 l 1
 350 681 l 1
 468 568 l 1
 503 600 l 1
 389 740 l 1
 307 740 l 1
 193 600 l 1
 228 568 l 1
EndSplineSet
Validated: 9
EndChar

StartChar: uni0136
Encoding: 310 310 246
Width: 600
GlyphClass: 2
Flags: W
LayerCount: 2
Fore
SplineSet
98 0 m 1
 182 0 l 1
 182 209 l 1
 295 344 l 1
 486 0 l 1
 580 0 l 1
 348 407 l 1
 556 656 l 1
 461 656 l 1
 185 327 l 1
 182 327 l 1
 182 656 l 1
 98 656 l 1
 98 0 l 1
251 -226 m 1
 357 -221 416 -193 416 -135 c 0
 416 -90 386 -68 299 -58 c 1
 281 -96 l 1
 327 -100 352 -112 352 -138 c 0
 352 -165 327 -180 243 -186 c 1
 251 -226 l 1
EndSplineSet
Validated: 9
EndChar

StartChar: uni0137
Encoding: 311 311 247
Width: 600
GlyphClass: 2
Flags: W
LayerCount: 2
Fore
SplineSet
106 0 m 1
 188 0 l 1
 188 132 l 1
 303 245 l 1
 482 0 l 1
 574 0 l 1
 354 295 l 1
 548 486 l 1
 454 486 l 1
 192 230 l 1
 188 230 l 1
 188 712 l 1
 106 712 l 1
 106 0 l 1
248 -226 m 1
 354 -221 413 -193 413 -135 c 0
 413 -90 383 -68 296 -58 c 1
 278 -96 l 1
 324 -100 349 -112 349 -138 c 0
 349 -165 324 -180 240 -186 c 1
 248 -226 l 1
EndSplineSet
Validated: 9
EndChar

StartChar: kgreenlandic
Encoding: 312 312 248
Width: 600
GlyphClass: 2
Flags: W
LayerCount: 2
Fore
SplineSet
106 0 m 1
 188 0 l 1
 188 130 l 1
 303 240 l 1
 482 0 l 1
 574 0 l 1
 354 293 l 1
 548 486 l 1
 454 486 l 1
 191 231 l 1
 188 230 l 1
 188 486 l 1
 106 486 l 1
 106 0 l 1
EndSplineSet
Validated: 9
EndChar

StartChar: Lacute
Encoding: 313 313 249
Width: 600
GlyphClass: 2
Flags: W
LayerCount: 2
Fore
SplineSet
134 0 m 1
 541 0 l 1
 541 71 l 1
 216 71 l 1
 216 656 l 1
 134 656 l 1
 134 0 l 1
160 697 m 1
 312 812 l 1
 265 867 l 1
 124 739 l 1
 160 697 l 1
EndSplineSet
Validated: 9
EndChar

StartChar: lacute
Encoding: 314 314 250
Width: 600
GlyphClass: 2
Flags: W
LayerCount: 2
Fore
SplineSet
407 -12 m 0
 460 -12 492 -2 537 17 c 1
 516 78 l 1
 483 63 453 56 425 56 c 0
 367 56 329 86 329 157 c 2
 329 712 l 1
 74 712 l 1
 74 645 l 1
 247 645 l 1
 247 163 l 2
 247 48 304 -12 407 -12 c 0
256 757 m 1
 408 872 l 1
 361 927 l 1
 220 799 l 1
 256 757 l 1
EndSplineSet
Validated: 9
EndChar

StartChar: uni013B
Encoding: 315 315 251
Width: 600
GlyphClass: 2
Flags: W
LayerCount: 2
Fore
SplineSet
134 0 m 1
 541 0 l 1
 541 71 l 1
 216 71 l 1
 216 656 l 1
 134 656 l 1
 134 0 l 1
262 -226 m 1
 368 -221 427 -193 427 -135 c 0
 427 -90 397 -68 310 -58 c 1
 292 -96 l 1
 338 -100 363 -112 363 -138 c 0
 363 -165 338 -180 254 -186 c 1
 262 -226 l 1
EndSplineSet
Validated: 9
EndChar

StartChar: uni013C
Encoding: 316 316 252
Width: 600
GlyphClass: 2
Flags: W
LayerCount: 2
Fore
SplineSet
407 -12 m 0
 460 -12 492 -2 537 17 c 1
 516 78 l 1
 483 63 453 56 425 56 c 0
 367 56 329 86 329 157 c 2
 329 712 l 1
 74 712 l 1
 74 645 l 1
 247 645 l 1
 247 163 l 2
 247 48 304 -12 407 -12 c 0
298 -226 m 1
 404 -221 463 -193 463 -135 c 0
 463 -90 433 -68 346 -58 c 1
 328 -96 l 1
 374 -100 399 -112 399 -138 c 0
 399 -165 374 -180 290 -186 c 1
 298 -226 l 1
EndSplineSet
Validated: 9
EndChar

StartChar: Lcaron
Encoding: 317 317 253
Width: 600
GlyphClass: 2
Flags: W
LayerCount: 2
Fore
SplineSet
134 0 m 1
 541 0 l 1
 541 71 l 1
 216 71 l 1
 216 656 l 1
 134 656 l 1
 134 0 l 1
382 514 m 1
 439 514 l 1
 453 701 l 1
 453 782 l 1
 379 782 l 1
 382 514 l 1
EndSplineSet
Validated: 9
EndChar

StartChar: lcaron
Encoding: 318 318 254
Width: 600
GlyphClass: 2
Flags: W
LayerCount: 2
Fore
SplineSet
407 -12 m 0
 460 -12 492 -2 537 17 c 1
 516 78 l 1
 483 63 453 56 425 56 c 0
 367 56 329 86 329 157 c 2
 329 712 l 1
 74 712 l 1
 74 645 l 1
 247 645 l 1
 247 163 l 2
 247 48 304 -12 407 -12 c 0
404 548 m 1
 461 548 l 1
 475 735 l 1
 475 816 l 1
 401 816 l 1
 404 548 l 1
EndSplineSet
Validated: 9
EndChar

StartChar: Ldot
Encoding: 319 319 255
Width: 600
GlyphClass: 2
Flags: W
LayerCount: 2
Fore
SplineSet
134 0 m 1
 541 0 l 1
 541 71 l 1
 216 71 l 1
 216 656 l 1
 134 656 l 1
 134 0 l 1
467 286 m 0
 504 286 533 311 533 350 c 0
 533 388 504 414 467 414 c 0
 430 414 401 388 401 350 c 0
 401 311 430 286 467 286 c 0
EndSplineSet
Validated: 9
EndChar

StartChar: ldot
Encoding: 320 320 256
Width: 600
GlyphClass: 2
Flags: W
LayerCount: 2
Fore
SplineSet
368 -12 m 0
 421 -12 453 -2 498 17 c 1
 477 78 l 1
 444 63 414 56 386 56 c 0
 328 56 290 86 290 157 c 2
 290 712 l 1
 35 712 l 1
 35 645 l 1
 208 645 l 1
 208 163 l 2
 208 48 265 -12 368 -12 c 0
569 285 m 0
 606 285 635 310 635 349 c 0
 635 387 606 413 569 413 c 0
 532 413 503 387 503 349 c 0
 503 310 532 285 569 285 c 0
EndSplineSet
Validated: 9
EndChar

StartChar: Lslash
Encoding: 321 321 257
Width: 600
GlyphClass: 2
Flags: W
LayerCount: 2
Fore
SplineSet
39 181 m 1
 134 233 l 1
 134 0 l 1
 541 0 l 1
 541 71 l 1
 216 71 l 1
 216 269 l 1
 456 397 l 1
 427 450 l 1
 216 337 l 1
 216 656 l 1
 134 656 l 1
 134 300 l 1
 10 234 l 1
 39 181 l 1
EndSplineSet
Validated: 9
EndChar

StartChar: lslash
Encoding: 322 322 258
Width: 600
GlyphClass: 2
Flags: W
LayerCount: 2
Fore
SplineSet
407 -12 m 0
 460 -12 492 -2 537 17 c 1
 516 78 l 1
 483 63 453 56 425 56 c 0
 367 56 329 86 329 157 c 2
 329 373 l 1
 505 473 l 1
 477 527 l 1
 329 443 l 1
 329 712 l 1
 74 712 l 1
 74 645 l 1
 247 645 l 1
 247 405 l 1
 110 325 l 1
 139 271 l 1
 247 335 l 1
 247 163 l 2
 247 48 304 -12 407 -12 c 0
EndSplineSet
Validated: 9
EndChar

StartChar: Nacute
Encoding: 323 323 259
Width: 600
GlyphClass: 2
Flags: W
LayerCount: 2
Fore
SplineSet
82 0 m 1
 162 0 l 1
 162 343 l 2
 162 411 154 481 151 548 c 1
 153 548 l 1
 216 412 l 1
 426 0 l 1
 518 0 l 1
 518 656 l 1
 438 656 l 1
 438 316 l 2
 438 247 446 173 449 108 c 1
 447 108 l 1
 384 244 l 1
 174 656 l 1
 82 656 l 1
 82 0 l 1
281 697 m 1
 433 812 l 1
 386 867 l 1
 245 739 l 1
 281 697 l 1
EndSplineSet
Validated: 9
EndChar

StartChar: nacute
Encoding: 324 324 260
Width: 600
GlyphClass: 2
Flags: W
LayerCount: 2
Fore
SplineSet
93 0 m 1
 175 0 l 1
 175 339 l 1
 232 398 271 427 329 427 c 0
 409 427 441 383 441 291 c 2
 441 0 l 1
 523 0 l 1
 523 302 l 2
 523 430 470 498 355 498 c 0
 279 498 223 457 172 403 c 1
 168 403 l 1
 161 486 l 1
 93 486 l 1
 93 0 l 1
297 568 m 1
 454 721 l 1
 396 777 l 1
 254 609 l 1
 297 568 l 1
EndSplineSet
Validated: 9
EndChar

StartChar: uni0145
Encoding: 325 325 261
Width: 600
GlyphClass: 2
Flags: W
LayerCount: 2
Fore
SplineSet
82 0 m 1
 162 0 l 1
 162 343 l 2
 162 411 154 481 151 548 c 1
 153 548 l 1
 216 412 l 1
 426 0 l 1
 518 0 l 1
 518 656 l 1
 438 656 l 1
 438 316 l 2
 438 247 446 173 449 108 c 1
 447 108 l 1
 384 244 l 1
 174 656 l 1
 82 656 l 1
 82 0 l 1
213 -226 m 1
 319 -221 378 -193 378 -135 c 0
 378 -90 348 -68 261 -58 c 1
 243 -96 l 1
 289 -100 314 -112 314 -138 c 0
 314 -165 289 -180 205 -186 c 1
 213 -226 l 1
EndSplineSet
Validated: 9
EndChar

StartChar: uni0146
Encoding: 326 326 262
Width: 600
GlyphClass: 2
Flags: W
LayerCount: 2
Fore
SplineSet
93 0 m 1
 175 0 l 1
 175 339 l 1
 232 398 271 427 329 427 c 0
 409 427 441 383 441 291 c 2
 441 0 l 1
 523 0 l 1
 523 302 l 2
 523 430 470 498 355 498 c 0
 279 498 223 457 172 403 c 1
 168 403 l 1
 161 486 l 1
 93 486 l 1
 93 0 l 1
226 -226 m 1
 332 -221 391 -193 391 -135 c 0
 391 -90 361 -68 274 -58 c 1
 256 -96 l 1
 302 -100 327 -112 327 -138 c 0
 327 -165 302 -180 218 -186 c 1
 226 -226 l 1
EndSplineSet
Validated: 9
EndChar

StartChar: Ncaron
Encoding: 327 327 263
Width: 600
GlyphClass: 2
Flags: W
LayerCount: 2
Fore
SplineSet
82 0 m 1
 162 0 l 1
 162 343 l 2
 162 411 154 481 151 548 c 1
 153 548 l 1
 216 412 l 1
 426 0 l 1
 518 0 l 1
 518 656 l 1
 438 656 l 1
 438 316 l 2
 438 247 446 173 449 108 c 1
 447 108 l 1
 384 244 l 1
 174 656 l 1
 82 656 l 1
 82 0 l 1
267 706 m 1
 353 706 l 1
 458 819 l 1
 422 845 l 1
 312 753 l 1
 308 753 l 1
 198 845 l 1
 162 819 l 1
 267 706 l 1
EndSplineSet
Validated: 9
EndChar

StartChar: ncaron
Encoding: 328 328 264
Width: 600
GlyphClass: 2
Flags: W
LayerCount: 2
Fore
SplineSet
93 0 m 1
 175 0 l 1
 175 339 l 1
 232 398 271 427 329 427 c 0
 409 427 441 383 441 291 c 2
 441 0 l 1
 523 0 l 1
 523 302 l 2
 523 430 470 498 355 498 c 0
 279 498 223 457 172 403 c 1
 168 403 l 1
 161 486 l 1
 93 486 l 1
 93 0 l 1
277 574 m 1
 359 574 l 1
 473 714 l 1
 438 746 l 1
 320 633 l 1
 316 633 l 1
 198 746 l 1
 163 714 l 1
 277 574 l 1
EndSplineSet
Validated: 9
EndChar

StartChar: napostrophe
Encoding: 329 329 265
Width: 600
GlyphClass: 2
Flags: W
LayerCount: 2
Fore
SplineSet
196 0 m 1
 278 0 l 1
 278 346 l 1
 330 399 365 427 417 427 c 0
 486 427 515 385 515 297 c 2
 515 0 l 1
 598 0 l 1
 598 308 l 2
 598 432 548 498 443 498 c 0
 372 498 322 459 275 410 c 1
 271 410 l 1
 264 486 l 1
 196 486 l 1
 196 0 l 1
6 350 m 1
 95 396 149 478 149 578 c 0
 149 654 112 699 59 699 c 0
 16 699 -15 667 -15 621 c 0
 -15 579 14 550 56 550 c 0
 65 550 74 552 82 556 c 1
 78 486 40 433 -22 398 c 1
 6 350 l 1
EndSplineSet
Validated: 9
EndChar

StartChar: Eng
Encoding: 330 330 266
Width: 600
GlyphClass: 2
Flags: W
LayerCount: 2
Fore
SplineSet
378 -12 m 0
 486 -12 549 83 549 335 c 0
 549 580 457 668 333 668 c 0
 269 668 209 628 166 579 c 1
 166 656 l 1
 85 656 l 1
 85 0 l 1
 168 0 l 1
 168 501 l 1
 205 554 266 595 315 595 c 0
 404 595 463 532 463 335 c 0
 463 127 423 67 369 67 c 0
 350 67 336 71 324 77 c 1
 303 2 l 1
 321 -7 353 -12 378 -12 c 0
EndSplineSet
Validated: 9
EndChar

StartChar: eng
Encoding: 331 331 267
Width: 600
GlyphClass: 2
Flags: W
LayerCount: 2
Fore
SplineSet
387 -183 m 0
 484 -183 523 -118 523 -14 c 2
 523 302 l 2
 523 430 470 498 355 498 c 0
 279 498 223 457 172 403 c 1
 168 403 l 1
 161 486 l 1
 93 486 l 1
 93 0 l 1
 175 0 l 1
 175 339 l 1
 232 398 271 427 329 427 c 0
 409 427 441 383 441 291 c 2
 441 -14 l 2
 441 -77 428 -116 378 -116 c 0
 359 -116 341 -111 327 -106 c 1
 311 -169 l 1
 329 -176 357 -183 387 -183 c 0
EndSplineSet
Validated: 9
EndChar

StartChar: Omacron
Encoding: 332 332 268
Width: 600
GlyphClass: 2
Flags: W
LayerCount: 2
Fore
SplineSet
300 -12 m 0
 448 -12 552 116 552 331 c 0
 552 543 448 668 300 668 c 0
 152 668 48 543 48 331 c 0
 48 116 152 -12 300 -12 c 0
300 61 m 0
 200 61 134 163 134 331 c 0
 134 496 200 595 300 595 c 0
 400 595 466 496 466 331 c 0
 466 163 400 61 300 61 c 0
166 735 m 1
 434 735 l 1
 434 792 l 1
 166 792 l 1
 166 735 l 1
EndSplineSet
Validated: 9
EndChar

StartChar: omacron
Encoding: 333 333 269
Width: 600
GlyphClass: 2
Flags: W
LayerCount: 2
Fore
SplineSet
300 -12 m 0
 428 -12 540 81 540 242 c 0
 540 405 428 498 300 498 c 0
 172 498 60 405 60 242 c 0
 60 81 172 -12 300 -12 c 0
300 56 m 0
 207 56 145 131 145 242 c 0
 145 354 207 430 300 430 c 0
 393 430 455 354 455 242 c 0
 455 131 393 56 300 56 c 0
167 601 m 1
 433 601 l 1
 433 658 l 1
 167 658 l 1
 167 601 l 1
EndSplineSet
Validated: 9
EndChar

StartChar: Obreve
Encoding: 334 334 270
Width: 600
GlyphClass: 2
Flags: W
LayerCount: 2
Fore
SplineSet
300 -12 m 0
 448 -12 552 116 552 331 c 0
 552 543 448 668 300 668 c 0
 152 668 48 543 48 331 c 0
 48 116 152 -12 300 -12 c 0
300 61 m 0
 200 61 134 163 134 331 c 0
 134 496 200 595 300 595 c 0
 400 595 466 496 466 331 c 0
 466 163 400 61 300 61 c 0
300 705 m 0
 393 705 438 764 446 834 c 1
 396 842 l 1
 388 795 357 758 300 758 c 0
 243 758 212 795 204 842 c 1
 154 834 l 1
 162 764 207 705 300 705 c 0
EndSplineSet
Validated: 9
EndChar

StartChar: obreve
Encoding: 335 335 271
Width: 600
GlyphClass: 2
Flags: W
LayerCount: 2
Fore
SplineSet
300 -12 m 0
 428 -12 540 81 540 242 c 0
 540 405 428 498 300 498 c 0
 172 498 60 405 60 242 c 0
 60 81 172 -12 300 -12 c 0
300 56 m 0
 207 56 145 131 145 242 c 0
 145 354 207 430 300 430 c 0
 393 430 455 354 455 242 c 0
 455 131 393 56 300 56 c 0
300 571 m 0
 407 571 451 648 456 722 c 1
 405 730 l 1
 397 679 365 626 300 626 c 0
 235 626 203 679 195 730 c 1
 144 722 l 1
 149 648 193 571 300 571 c 0
EndSplineSet
Validated: 9
EndChar

StartChar: Ohungarumlaut
Encoding: 336 336 272
Width: 600
GlyphClass: 2
Flags: W
LayerCount: 2
Fore
SplineSet
300 -12 m 0
 448 -12 552 116 552 331 c 0
 552 543 448 668 300 668 c 0
 152 668 48 543 48 331 c 0
 48 116 152 -12 300 -12 c 0
300 61 m 0
 200 61 134 163 134 331 c 0
 134 496 200 595 300 595 c 0
 400 595 466 496 466 331 c 0
 466 163 400 61 300 61 c 0
228 703 m 1
 334 844 l 1
 277 876 l 1
 185 724 l 1
 228 703 l 1
388 703 m 1
 494 844 l 1
 438 876 l 1
 345 724 l 1
 388 703 l 1
EndSplineSet
Validated: 9
EndChar

StartChar: ohungarumlaut
Encoding: 337 337 273
Width: 600
GlyphClass: 2
Flags: W
LayerCount: 2
Fore
SplineSet
300 -12 m 0
 428 -12 540 81 540 242 c 0
 540 405 428 498 300 498 c 0
 172 498 60 405 60 242 c 0
 60 81 172 -12 300 -12 c 0
300 56 m 0
 207 56 145 131 145 242 c 0
 145 354 207 430 300 430 c 0
 393 430 455 354 455 242 c 0
 455 131 393 56 300 56 c 0
243 568 m 1
 342 733 l 1
 284 761 l 1
 197 589 l 1
 243 568 l 1
394 568 m 1
 493 733 l 1
 435 761 l 1
 348 589 l 1
 394 568 l 1
EndSplineSet
Validated: 9
EndChar

StartChar: OE
Encoding: 338 338 274
Width: 600
GlyphClass: 2
Flags: W
LayerCount: 2
Fore
SplineSet
296 0 m 2
 591 0 l 1
 591 71 l 1
 387 71 l 1
 387 309 l 1
 535 309 l 1
 535 380 l 1
 387 380 l 1
 387 587 l 1
 581 587 l 1
 581 657 l 1
 299 657 l 2
 133 657 33 539 33 331 c 0
 33 122 131 0 296 0 c 2
289 68 m 2
 175 68 119 164 119 331 c 0
 119 497 175 588 289 588 c 2
 311 588 l 1
 311 68 l 1
 289 68 l 2
EndSplineSet
Validated: 9
EndChar

StartChar: oe
Encoding: 339 339 275
Width: 600
GlyphClass: 2
Flags: W
LayerCount: 2
Fore
SplineSet
188 56 m 0
 123 56 88 131 88 242 c 0
 88 355 123 430 188 430 c 0
 246 430 284 354 284 243 c 0
 284 132 246 56 188 56 c 0
183 -12 m 0
 244 -12 288 24 316 105 c 1
 343 24 398 -12 463 -12 c 0
 509 -12 551 7 582 31 c 1
 552 87 l 1
 526 69 500 55 466 55 c 0
 401 55 353 109 347 220 c 1
 593 220 l 1
 595 237 597 257 597 276 c 0
 597 396 549 498 453 498 c 0
 391 498 341 460 315 378 c 0
 289 296 245 498 184 498 c 0
 86 498 11 405 11 242 c 0
 11 81 85 -12 183 -12 c 0
446 433 m 0
 499 433 527 384 530 284 c 1
 348 284 l 1
 355 383 394 433 446 433 c 0
EndSplineSet
Validated: 41
EndChar

StartChar: Racute
Encoding: 340 340 276
Width: 600
GlyphClass: 2
Flags: W
LayerCount: 2
Fore
SplineSet
100 0 m 1
 183 0 l 1
 183 277 l 1
 300 277 l 1
 458 0 l 1
 553 0 l 1
 386 286 l 1
 475 309 533 370 533 472 c 0
 533 608 437 656 304 656 c 2
 100 656 l 1
 100 0 l 1
183 345 m 1
 183 589 l 1
 292 589 l 2
 394 589 450 558 450 472 c 0
 450 387 394 345 292 345 c 2
 183 345 l 1
275 697 m 1
 427 812 l 1
 380 867 l 1
 239 739 l 1
 275 697 l 1
EndSplineSet
Validated: 9
EndChar

StartChar: racute
Encoding: 341 341 277
Width: 600
GlyphClass: 2
Flags: W
LayerCount: 2
Fore
SplineSet
146 0 m 1
 228 0 l 1
 228 285 l 1
 286 386 355 424 428 424 c 0
 466 424 484 419 518 407 c 1
 537 478 l 1
 507 493 477 498 441 498 c 0
 351 498 275 449 224 371 c 1
 221 371 l 1
 214 486 l 1
 146 486 l 1
 146 0 l 1
325 568 m 1
 482 721 l 1
 424 777 l 1
 282 609 l 1
 325 568 l 1
EndSplineSet
Validated: 9
EndChar

StartChar: uni0156
Encoding: 342 342 278
Width: 600
GlyphClass: 2
Flags: W
LayerCount: 2
Fore
SplineSet
100 0 m 1
 183 0 l 1
 183 277 l 1
 300 277 l 1
 458 0 l 1
 553 0 l 1
 386 286 l 1
 475 309 533 370 533 472 c 0
 533 608 437 656 304 656 c 2
 100 656 l 1
 100 0 l 1
183 345 m 1
 183 589 l 1
 292 589 l 2
 394 589 450 558 450 472 c 0
 450 387 394 345 292 345 c 2
 183 345 l 1
233 -226 m 1
 339 -221 398 -193 398 -135 c 0
 398 -90 368 -68 281 -58 c 1
 263 -96 l 1
 309 -100 334 -112 334 -138 c 0
 334 -165 309 -180 225 -186 c 1
 233 -226 l 1
EndSplineSet
Validated: 9
EndChar

StartChar: uni0157
Encoding: 343 343 279
Width: 600
GlyphClass: 2
Flags: W
LayerCount: 2
Fore
SplineSet
146 0 m 1
 228 0 l 1
 228 285 l 1
 286 386 355 424 428 424 c 0
 466 424 484 419 518 407 c 1
 537 478 l 1
 507 493 477 498 441 498 c 0
 351 498 275 449 224 371 c 1
 221 371 l 1
 214 486 l 1
 146 486 l 1
 146 0 l 1
110 -226 m 1
 216 -221 275 -193 275 -135 c 0
 275 -90 245 -68 158 -58 c 1
 140 -96 l 1
 186 -100 211 -112 211 -138 c 0
 211 -165 186 -180 102 -186 c 1
 110 -226 l 1
EndSplineSet
Validated: 9
EndChar

StartChar: Rcaron
Encoding: 344 344 280
Width: 600
GlyphClass: 2
Flags: W
LayerCount: 2
Fore
SplineSet
100 0 m 1
 183 0 l 1
 183 277 l 1
 300 277 l 1
 458 0 l 1
 553 0 l 1
 386 286 l 1
 475 309 533 370 533 472 c 0
 533 608 437 656 304 656 c 2
 100 656 l 1
 100 0 l 1
183 345 m 1
 183 589 l 1
 292 589 l 2
 394 589 450 558 450 472 c 0
 450 387 394 345 292 345 c 2
 183 345 l 1
261 706 m 1
 347 706 l 1
 452 819 l 1
 416 845 l 1
 306 753 l 1
 302 753 l 1
 192 845 l 1
 156 819 l 1
 261 706 l 1
EndSplineSet
Validated: 9
EndChar

StartChar: rcaron
Encoding: 345 345 281
Width: 600
GlyphClass: 2
Flags: W
LayerCount: 2
Fore
SplineSet
146 0 m 1
 228 0 l 1
 228 285 l 1
 286 386 355 424 428 424 c 0
 466 424 484 419 518 407 c 1
 537 478 l 1
 507 493 477 498 441 498 c 0
 351 498 275 449 224 371 c 1
 221 371 l 1
 214 486 l 1
 146 486 l 1
 146 0 l 1
305 574 m 1
 387 574 l 1
 501 714 l 1
 466 746 l 1
 348 633 l 1
 344 633 l 1
 226 746 l 1
 191 714 l 1
 305 574 l 1
EndSplineSet
Validated: 9
EndChar

StartChar: Sacute
Encoding: 346 346 282
Width: 600
GlyphClass: 2
Flags: W
LayerCount: 2
Fore
SplineSet
305 -12 m 0
 449 -12 537 71 537 175 c 0
 537 272 473 317 392 350 c 2
 300 390 l 2
 244 413 183 436 183 499 c 0
 183 558 234 595 310 595 c 0
 378 595 428 571 471 533 c 1
 515 587 l 1
 467 635 395 668 313 668 c 0
 188 668 98 594 98 494 c 0
 98 398 174 351 240 325 c 2
 334 284 l 2
 401 255 452 235 452 165 c 0
 452 104 399 61 309 61 c 0
 234 61 166 94 117 143 c 1
 67 85 l 1
 126 26 209 -12 305 -12 c 0
287 697 m 1
 439 812 l 1
 392 867 l 1
 251 739 l 1
 287 697 l 1
EndSplineSet
Validated: 9
EndChar

StartChar: sacute
Encoding: 347 347 283
Width: 600
GlyphClass: 2
Flags: W
LayerCount: 2
Fore
SplineSet
310 -12 m 0
 449 -12 526 54 526 133 c 0
 526 207 487 248 325 283 c 0
 226 304 184 322 184 364 c 0
 184 401 213 434 296 434 c 0
 358 434 414 414 459 383 c 1
 499 436 l 1
 451 469 377 498 303 498 c 0
 170 498 101 438 101 360 c 0
 101 287 165 244 291 218 c 0
 423 191 443 165 443 128 c 0
 443 87 402 52 320 52 c 0
 230 52 165 78 109 118 c 1
 71 64 l 1
 130 23 215 -12 310 -12 c 0
282 568 m 1
 439 721 l 1
 381 777 l 1
 239 609 l 1
 282 568 l 1
EndSplineSet
Validated: 9
EndChar

StartChar: Scircumflex
Encoding: 348 348 284
Width: 600
GlyphClass: 2
Flags: W
LayerCount: 2
Fore
SplineSet
305 -12 m 0
 449 -12 537 71 537 175 c 0
 537 272 473 317 392 350 c 2
 300 390 l 2
 244 413 183 436 183 499 c 0
 183 558 234 595 310 595 c 0
 378 595 428 571 471 533 c 1
 515 587 l 1
 467 635 395 668 313 668 c 0
 188 668 98 594 98 494 c 0
 98 398 174 351 240 325 c 2
 334 284 l 2
 401 255 452 235 452 165 c 0
 452 104 399 61 309 61 c 0
 234 61 166 94 117 143 c 1
 67 85 l 1
 126 26 209 -12 305 -12 c 0
204 699 m 1
 314 792 l 1
 318 792 l 1
 428 699 l 1
 464 725 l 1
 359 838 l 1
 273 838 l 1
 168 725 l 1
 204 699 l 1
EndSplineSet
Validated: 9
EndChar

StartChar: scircumflex
Encoding: 349 349 285
Width: 600
GlyphClass: 2
Flags: W
LayerCount: 2
Fore
SplineSet
310 -12 m 0
 449 -12 526 54 526 133 c 0
 526 207 487 248 325 283 c 0
 226 304 184 322 184 364 c 0
 184 401 213 434 296 434 c 0
 358 434 414 414 459 383 c 1
 499 436 l 1
 451 469 377 498 303 498 c 0
 170 498 101 438 101 360 c 0
 101 287 165 244 291 218 c 0
 423 191 443 165 443 128 c 0
 443 87 402 52 320 52 c 0
 230 52 165 78 109 118 c 1
 71 64 l 1
 130 23 215 -12 310 -12 c 0
183 568 m 1
 301 681 l 1
 305 681 l 1
 423 568 l 1
 458 600 l 1
 344 740 l 1
 262 740 l 1
 148 600 l 1
 183 568 l 1
EndSplineSet
Validated: 9
EndChar

StartChar: Scedilla
Encoding: 350 350 286
Width: 600
GlyphClass: 2
Flags: W
LayerCount: 2
Fore
SplineSet
232 -226 m 1
 338 -221 397 -193 397 -135 c 0
 397 -94 370 -75 324 -64 c 1
 344 -10 l 1
 465 4 537 81 537 175 c 0
 537 272 473 317 392 350 c 2
 300 390 l 2
 244 413 183 436 183 499 c 0
 183 558 234 595 310 595 c 0
 378 595 428 571 471 533 c 1
 515 587 l 1
 467 635 395 668 313 668 c 0
 188 668 98 594 98 494 c 0
 98 398 174 351 240 325 c 2
 334 284 l 2
 401 255 452 235 452 165 c 0
 452 104 399 61 309 61 c 0
 234 61 166 94 117 143 c 1
 67 85 l 1
 122 30 199 -7 288 -12 c 1
 256 -88 l 1
 313 -96 333 -110 333 -136 c 0
 333 -165 308 -180 224 -186 c 1
 232 -226 l 1
EndSplineSet
Validated: 9
EndChar

StartChar: scedilla
Encoding: 351 351 287
Width: 600
GlyphClass: 2
Flags: W
LayerCount: 2
Fore
SplineSet
227 -226 m 1
 333 -221 392 -193 392 -135 c 0
 392 -94 365 -75 319 -64 c 1
 338 -11 l 1
 459 -3 526 59 526 133 c 0
 526 207 487 248 325 283 c 0
 226 304 184 322 184 364 c 0
 184 401 213 434 296 434 c 0
 358 434 414 414 459 383 c 1
 499 436 l 1
 451 469 377 498 303 498 c 0
 170 498 101 438 101 360 c 0
 101 287 165 244 291 218 c 0
 423 191 443 165 443 128 c 0
 443 87 402 52 320 52 c 0
 230 52 165 78 109 118 c 1
 71 64 l 1
 124 27 199 -5 283 -11 c 1
 251 -88 l 1
 308 -96 328 -110 328 -136 c 0
 328 -165 303 -180 219 -186 c 1
 227 -226 l 1
EndSplineSet
Validated: 9
EndChar

StartChar: Scaron
Encoding: 352 352 288
Width: 600
GlyphClass: 2
Flags: W
LayerCount: 2
Fore
SplineSet
305 -12 m 0
 449 -12 537 71 537 175 c 0
 537 272 473 317 392 350 c 2
 300 390 l 2
 244 413 183 436 183 499 c 0
 183 558 234 595 310 595 c 0
 378 595 428 571 471 533 c 1
 515 587 l 1
 467 635 395 668 313 668 c 0
 188 668 98 594 98 494 c 0
 98 398 174 351 240 325 c 2
 334 284 l 2
 401 255 452 235 452 165 c 0
 452 104 399 61 309 61 c 0
 234 61 166 94 117 143 c 1
 67 85 l 1
 126 26 209 -12 305 -12 c 0
273 706 m 1
 359 706 l 1
 464 819 l 1
 428 845 l 1
 318 753 l 1
 314 753 l 1
 204 845 l 1
 168 819 l 1
 273 706 l 1
EndSplineSet
Validated: 9
EndChar

StartChar: scaron
Encoding: 353 353 289
Width: 600
GlyphClass: 2
Flags: W
LayerCount: 2
Fore
SplineSet
310 -12 m 0
 449 -12 526 54 526 133 c 0
 526 207 487 248 325 283 c 0
 226 304 184 322 184 364 c 0
 184 401 213 434 296 434 c 0
 358 434 414 414 459 383 c 1
 499 436 l 1
 451 469 377 498 303 498 c 0
 170 498 101 438 101 360 c 0
 101 287 165 244 291 218 c 0
 423 191 443 165 443 128 c 0
 443 87 402 52 320 52 c 0
 230 52 165 78 109 118 c 1
 71 64 l 1
 130 23 215 -12 310 -12 c 0
262 574 m 1
 344 574 l 1
 458 714 l 1
 423 746 l 1
 305 633 l 1
 301 633 l 1
 183 746 l 1
 148 714 l 1
 262 574 l 1
EndSplineSet
Validated: 9
EndChar

StartChar: uni0162
Encoding: 354 354 290
Width: 600
GlyphClass: 2
Flags: W
LayerCount: 2
Fore
SplineSet
258 0 m 1
 274 0 l 1
 237 -88 l 1
 294 -96 314 -110 314 -136 c 0
 314 -165 289 -180 205 -186 c 1
 213 -226 l 1
 319 -221 378 -193 378 -135 c 0
 378 -94 351 -75 305 -64 c 1
 328 0 l 1
 342 0 l 1
 342 586 l 1
 558 586 l 1
 558 656 l 1
 42 656 l 1
 42 586 l 1
 258 586 l 1
 258 0 l 1
EndSplineSet
Validated: 9
EndChar

StartChar: uni0163
Encoding: 355 355 291
Width: 600
GlyphClass: 2
Flags: W
LayerCount: 2
Fore
SplineSet
302 -226 m 1
 408 -221 467 -193 467 -135 c 0
 467 -94 440 -75 394 -64 c 1
 413 -12 l 1
 465 -9 507 3 546 17 c 1
 528 77 l 1
 493 64 457 55 411 55 c 0
 317 55 288 101 288 188 c 2
 288 419 l 1
 527 419 l 1
 527 486 l 1
 288 486 l 1
 288 642 l 1
 220 642 l 1
 209 486 l 1
 69 481 l 1
 69 419 l 1
 206 419 l 1
 206 189 l 2
 206 80 244 3 358 -10 c 1
 326 -88 l 1
 383 -96 403 -110 403 -136 c 0
 403 -165 378 -180 294 -186 c 1
 302 -226 l 1
EndSplineSet
Validated: 9
EndChar

StartChar: Tcaron
Encoding: 356 356 292
Width: 600
GlyphClass: 2
Flags: W
LayerCount: 2
Fore
SplineSet
258 0 m 1
 342 0 l 1
 342 586 l 1
 558 586 l 1
 558 656 l 1
 42 656 l 1
 42 586 l 1
 258 586 l 1
 258 0 l 1
257 706 m 1
 343 706 l 1
 448 819 l 1
 412 845 l 1
 302 753 l 1
 298 753 l 1
 188 845 l 1
 152 819 l 1
 257 706 l 1
EndSplineSet
Validated: 9
EndChar

StartChar: tcaron
Encoding: 357 357 293
Width: 600
GlyphClass: 2
Flags: W
LayerCount: 2
Fore
SplineSet
394 -12 m 0
 455 -12 502 1 546 17 c 1
 528 77 l 1
 493 64 457 55 411 55 c 0
 317 55 288 101 288 188 c 2
 288 419 l 1
 527 419 l 1
 527 486 l 1
 288 486 l 1
 288 642 l 1
 220 642 l 1
 209 486 l 1
 69 481 l 1
 69 419 l 1
 206 419 l 1
 206 189 l 2
 206 69 252 -12 394 -12 c 0
399 548 m 1
 456 548 l 1
 470 735 l 1
 470 816 l 1
 396 816 l 1
 399 548 l 1
EndSplineSet
Validated: 9
EndChar

StartChar: Tbar
Encoding: 358 358 294
Width: 600
GlyphClass: 2
Flags: W
LayerCount: 2
Fore
SplineSet
116 306 m 1
 258 306 l 1
 258 0 l 1
 342 0 l 1
 342 306 l 1
 484 306 l 1
 484 368 l 1
 342 368 l 1
 342 586 l 1
 558 586 l 1
 558 656 l 1
 42 656 l 1
 42 586 l 1
 258 586 l 1
 258 368 l 1
 206 368 l 1
 116 364 l 1
 116 306 l 1
EndSplineSet
Validated: 9
EndChar

StartChar: tbar
Encoding: 359 359 295
Width: 600
GlyphClass: 2
Flags: W
LayerCount: 2
Fore
SplineSet
70 220 m 1
 206 220 l 1
 206 189 l 2
 206 69 252 -12 394 -12 c 0
 455 -12 502 1 546 17 c 1
 528 77 l 1
 493 64 457 55 411 55 c 0
 317 55 288 101 288 188 c 2
 288 220 l 1
 508 220 l 1
 508 284 l 1
 288 284 l 1
 288 419 l 1
 527 419 l 1
 527 486 l 1
 288 486 l 1
 288 642 l 1
 220 642 l 1
 209 486 l 1
 69 481 l 1
 69 419 l 1
 206 419 l 1
 206 284 l 1
 70 278 l 1
 70 220 l 1
EndSplineSet
Validated: 9
EndChar

StartChar: Utilde
Encoding: 360 360 296
Width: 600
GlyphClass: 2
Flags: W
LayerCount: 2
Fore
SplineSet
301 -12 m 0
 429 -12 521 60 521 248 c 2
 521 656 l 1
 440 656 l 1
 440 246 l 2
 440 110 380 61 301 61 c 0
 222 61 163 110 163 246 c 2
 163 656 l 1
 79 656 l 1
 79 248 l 2
 79 60 172 -12 301 -12 c 0
375 709 m 0
 435 709 473 755 477 832 c 1
 421 836 l 1
 416 793 398 770 373 770 c 0
 326 770 300 841 225 841 c 0
 165 841 127 794 123 718 c 1
 179 714 l 1
 183 757 202 780 227 780 c 0
 274 780 300 709 375 709 c 0
EndSplineSet
Validated: 9
EndChar

StartChar: utilde
Encoding: 361 361 297
Width: 600
GlyphClass: 2
Flags: W
LayerCount: 2
Fore
SplineSet
246 -12 m 0
 321 -12 378 28 427 85 c 1
 431 85 l 1
 438 0 l 1
 505 0 l 1
 505 486 l 1
 423 486 l 1
 423 149 l 1
 369 86 328 59 272 59 c 0
 191 59 160 103 160 195 c 2
 160 486 l 1
 77 486 l 1
 77 184 l 2
 77 56 130 -12 246 -12 c 0
367 577 m 0
 436 577 465 635 468 712 c 1
 413 716 l 1
 410 670 396 637 367 637 c 0
 320 637 294 721 223 721 c 0
 154 721 125 663 122 585 c 1
 177 582 l 1
 180 629 194 661 224 661 c 0
 270 661 296 577 367 577 c 0
EndSplineSet
Validated: 9
EndChar

StartChar: Umacron
Encoding: 362 362 298
Width: 600
GlyphClass: 2
Flags: W
LayerCount: 2
Fore
SplineSet
301 -12 m 0
 429 -12 521 60 521 248 c 2
 521 656 l 1
 440 656 l 1
 440 246 l 2
 440 110 380 61 301 61 c 0
 222 61 163 110 163 246 c 2
 163 656 l 1
 79 656 l 1
 79 248 l 2
 79 60 172 -12 301 -12 c 0
166 735 m 1
 434 735 l 1
 434 792 l 1
 166 792 l 1
 166 735 l 1
EndSplineSet
Validated: 9
EndChar

StartChar: umacron
Encoding: 363 363 299
Width: 600
GlyphClass: 2
Flags: W
LayerCount: 2
Fore
SplineSet
246 -12 m 0
 321 -12 378 28 427 85 c 1
 431 85 l 1
 438 0 l 1
 505 0 l 1
 505 486 l 1
 423 486 l 1
 423 149 l 1
 369 86 328 59 272 59 c 0
 191 59 160 103 160 195 c 2
 160 486 l 1
 77 486 l 1
 77 184 l 2
 77 56 130 -12 246 -12 c 0
162 601 m 1
 428 601 l 1
 428 658 l 1
 162 658 l 1
 162 601 l 1
EndSplineSet
Validated: 9
EndChar

StartChar: Ubreve
Encoding: 364 364 300
Width: 600
GlyphClass: 2
Flags: W
LayerCount: 2
Fore
SplineSet
301 -12 m 0
 429 -12 521 60 521 248 c 2
 521 656 l 1
 440 656 l 1
 440 246 l 2
 440 110 380 61 301 61 c 0
 222 61 163 110 163 246 c 2
 163 656 l 1
 79 656 l 1
 79 248 l 2
 79 60 172 -12 301 -12 c 0
300 705 m 0
 393 705 438 764 446 834 c 1
 396 842 l 1
 388 795 357 758 300 758 c 0
 243 758 212 795 204 842 c 1
 154 834 l 1
 162 764 207 705 300 705 c 0
EndSplineSet
Validated: 9
EndChar

StartChar: ubreve
Encoding: 365 365 301
Width: 600
GlyphClass: 2
Flags: W
LayerCount: 2
Fore
SplineSet
246 -12 m 0
 321 -12 378 28 427 85 c 1
 431 85 l 1
 438 0 l 1
 505 0 l 1
 505 486 l 1
 423 486 l 1
 423 149 l 1
 369 86 328 59 272 59 c 0
 191 59 160 103 160 195 c 2
 160 486 l 1
 77 486 l 1
 77 184 l 2
 77 56 130 -12 246 -12 c 0
295 571 m 0
 402 571 446 648 451 722 c 1
 400 730 l 1
 392 679 360 626 295 626 c 0
 230 626 198 679 190 730 c 1
 139 722 l 1
 144 648 188 571 295 571 c 0
EndSplineSet
Validated: 9
EndChar

StartChar: Uring
Encoding: 366 366 302
Width: 600
GlyphClass: 2
Flags: W
LayerCount: 2
Fore
SplineSet
301 -12 m 0
 429 -12 521 60 521 248 c 2
 521 656 l 1
 440 656 l 1
 440 246 l 2
 440 110 380 61 301 61 c 0
 222 61 163 110 163 246 c 2
 163 656 l 1
 79 656 l 1
 79 248 l 2
 79 60 172 -12 301 -12 c 0
300 699 m 0
 355 699 397 735 397 789 c 0
 397 844 355 880 300 880 c 0
 244 880 203 844 203 789 c 0
 203 735 244 699 300 699 c 0
300 735 m 0
 271 735 248 754 248 789 c 0
 248 823 271 843 300 843 c 0
 327 843 351 823 351 789 c 0
 351 754 327 735 300 735 c 0
EndSplineSet
Validated: 9
EndChar

StartChar: uring
Encoding: 367 367 303
Width: 600
GlyphClass: 2
Flags: W
LayerCount: 2
Fore
SplineSet
246 -12 m 0
 321 -12 378 28 427 85 c 1
 431 85 l 1
 438 0 l 1
 505 0 l 1
 505 486 l 1
 423 486 l 1
 423 149 l 1
 369 86 328 59 272 59 c 0
 191 59 160 103 160 195 c 2
 160 486 l 1
 77 486 l 1
 77 184 l 2
 77 56 130 -12 246 -12 c 0
295 569 m 0
 364 569 405 611 405 665 c 0
 405 719 364 761 295 761 c 0
 226 761 185 719 185 665 c 0
 185 611 226 569 295 569 c 0
295 606 m 0
 263 606 238 632 238 665 c 0
 238 699 263 724 295 724 c 0
 327 724 352 699 352 665 c 0
 352 632 327 606 295 606 c 0
EndSplineSet
Validated: 9
EndChar

StartChar: Uhungarumlaut
Encoding: 368 368 304
Width: 600
GlyphClass: 2
Flags: W
LayerCount: 2
Fore
SplineSet
301 -12 m 0
 429 -12 521 60 521 248 c 2
 521 656 l 1
 440 656 l 1
 440 246 l 2
 440 110 380 61 301 61 c 0
 222 61 163 110 163 246 c 2
 163 656 l 1
 79 656 l 1
 79 248 l 2
 79 60 172 -12 301 -12 c 0
228 703 m 1
 334 844 l 1
 277 876 l 1
 185 724 l 1
 228 703 l 1
388 703 m 1
 494 844 l 1
 438 876 l 1
 345 724 l 1
 388 703 l 1
EndSplineSet
Validated: 9
EndChar

StartChar: uhungarumlaut
Encoding: 369 369 305
Width: 600
GlyphClass: 2
Flags: W
LayerCount: 2
Fore
SplineSet
246 -12 m 0
 321 -12 378 28 427 85 c 1
 431 85 l 1
 438 0 l 1
 505 0 l 1
 505 486 l 1
 423 486 l 1
 423 149 l 1
 369 86 328 59 272 59 c 0
 191 59 160 103 160 195 c 2
 160 486 l 1
 77 486 l 1
 77 184 l 2
 77 56 130 -12 246 -12 c 0
238 568 m 1
 337 733 l 1
 279 761 l 1
 192 589 l 1
 238 568 l 1
389 568 m 1
 488 733 l 1
 430 761 l 1
 343 589 l 1
 389 568 l 1
EndSplineSet
Validated: 9
EndChar

StartChar: Uogonek
Encoding: 370 370 306
Width: 600
GlyphClass: 2
Flags: W
LayerCount: 2
Fore
SplineSet
318 -225 m 0
 356 -225 386 -209 409 -189 c 1
 384 -146 l 1
 371 -157 355 -167 334 -167 c 0
 306 -167 279 -151 279 -116 c 0
 279 -76 304 -32 383 0 c 0
 473 36 521 107 521 248 c 2
 521 656 l 1
 440 656 l 1
 440 246 l 2
 440 110 379 61 300 61 c 0
 221 61 163 110 163 246 c 2
 163 656 l 1
 79 656 l 1
 79 248 l 2
 79 77 158 -4 282 -11 c 1
 255 -35 215 -77 215 -134 c 0
 215 -195 259 -225 318 -225 c 0
EndSplineSet
Validated: 9
EndChar

StartChar: uogonek
Encoding: 371 371 307
Width: 600
GlyphClass: 2
Flags: W
LayerCount: 2
Fore
SplineSet
446 -225 m 0
 484 -225 516 -211 539 -189 c 1
 515 -150 l 1
 503 -162 485 -171 463 -171 c 0
 433 -171 404 -153 404 -116 c 0
 404 -77 433 -37 505 -5 c 1
 505 486 l 1
 423 486 l 1
 423 149 l 1
 369 86 328 59 272 59 c 0
 191 59 160 103 160 195 c 2
 160 486 l 1
 77 486 l 1
 77 184 l 2
 77 56 130 -12 246 -12 c 0
 321 -12 378 28 427 85 c 1
 431 85 l 1
 438 0 l 1
 386 -32 343 -75 343 -132 c 0
 343 -195 388 -225 446 -225 c 0
EndSplineSet
Validated: 9
EndChar

StartChar: Wcircumflex
Encoding: 372 372 308
Width: 600
GlyphClass: 2
Flags: W
LayerCount: 2
Fore
SplineSet
110 0 m 1
 212 0 l 1
 276 264 l 2
 286 304 292 342 299 382 c 1
 302 382 l 1
 308 342 316 304 326 264 c 2
 390 0 l 1
 494 0 l 1
 590 657 l 1
 500 657 l 1
 454 244 l 2
 448 190 446 158 442 93 c 1
 438 93 l 1
 426 158 420 190 406 244 c 2
 344 488 l 1
 264 488 l 1
 200 244 l 2
 187 190 180 158 168 93 c 1
 165 93 l 1
 162 158 158 190 152 245 c 2
 104 657 l 1
 10 657 l 1
 110 0 l 1
188 699 m 1
 298 792 l 1
 302 792 l 1
 412 699 l 1
 448 725 l 1
 343 838 l 1
 257 838 l 1
 152 725 l 1
 188 699 l 1
EndSplineSet
Validated: 9
EndChar

StartChar: wcircumflex
Encoding: 373 373 309
Width: 600
GlyphClass: 2
Flags: W
LayerCount: 2
Fore
SplineSet
114 0 m 1
 220 0 l 1
 274 232 l 2
 282 266 290 314 298 376 c 1
 302 376 l 1
 310 314 318 266 326 232 c 2
 382 0 l 1
 488 0 l 1
 592 486 l 1
 516 486 l 1
 458 204 l 2
 449 158 444 116 436 70 c 1
 432 70 l 1
 426 116 413 158 402 204 c 2
 344 456 l 1
 262 456 l 1
 202 204 l 2
 191 159 180 116 174 70 c 1
 170 70 l 1
 164 116 157 158 148 204 c 2
 90 486 l 1
 8 486 l 1
 114 0 l 1
180 568 m 1
 298 681 l 1
 302 681 l 1
 420 568 l 1
 455 600 l 1
 341 740 l 1
 259 740 l 1
 145 600 l 1
 180 568 l 1
EndSplineSet
Validated: 9
EndChar

StartChar: Ycircumflex
Encoding: 374 374 310
Width: 600
GlyphClass: 2
Flags: W
LayerCount: 2
Fore
SplineSet
258 0 m 1
 342 0 l 1
 342 234 l 1
 562 656 l 1
 476 656 l 1
 381 462 l 2
 356 411 330 361 304 308 c 1
 300 308 l 1
 273 361 250 411 225 461 c 2
 126 656 l 1
 38 656 l 1
 258 234 l 1
 258 0 l 1
188 699 m 1
 298 792 l 1
 302 792 l 1
 412 699 l 1
 448 725 l 1
 343 838 l 1
 257 838 l 1
 152 725 l 1
 188 699 l 1
EndSplineSet
Validated: 9
EndChar

StartChar: ycircumflex
Encoding: 375 375 311
Width: 600
GlyphClass: 2
Flags: W
LayerCount: 2
Fore
SplineSet
131 -209 m 0
 241 -209 301 -136 337 -40 c 2
 551 486 l 1
 473 486 l 1
 367 217 l 2
 351 173 332 122 315 76 c 1
 311 76 l 1
 291 123 270 174 251 217 c 2
 132 486 l 1
 49 486 l 1
 276 -1 l 1
 261 -37 l 2
 237 -97 196 -141 128 -141 c 0
 113 -141 97 -138 84 -134 c 1
 67 -199 l 1
 84 -205 108 -209 131 -209 c 0
184 568 m 1
 302 681 l 1
 306 681 l 1
 424 568 l 1
 459 600 l 1
 345 740 l 1
 263 740 l 1
 149 600 l 1
 184 568 l 1
EndSplineSet
Validated: 9
EndChar

StartChar: Ydieresis
Encoding: 376 376 312
Width: 600
GlyphClass: 2
Flags: W
LayerCount: 2
Fore
SplineSet
258 0 m 1
 342 0 l 1
 342 234 l 1
 562 656 l 1
 476 656 l 1
 381 462 l 2
 356 411 330 361 304 308 c 1
 300 308 l 1
 273 361 250 411 225 461 c 2
 126 656 l 1
 38 656 l 1
 258 234 l 1
 258 0 l 1
209 715 m 0
 238 715 259 736 259 766 c 0
 259 796 238 816 209 816 c 0
 180 816 158 796 158 766 c 0
 158 736 180 715 209 715 c 0
391 715 m 0
 420 715 442 736 442 766 c 0
 442 796 420 816 391 816 c 0
 362 816 341 796 341 766 c 0
 341 736 362 715 391 715 c 0
EndSplineSet
Validated: 9
EndChar

StartChar: Zacute
Encoding: 377 377 313
Width: 600
GlyphClass: 2
Flags: W
LayerCount: 2
Fore
SplineSet
65 0 m 1
 539 0 l 1
 539 71 l 1
 167 71 l 1
 534 607 l 1
 534 657 l 1
 97 657 l 1
 97 587 l 1
 431 587 l 1
 65 50 l 1
 65 0 l 1
288 697 m 1
 440 812 l 1
 393 867 l 1
 252 739 l 1
 288 697 l 1
EndSplineSet
Validated: 9
EndChar

StartChar: zacute
Encoding: 378 378 314
Width: 600
GlyphClass: 2
Flags: W
LayerCount: 2
Fore
SplineSet
71 0 m 1
 531 0 l 1
 531 67 l 1
 188 67 l 1
 522 442 l 1
 522 486 l 1
 108 486 l 1
 108 419 l 1
 404 419 l 1
 71 44 l 1
 71 0 l 1
301 568 m 1
 458 721 l 1
 400 777 l 1
 258 609 l 1
 301 568 l 1
EndSplineSet
Validated: 9
EndChar

StartChar: Zdotaccent
Encoding: 379 379 315
Width: 600
GlyphClass: 2
Flags: W
LayerCount: 2
Fore
SplineSet
65 0 m 1
 539 0 l 1
 539 71 l 1
 167 71 l 1
 534 607 l 1
 534 657 l 1
 97 657 l 1
 97 587 l 1
 431 587 l 1
 65 50 l 1
 65 0 l 1
317 714 m 0
 350 714 376 737 376 771 c 0
 376 804 350 827 317 827 c 0
 284 827 258 804 258 771 c 0
 258 737 284 714 317 714 c 0
EndSplineSet
Validated: 9
EndChar

StartChar: zdotaccent
Encoding: 380 380 316
Width: 600
GlyphClass: 2
Flags: W
LayerCount: 2
Fore
SplineSet
71 0 m 1
 531 0 l 1
 531 67 l 1
 188 67 l 1
 522 442 l 1
 522 486 l 1
 108 486 l 1
 108 419 l 1
 404 419 l 1
 71 44 l 1
 71 0 l 1
322 588 m 0
 359 588 388 613 388 652 c 0
 388 690 359 716 322 716 c 0
 285 716 256 690 256 652 c 0
 256 613 285 588 322 588 c 0
EndSplineSet
Validated: 9
EndChar

StartChar: Zcaron
Encoding: 381 381 317
Width: 600
GlyphClass: 2
Flags: W
LayerCount: 2
Fore
SplineSet
65 0 m 1
 539 0 l 1
 539 71 l 1
 167 71 l 1
 534 607 l 1
 534 657 l 1
 97 657 l 1
 97 587 l 1
 431 587 l 1
 65 50 l 1
 65 0 l 1
274 706 m 1
 360 706 l 1
 465 819 l 1
 429 845 l 1
 319 753 l 1
 315 753 l 1
 205 845 l 1
 169 819 l 1
 274 706 l 1
EndSplineSet
Validated: 9
EndChar

StartChar: zcaron
Encoding: 382 382 318
Width: 600
GlyphClass: 2
Flags: W
LayerCount: 2
Fore
SplineSet
71 0 m 1
 531 0 l 1
 531 67 l 1
 188 67 l 1
 522 442 l 1
 522 486 l 1
 108 486 l 1
 108 419 l 1
 404 419 l 1
 71 44 l 1
 71 0 l 1
281 574 m 1
 363 574 l 1
 477 714 l 1
 442 746 l 1
 324 633 l 1
 320 633 l 1
 202 746 l 1
 167 714 l 1
 281 574 l 1
EndSplineSet
Validated: 9
EndChar

StartChar: longs
Encoding: 383 383 319
Width: 600
GlyphClass: 2
Flags: W
LayerCount: 2
Fore
SplineSet
242 0 m 1
 323 0 l 1
 323 530 l 2
 323 609 359 657 446 657 c 0
 488 657 519 652 559 634 c 1
 578 696 l 1
 532 715 486 724 438 724 c 0
 304 724 242 646 242 527 c 2
 242 486 l 1
 103 481 l 1
 103 419 l 1
 242 419 l 1
 242 0 l 1
EndSplineSet
Validated: 9
EndChar

StartChar: uni0180
Encoding: 384 384 320
Width: 600
GlyphClass: 2
Flags: W
LayerCount: 2
Fore
SplineSet
320 -12 m 0
 436 -12 540 81 540 241 c 0
 540 385 469 478 338 478 c 0
 281 478 219 449 175 404 c 1
 172 404 l 1
 175 495 l 1
 175 562 l 1
 388 562 l 1
 388 626 l 1
 175 626 l 1
 175 712 l 1
 93 712 l 1
 93 626 l 1
 20 621 l 1
 20 562 l 1
 93 562 l 1
 93 0 l 1
 159 0 l 1
 166 54 l 1
 169 54 l 1
 215 13 273 -12 320 -12 c 0
307 57 m 0
 272 57 221 73 175 114 c 1
 175 336 l 1
 225 386 275 409 318 409 c 0
 415 409 455 341 455 240 c 0
 455 126 392 57 307 57 c 0
EndSplineSet
Validated: 9
EndChar

StartChar: uni018A
Encoding: 394 394 321
Width: 600
GlyphClass: 2
Flags: W
LayerCount: 2
Fore
SplineSet
209 0 m 1
 308 0 l 2
 470 0 567 123 567 338 c 0
 567 549 470 668 269 668 c 0
 104 668 20 574 20 445 c 0
 20 353 62 296 130 262 c 1
 170 320 l 1
 120 350 94 385 94 449 c 0
 94 522 133 580 209 595 c 1
 209 0 l 1
292 68 m 1
 292 599 l 1
 424 593 481 500 481 338 c 0
 481 167 422 68 313 68 c 2
 292 68 l 1
EndSplineSet
Validated: 9
EndChar

StartChar: uni018F
Encoding: 399 399 322
Width: 600
GlyphClass: 2
Flags: W
LayerCount: 2
Fore
SplineSet
300 -12 m 0
 448 -12 550 120 550 330 c 0
 550 540 456 668 301 668 c 0
 224 668 166 637 125 595 c 1
 165 538 l 1
 198 572 243 596 297 596 c 0
 403 596 462 507 467 350 c 1
 60 350 l 1
 59 342 59 335 59 327 c 0
 59 123 153 -12 300 -12 c 0
300 60 m 0
 209 60 151 135 141 286 c 1
 466 286 l 1
 455 138 392 60 300 60 c 0
EndSplineSet
Validated: 9
EndChar

StartChar: florin
Encoding: 402 402 323
Width: 600
GlyphClass: 2
Flags: W
LayerCount: 2
Fore
SplineSet
132 -97 m 0
 250 -97 292 -14 307 108 c 2
 334 345 l 1
 483 345 l 1
 483 408 l 1
 341 408 l 1
 348 471 l 2
 356 539 383 601 449 601 c 0
 478 601 498 595 516 586 c 1
 536 648 l 1
 514 659 479 668 445 668 c 0
 333 668 285 597 268 464 c 2
 262 408 l 1
 221 408 l 1
 151 404 l 1
 151 345 l 1
 255 345 l 1
 231 126 l 2
 218 24 193 -30 124 -30 c 0
 103 -30 83 -24 65 -17 c 1
 49 -79 l 1
 69 -88 97 -97 132 -97 c 0
EndSplineSet
Validated: 9
EndChar

StartChar: uni0193
Encoding: 403 403 324
Width: 600
GlyphClass: 2
Flags: W
LayerCount: 2
Fore
SplineSet
525 588 m 1
 499 626 485 647 485 683 c 0
 485 713 505 737 539 737 c 0
 553 737 562 732 573 728 c 1
 589 791 l 1
 573 797 553 804 526 804 c 0
 460 804 415 761 415 699 c 0
 415 684 417 670 422 656 c 1
 399 663 373 668 344 668 c 0
 174 668 53 540 53 328 c 0
 53 114 172 -12 337 -12 c 0
 422 -12 492 22 533 64 c 1
 533 340 l 1
 325 340 l 1
 325 271 l 1
 456 271 l 1
 456 100 l 1
 431 76 388 61 342 61 c 0
 213 61 140 165 140 330 c 0
 140 493 221 595 344 595 c 0
 407 595 446 569 478 535 c 1
 525 588 l 1
EndSplineSet
Validated: 9
EndChar

StartChar: Ohorn
Encoding: 416 416 325
Width: 600
GlyphClass: 2
Flags: W
LayerCount: 2
Fore
SplineSet
300 -12 m 0
 448 -12 552 116 552 331 c 0
 552 455 517 549 458 606 c 1
 522 622 562 664 562 732 c 0
 562 762 553 791 539 813 c 1
 474 784 l 1
 483 768 489 746 489 726 c 0
 489 680 464 651 411 640 c 1
 378 659 341 668 300 668 c 0
 152 668 48 543 48 331 c 0
 48 116 152 -12 300 -12 c 0
300 61 m 0
 200 61 134 163 134 331 c 0
 134 496 200 595 300 595 c 0
 400 595 466 496 466 331 c 0
 466 163 400 61 300 61 c 0
EndSplineSet
Validated: 9
EndChar

StartChar: ohorn
Encoding: 417 417 326
Width: 600
GlyphClass: 2
Flags: W
LayerCount: 2
Fore
SplineSet
300 -12 m 0
 428 -12 540 81 540 242 c 0
 540 333 505 402 452 445 c 1
 510 464 559 505 559 582 c 0
 559 612 550 641 536 664 c 1
 472 634 l 1
 482 618 487 596 487 576 c 0
 487 519 456 489 401 477 c 1
 370 491 336 498 300 498 c 0
 172 498 60 405 60 242 c 0
 60 81 172 -12 300 -12 c 0
300 56 m 0
 207 56 145 131 145 242 c 0
 145 354 207 430 300 430 c 0
 393 430 455 354 455 242 c 0
 455 131 393 56 300 56 c 0
EndSplineSet
Validated: 9
EndChar

StartChar: Uhorn
Encoding: 431 431 327
Width: 600
GlyphClass: 2
Flags: W
LayerCount: 2
Fore
SplineSet
301 -12 m 0
 429 -12 521 60 521 248 c 2
 521 620 l 1
 582 634 630 668 630 745 c 0
 630 775 621 803 607 825 c 1
 542 797 l 1
 551 781 557 759 557 739 c 0
 557 683 527 663 473 656 c 1
 440 656 l 1
 440 246 l 2
 440 110 380 61 301 61 c 0
 222 61 163 110 163 246 c 2
 163 656 l 1
 79 656 l 1
 79 248 l 2
 79 60 172 -12 301 -12 c 0
EndSplineSet
Validated: 9
EndChar

StartChar: uhorn
Encoding: 432 432 328
Width: 600
GlyphClass: 2
Flags: W
LayerCount: 2
Fore
SplineSet
246 -12 m 0
 321 -12 378 28 427 85 c 1
 431 85 l 1
 438 0 l 1
 505 0 l 1
 505 457 l 1
 552 475 598 511 598 588 c 0
 598 618 589 648 575 670 c 1
 511 640 l 1
 521 624 525 602 525 582 c 0
 525 516 487 493 439 486 c 1
 423 486 l 1
 423 149 l 1
 369 86 328 59 272 59 c 0
 191 59 160 103 160 195 c 2
 160 486 l 1
 77 486 l 1
 77 184 l 2
 77 56 130 -12 246 -12 c 0
EndSplineSet
Validated: 9
EndChar

StartChar: uni01C2
Encoding: 450 450 329
Width: 600
GlyphClass: 2
Flags: W
LayerCount: 2
Fore
SplineSet
260 -205 m 1
 340 -205 l 1
 340 154 l 1
 516 154 l 1
 516 216 l 1
 340 216 l 1
 340 324 l 1
 516 324 l 1
 516 386 l 1
 340 386 l 1
 340 712 l 1
 260 712 l 1
 260 386 l 1
 84 382 l 1
 84 324 l 1
 260 324 l 1
 260 216 l 1
 84 212 l 1
 84 154 l 1
 260 154 l 1
 260 -205 l 1
EndSplineSet
Validated: 9
EndChar

StartChar: uni01CD
Encoding: 461 461 330
Width: 600
GlyphClass: 2
Flags: W
LayerCount: 2
Fore
SplineSet
232 367 m 2
 255 440 276 512 297 588 c 1
 301 588 l 1
 321 512 343 440 366 367 c 2
 397 267 l 1
 201 267 l 1
 232 367 l 2
32 0 m 1
 117 0 l 1
 180 200 l 1
 418 200 l 1
 480 0 l 1
 568 0 l 1
 347 656 l 1
 253 656 l 1
 32 0 l 1
257 706 m 1
 343 706 l 1
 448 819 l 1
 412 845 l 1
 302 753 l 1
 298 753 l 1
 188 845 l 1
 152 819 l 1
 257 706 l 1
EndSplineSet
Validated: 9
EndChar

StartChar: uni01CE
Encoding: 462 462 331
Width: 600
GlyphClass: 2
Flags: W
LayerCount: 2
Fore
SplineSet
246 -12 m 0
 315 -12 384 24 438 66 c 1
 441 66 l 1
 448 0 l 1
 515 0 l 1
 515 298 l 2
 515 419 451 498 318 498 c 0
 233 498 151 460 102 428 c 1
 134 372 l 1
 179 400 241 430 304 430 c 0
 398 430 431 374 433 308 c 1
 182 288 81 235 81 126 c 0
 81 39 155 -12 246 -12 c 0
268 54 m 0
 212 54 161 77 161 132 c 0
 161 196 225 237 433 254 c 1
 433 126 l 1
 378 80 323 54 268 54 c 0
279 574 m 1
 361 574 l 1
 475 714 l 1
 440 746 l 1
 322 633 l 1
 318 633 l 1
 200 746 l 1
 165 714 l 1
 279 574 l 1
EndSplineSet
Validated: 9
EndChar

StartChar: uni01CF
Encoding: 463 463 332
Width: 600
GlyphClass: 2
Flags: W
LayerCount: 2
Fore
SplineSet
95 0 m 1
 505 0 l 1
 505 71 l 1
 342 71 l 1
 342 586 l 1
 505 586 l 1
 505 656 l 1
 95 656 l 1
 95 586 l 1
 258 586 l 1
 258 71 l 1
 95 71 l 1
 95 0 l 1
257 706 m 1
 343 706 l 1
 448 819 l 1
 412 845 l 1
 302 753 l 1
 298 753 l 1
 188 845 l 1
 152 819 l 1
 257 706 l 1
EndSplineSet
Validated: 9
EndChar

StartChar: uni01D0
Encoding: 464 464 333
Width: 600
GlyphClass: 2
Flags: W
LayerCount: 2
Fore
SplineSet
316 0 m 1
 398 0 l 1
 398 486 l 1
 90 486 l 1
 90 419 l 1
 316 419 l 1
 316 0 l 1
307 574 m 1
 389 574 l 1
 503 714 l 1
 468 746 l 1
 350 633 l 1
 346 633 l 1
 228 746 l 1
 193 714 l 1
 307 574 l 1
EndSplineSet
Validated: 9
EndChar

StartChar: uni01D1
Encoding: 465 465 334
Width: 600
GlyphClass: 2
Flags: W
LayerCount: 2
Fore
SplineSet
300 -12 m 0
 448 -12 552 116 552 331 c 0
 552 543 448 668 300 668 c 0
 152 668 48 543 48 331 c 0
 48 116 152 -12 300 -12 c 0
300 61 m 0
 200 61 134 163 134 331 c 0
 134 496 200 595 300 595 c 0
 400 595 466 496 466 331 c 0
 466 163 400 61 300 61 c 0
257 706 m 1
 343 706 l 1
 448 819 l 1
 412 845 l 1
 302 753 l 1
 298 753 l 1
 188 845 l 1
 152 819 l 1
 257 706 l 1
EndSplineSet
Validated: 9
EndChar

StartChar: uni01D2
Encoding: 466 466 335
Width: 600
GlyphClass: 2
Flags: W
LayerCount: 2
Fore
SplineSet
300 -12 m 0
 428 -12 540 81 540 242 c 0
 540 405 428 498 300 498 c 0
 172 498 60 405 60 242 c 0
 60 81 172 -12 300 -12 c 0
300 56 m 0
 207 56 145 131 145 242 c 0
 145 354 207 430 300 430 c 0
 393 430 455 354 455 242 c 0
 455 131 393 56 300 56 c 0
259 574 m 1
 341 574 l 1
 455 714 l 1
 420 746 l 1
 302 633 l 1
 298 633 l 1
 180 746 l 1
 145 714 l 1
 259 574 l 1
EndSplineSet
Validated: 9
EndChar

StartChar: uni01D3
Encoding: 467 467 336
Width: 600
GlyphClass: 2
Flags: W
LayerCount: 2
Fore
SplineSet
301 -12 m 0
 429 -12 521 60 521 248 c 2
 521 656 l 1
 440 656 l 1
 440 246 l 2
 440 110 380 61 301 61 c 0
 222 61 163 110 163 246 c 2
 163 656 l 1
 79 656 l 1
 79 248 l 2
 79 60 172 -12 301 -12 c 0
257 706 m 1
 343 706 l 1
 448 819 l 1
 412 845 l 1
 302 753 l 1
 298 753 l 1
 188 845 l 1
 152 819 l 1
 257 706 l 1
EndSplineSet
Validated: 9
EndChar

StartChar: uni01D4
Encoding: 468 468 337
Width: 600
GlyphClass: 2
Flags: W
LayerCount: 2
Fore
SplineSet
246 -12 m 0
 321 -12 378 28 427 85 c 1
 431 85 l 1
 438 0 l 1
 505 0 l 1
 505 486 l 1
 423 486 l 1
 423 149 l 1
 369 86 328 59 272 59 c 0
 191 59 160 103 160 195 c 2
 160 486 l 1
 77 486 l 1
 77 184 l 2
 77 56 130 -12 246 -12 c 0
254 574 m 1
 336 574 l 1
 450 714 l 1
 415 746 l 1
 297 633 l 1
 293 633 l 1
 175 746 l 1
 140 714 l 1
 254 574 l 1
EndSplineSet
Validated: 9
EndChar

StartChar: uni01D5
Encoding: 469 469 338
Width: 600
GlyphClass: 2
Flags: W
LayerCount: 2
Fore
SplineSet
301 -12 m 0
 429 -12 521 60 521 248 c 2
 521 656 l 1
 440 656 l 1
 440 246 l 2
 440 110 380 61 301 61 c 0
 222 61 163 110 163 246 c 2
 163 656 l 1
 79 656 l 1
 79 248 l 2
 79 60 172 -12 301 -12 c 0
197 715 m 0
 223 715 243 734 243 761 c 0
 243 787 223 806 197 806 c 0
 171 806 152 787 152 761 c 0
 152 734 171 715 197 715 c 0
403 715 m 0
 429 715 448 734 448 761 c 0
 448 787 429 806 403 806 c 0
 377 806 357 787 357 761 c 0
 357 734 377 715 403 715 c 0
166 861 m 1
 434 861 l 1
 434 907 l 1
 166 907 l 1
 166 861 l 1
EndSplineSet
Validated: 9
EndChar

StartChar: uni01D6
Encoding: 470 470 339
Width: 600
GlyphClass: 2
Flags: W
LayerCount: 2
Fore
SplineSet
246 -12 m 0
 321 -12 378 28 427 85 c 1
 431 85 l 1
 438 0 l 1
 505 0 l 1
 505 486 l 1
 423 486 l 1
 423 149 l 1
 369 86 328 59 272 59 c 0
 191 59 160 103 160 195 c 2
 160 486 l 1
 77 486 l 1
 77 184 l 2
 77 56 130 -12 246 -12 c 0
199 588 m 0
 225 588 244 608 244 633 c 0
 244 659 225 679 199 679 c 0
 173 679 153 659 153 633 c 0
 153 608 173 588 199 588 c 0
391 588 m 0
 417 588 437 608 437 633 c 0
 437 659 417 679 391 679 c 0
 365 679 346 659 346 633 c 0
 346 608 365 588 391 588 c 0
161 750 m 1
 428 750 l 1
 428 797 l 1
 161 797 l 1
 161 750 l 1
EndSplineSet
Validated: 9
EndChar

StartChar: uni01D7
Encoding: 471 471 340
Width: 600
GlyphClass: 2
Flags: W
LayerCount: 2
Fore
SplineSet
301 -12 m 0
 429 -12 521 60 521 248 c 2
 521 656 l 1
 440 656 l 1
 440 246 l 2
 440 110 380 61 301 61 c 0
 222 61 163 110 163 246 c 2
 163 656 l 1
 79 656 l 1
 79 248 l 2
 79 60 172 -12 301 -12 c 0
197 715 m 0
 223 715 243 734 243 761 c 0
 243 787 223 806 197 806 c 0
 171 806 152 787 152 761 c 0
 152 734 171 715 197 715 c 0
403 715 m 0
 429 715 448 734 448 761 c 0
 448 787 429 806 403 806 c 0
 377 806 357 787 357 761 c 0
 357 734 377 715 403 715 c 0
299 823 m 1
 410 932 l 1
 357 968 l 1
 262 849 l 1
 299 823 l 1
EndSplineSet
Validated: 9
EndChar

StartChar: uni01D8
Encoding: 472 472 341
Width: 600
GlyphClass: 2
Flags: W
LayerCount: 2
Fore
SplineSet
246 -12 m 0
 321 -12 378 28 427 85 c 1
 431 85 l 1
 438 0 l 1
 505 0 l 1
 505 486 l 1
 423 486 l 1
 423 149 l 1
 369 86 328 59 272 59 c 0
 191 59 160 103 160 195 c 2
 160 486 l 1
 77 486 l 1
 77 184 l 2
 77 56 130 -12 246 -12 c 0
199 588 m 0
 225 588 244 608 244 633 c 0
 244 659 225 679 199 679 c 0
 173 679 153 659 153 633 c 0
 153 608 173 588 199 588 c 0
391 588 m 0
 417 588 437 608 437 633 c 0
 437 659 417 679 391 679 c 0
 365 679 346 659 346 633 c 0
 346 608 365 588 391 588 c 0
288 705 m 1
 384 810 l 1
 335 844 l 1
 253 729 l 1
 288 705 l 1
EndSplineSet
Validated: 9
EndChar

StartChar: uni01D9
Encoding: 473 473 342
Width: 600
GlyphClass: 2
Flags: W
LayerCount: 2
Fore
SplineSet
301 -12 m 0
 429 -12 521 60 521 248 c 2
 521 656 l 1
 440 656 l 1
 440 246 l 2
 440 110 380 61 301 61 c 0
 222 61 163 110 163 246 c 2
 163 656 l 1
 79 656 l 1
 79 248 l 2
 79 60 172 -12 301 -12 c 0
197 715 m 0
 223 715 243 734 243 761 c 0
 243 787 223 806 197 806 c 0
 171 806 152 787 152 761 c 0
 152 734 171 715 197 715 c 0
403 715 m 0
 429 715 448 734 448 761 c 0
 448 787 429 806 403 806 c 0
 377 806 357 787 357 761 c 0
 357 734 377 715 403 715 c 0
264 839 m 1
 336 839 l 1
 435 935 l 1
 402 962 l 1
 302 887 l 1
 298 887 l 1
 198 962 l 1
 165 935 l 1
 264 839 l 1
EndSplineSet
Validated: 9
EndChar

StartChar: uni01DA
Encoding: 474 474 343
Width: 600
GlyphClass: 2
Flags: W
LayerCount: 2
Fore
SplineSet
246 -12 m 0
 321 -12 378 28 427 85 c 1
 431 85 l 1
 438 0 l 1
 505 0 l 1
 505 486 l 1
 423 486 l 1
 423 149 l 1
 369 86 328 59 272 59 c 0
 191 59 160 103 160 195 c 2
 160 486 l 1
 77 486 l 1
 77 184 l 2
 77 56 130 -12 246 -12 c 0
199 588 m 0
 225 588 244 608 244 633 c 0
 244 659 225 679 199 679 c 0
 173 679 153 659 153 633 c 0
 153 608 173 588 199 588 c 0
391 588 m 0
 417 588 437 608 437 633 c 0
 437 659 417 679 391 679 c 0
 365 679 346 659 346 633 c 0
 346 608 365 588 391 588 c 0
261 720 m 1
 329 720 l 1
 423 812 l 1
 393 840 l 1
 297 767 l 1
 293 767 l 1
 197 840 l 1
 167 812 l 1
 261 720 l 1
EndSplineSet
Validated: 9
EndChar

StartChar: uni01DB
Encoding: 475 475 344
Width: 600
GlyphClass: 2
Flags: W
LayerCount: 2
Fore
SplineSet
301 -12 m 0
 429 -12 521 60 521 248 c 2
 521 656 l 1
 440 656 l 1
 440 246 l 2
 440 110 380 61 301 61 c 0
 222 61 163 110 163 246 c 2
 163 656 l 1
 79 656 l 1
 79 248 l 2
 79 60 172 -12 301 -12 c 0
197 715 m 0
 223 715 243 734 243 761 c 0
 243 787 223 806 197 806 c 0
 171 806 152 787 152 761 c 0
 152 734 171 715 197 715 c 0
403 715 m 0
 429 715 448 734 448 761 c 0
 448 787 429 806 403 806 c 0
 377 806 357 787 357 761 c 0
 357 734 377 715 403 715 c 0
301 823 m 1
 338 849 l 1
 243 968 l 1
 190 932 l 1
 301 823 l 1
EndSplineSet
Validated: 9
EndChar

StartChar: uni01DC
Encoding: 476 476 345
Width: 600
GlyphClass: 2
Flags: W
LayerCount: 2
Fore
SplineSet
246 -12 m 0
 321 -12 378 28 427 85 c 1
 431 85 l 1
 438 0 l 1
 505 0 l 1
 505 486 l 1
 423 486 l 1
 423 149 l 1
 369 86 328 59 272 59 c 0
 191 59 160 103 160 195 c 2
 160 486 l 1
 77 486 l 1
 77 184 l 2
 77 56 130 -12 246 -12 c 0
199 588 m 0
 225 588 244 608 244 633 c 0
 244 659 225 679 199 679 c 0
 173 679 153 659 153 633 c 0
 153 608 173 588 199 588 c 0
391 588 m 0
 417 588 437 608 437 633 c 0
 437 659 417 679 391 679 c 0
 365 679 346 659 346 633 c 0
 346 608 365 588 391 588 c 0
302 705 m 1
 337 729 l 1
 255 844 l 1
 206 810 l 1
 302 705 l 1
EndSplineSet
Validated: 9
EndChar

StartChar: uni01E2
Encoding: 482 482 346
Width: 600
GlyphClass: 2
Flags: W
LayerCount: 2
Fore
SplineSet
231 377 m 2
 258 448 287 518 314 590 c 1
 317 590 l 1
 317 258 l 1
 185 258 l 1
 231 377 l 2
-1 0 m 1
 86 0 l 1
 159 191 l 1
 317 191 l 1
 317 0 l 1
 591 0 l 1
 591 71 l 1
 393 71 l 1
 393 310 l 1
 540 310 l 1
 540 381 l 1
 393 381 l 1
 393 586 l 1
 582 586 l 1
 582 656 l 1
 263 656 l 1
 -1 0 l 1
286 735 m 1
 554 735 l 1
 554 792 l 1
 286 792 l 1
 286 735 l 1
EndSplineSet
Validated: 9
EndChar

StartChar: uni01E3
Encoding: 483 483 347
Width: 600
GlyphClass: 2
Flags: W
LayerCount: 2
Fore
SplineSet
145 -12 m 0
 204 -12 257 20 304 75 c 1
 336 20 386 -12 454 -12 c 0
 504 -12 549 7 582 31 c 1
 552 87 l 1
 526 69 494 55 457 55 c 0
 381 55 337 118 332 220 c 1
 593 220 l 1
 595 237 597 257 597 276 c 0
 597 395 549 498 448 498 c 0
 394 498 341 469 308 398 c 1
 285 469 243 498 185 498 c 0
 128 498 73 472 33 446 c 1
 64 390 l 1
 95 411 138 430 178 430 c 0
 229 430 263 397 266 302 c 1
 90 280 17 219 17 120 c 0
 17 38 71 -12 145 -12 c 0
167 54 m 0
 123 54 93 81 93 128 c 0
 93 187 131 229 266 249 c 1
 266 242 l 2
 266 198 272 158 283 123 c 1
 248 78 204 54 167 54 c 0
443 433 m 0
 499 433 527 384 530 284 c 1
 333 284 l 1
 343 392 393 433 443 433 c 0
183 601 m 1
 449 601 l 1
 449 658 l 1
 183 658 l 1
 183 601 l 1
EndSplineSet
Validated: 9
EndChar

StartChar: Gcaron
Encoding: 486 486 348
Width: 600
GlyphClass: 2
Flags: W
LayerCount: 2
Fore
SplineSet
337 -12 m 0
 422 -12 492 22 533 64 c 1
 533 340 l 1
 325 340 l 1
 325 271 l 1
 456 271 l 1
 456 100 l 1
 431 76 388 61 342 61 c 0
 213 61 140 165 140 330 c 0
 140 493 221 595 344 595 c 0
 407 595 446 569 478 535 c 1
 525 588 l 1
 488 627 431 668 344 668 c 0
 174 668 53 540 53 328 c 0
 53 114 172 -12 337 -12 c 0
287 706 m 1
 373 706 l 1
 478 819 l 1
 442 845 l 1
 332 753 l 1
 328 753 l 1
 218 845 l 1
 182 819 l 1
 287 706 l 1
EndSplineSet
Validated: 9
EndChar

StartChar: gcaron
Encoding: 487 487 349
Width: 600
GlyphClass: 2
Flags: W
LayerCount: 2
Fore
SplineSet
296 -224 m 0
 461 -224 566 -145 566 -54 c 0
 566 28 506 60 381 60 c 2
 272 60 l 2
 208 60 171 78 171 116 c 0
 171 139 185 157 209 172 c 1
 236 160 266 154 291 154 c 0
 396 154 479 217 479 321 c 0
 479 360 460 396 438 419 c 1
 564 419 l 1
 564 486 l 1
 363 486 l 1
 342 494 319 498 291 498 c 0
 188 498 100 430 100 324 c 0
 100 266 127 223 160 198 c 1
 160 194 l 1
 123 169 102 134 102 103 c 0
 102 62 126 37 152 23 c 1
 152 19 l 1
 100 -11 72 -50 72 -89 c 0
 72 -175 154 -224 296 -224 c 0
291 209 m 0
 230 209 179 254 179 324 c 0
 179 392 230 438 291 438 c 0
 353 438 403 392 403 324 c 0
 403 254 353 209 291 209 c 0
302 -164 m 0
 198 -164 143 -132 143 -81 c 0
 143 -53 159 -25 205 0 c 1
 226 -6 251 -8 279 -8 c 2
 374 -8 l 2
 448 -8 485 -21 485 -67 c 0
 485 -117 415 -164 302 -164 c 0
266 574 m 1
 348 574 l 1
 462 714 l 1
 427 746 l 1
 309 633 l 1
 305 633 l 1
 187 746 l 1
 152 714 l 1
 266 574 l 1
EndSplineSet
Validated: 9
EndChar

StartChar: uni01EA
Encoding: 490 490 350
Width: 600
GlyphClass: 2
Flags: W
LayerCount: 2
Fore
SplineSet
318 -225 m 0
 356 -225 386 -209 409 -189 c 1
 384 -146 l 1
 371 -157 355 -167 334 -167 c 0
 306 -167 279 -151 279 -116 c 0
 279 -75 310 -28 371 -2 c 0
 487 47 552 156 552 331 c 0
 552 540 448 668 300 668 c 0
 152 668 48 541 48 331 c 0
 48 143 131 1 286 -11 c 1
 249 -42 215 -81 215 -134 c 0
 215 -195 259 -225 318 -225 c 0
300 60 m 0
 200 60 134 159 134 331 c 0
 134 496 200 595 300 595 c 0
 400 595 466 496 466 331 c 0
 466 159 400 60 300 60 c 0
EndSplineSet
Validated: 9
EndChar

StartChar: uni01EB
Encoding: 491 491 351
Width: 600
GlyphClass: 2
Flags: W
LayerCount: 2
Fore
SplineSet
324 -225 m 0
 365 -225 396 -210 419 -189 c 1
 395 -150 l 1
 383 -161 366 -171 341 -171 c 0
 313 -171 284 -154 284 -116 c 0
 284 -75 315 -27 369 -3 c 0
 472 42 540 107 540 242 c 0
 540 405 428 498 300 498 c 0
 172 498 60 405 60 242 c 0
 60 92 158 -5 291 -11 c 1
 256 -39 223 -80 223 -132 c 0
 223 -195 267 -225 324 -225 c 0
300 55 m 0
 207 55 145 130 145 242 c 0
 145 354 207 430 300 430 c 0
 393 430 455 354 455 242 c 0
 455 130 393 55 300 55 c 0
EndSplineSet
Validated: 9
EndChar

StartChar: uni01F4
Encoding: 500 500 352
Width: 600
GlyphClass: 2
Flags: W
LayerCount: 2
Fore
SplineSet
337 -12 m 0
 422 -12 492 22 533 64 c 1
 533 340 l 1
 325 340 l 1
 325 271 l 1
 456 271 l 1
 456 100 l 1
 431 76 388 61 342 61 c 0
 213 61 140 165 140 330 c 0
 140 493 221 595 344 595 c 0
 407 595 446 569 478 535 c 1
 525 588 l 1
 488 627 431 668 344 668 c 0
 174 668 53 540 53 328 c 0
 53 114 172 -12 337 -12 c 0
301 697 m 1
 453 812 l 1
 406 867 l 1
 265 739 l 1
 301 697 l 1
EndSplineSet
Validated: 9
EndChar

StartChar: uni01F5
Encoding: 501 501 353
Width: 600
GlyphClass: 2
Flags: W
LayerCount: 2
Fore
SplineSet
296 -224 m 0
 461 -224 566 -145 566 -54 c 0
 566 28 506 60 381 60 c 2
 272 60 l 2
 208 60 171 78 171 116 c 0
 171 139 185 157 209 172 c 1
 236 160 266 154 291 154 c 0
 396 154 479 217 479 321 c 0
 479 360 460 396 438 419 c 1
 564 419 l 1
 564 486 l 1
 363 486 l 1
 342 494 319 498 291 498 c 0
 188 498 100 430 100 324 c 0
 100 266 127 223 160 198 c 1
 160 194 l 1
 123 169 102 134 102 103 c 0
 102 62 126 37 152 23 c 1
 152 19 l 1
 100 -11 72 -50 72 -89 c 0
 72 -175 154 -224 296 -224 c 0
291 209 m 0
 230 209 179 254 179 324 c 0
 179 392 230 438 291 438 c 0
 353 438 403 392 403 324 c 0
 403 254 353 209 291 209 c 0
302 -164 m 0
 198 -164 143 -132 143 -81 c 0
 143 -53 159 -25 205 0 c 1
 226 -6 251 -8 279 -8 c 2
 374 -8 l 2
 448 -8 485 -21 485 -67 c 0
 485 -117 415 -164 302 -164 c 0
286 568 m 1
 443 721 l 1
 385 777 l 1
 243 609 l 1
 286 568 l 1
EndSplineSet
Validated: 9
EndChar

StartChar: uni01F8
Encoding: 504 504 354
Width: 600
GlyphClass: 2
Flags: W
LayerCount: 2
Fore
SplineSet
82 0 m 1
 162 0 l 1
 162 343 l 2
 162 411 154 481 151 548 c 1
 153 548 l 1
 216 412 l 1
 426 0 l 1
 518 0 l 1
 518 656 l 1
 438 656 l 1
 438 316 l 2
 438 247 446 173 449 108 c 1
 447 108 l 1
 384 244 l 1
 174 656 l 1
 82 656 l 1
 82 0 l 1
339 697 m 1
 375 739 l 1
 234 867 l 1
 187 812 l 1
 339 697 l 1
EndSplineSet
Validated: 9
EndChar

StartChar: uni01F9
Encoding: 505 505 355
Width: 600
GlyphClass: 2
Flags: W
LayerCount: 2
Fore
SplineSet
93 0 m 1
 175 0 l 1
 175 339 l 1
 232 398 271 427 329 427 c 0
 409 427 441 383 441 291 c 2
 441 0 l 1
 523 0 l 1
 523 302 l 2
 523 430 470 498 355 498 c 0
 279 498 223 457 172 403 c 1
 168 403 l 1
 161 486 l 1
 93 486 l 1
 93 0 l 1
339 568 m 1
 382 609 l 1
 240 777 l 1
 182 721 l 1
 339 568 l 1
EndSplineSet
Validated: 9
EndChar

StartChar: Aringacute
Encoding: 506 506 356
Width: 600
GlyphClass: 2
Flags: W
LayerCount: 2
Fore
SplineSet
232 367 m 2
 255 440 276 512 297 588 c 1
 301 588 l 1
 321 512 343 440 366 367 c 2
 397 267 l 1
 201 267 l 1
 232 367 l 2
32 0 m 1
 117 0 l 1
 180 200 l 1
 418 200 l 1
 480 0 l 1
 568 0 l 1
 347 656 l 1
 253 656 l 1
 32 0 l 1
300 699 m 0
 355 699 397 735 397 789 c 0
 397 833 370 865 330 876 c 1
 409 918 l 1
 372 968 l 1
 240 863 l 2
 217 847 203 821 203 789 c 0
 203 735 244 699 300 699 c 0
300 735 m 0
 271 735 248 754 248 789 c 0
 248 823 271 843 300 843 c 0
 327 843 351 823 351 789 c 0
 351 754 327 735 300 735 c 0
EndSplineSet
Validated: 9
EndChar

StartChar: aringacute
Encoding: 507 507 357
Width: 600
GlyphClass: 2
Flags: W
LayerCount: 2
Fore
SplineSet
246 -12 m 0
 315 -12 384 24 438 66 c 1
 441 66 l 1
 448 0 l 1
 515 0 l 1
 515 298 l 2
 515 419 451 498 318 498 c 0
 233 498 151 460 102 428 c 1
 134 372 l 1
 179 400 241 430 304 430 c 0
 398 430 431 374 433 308 c 1
 182 288 81 235 81 126 c 0
 81 39 155 -12 246 -12 c 0
268 54 m 0
 212 54 161 77 161 132 c 0
 161 196 225 237 433 254 c 1
 433 126 l 1
 378 80 323 54 268 54 c 0
320 569 m 0
 389 569 430 611 430 665 c 0
 430 710 401 747 352 758 c 1
 425 793 l 1
 390 843 l 1
 257 746 l 2
 227 729 210 699 210 665 c 0
 210 611 251 569 320 569 c 0
320 606 m 0
 288 606 263 632 263 665 c 0
 263 699 288 724 320 724 c 0
 352 724 377 699 377 665 c 0
 377 632 352 606 320 606 c 0
EndSplineSet
Validated: 9
EndChar

StartChar: AEacute
Encoding: 508 508 358
Width: 600
GlyphClass: 2
Flags: W
LayerCount: 2
Fore
SplineSet
231 377 m 2
 258 448 287 518 314 590 c 1
 317 590 l 1
 317 258 l 1
 185 258 l 1
 231 377 l 2
-1 0 m 1
 86 0 l 1
 159 191 l 1
 317 191 l 1
 317 0 l 1
 591 0 l 1
 591 71 l 1
 393 71 l 1
 393 310 l 1
 540 310 l 1
 540 381 l 1
 393 381 l 1
 393 586 l 1
 582 586 l 1
 582 656 l 1
 263 656 l 1
 -1 0 l 1
391 697 m 1
 543 812 l 1
 496 867 l 1
 355 739 l 1
 391 697 l 1
EndSplineSet
Validated: 9
EndChar

StartChar: aeacute
Encoding: 509 509 359
Width: 600
GlyphClass: 2
Flags: W
LayerCount: 2
Fore
SplineSet
145 -12 m 0
 204 -12 257 20 304 75 c 1
 336 20 386 -12 454 -12 c 0
 504 -12 549 7 582 31 c 1
 552 87 l 1
 526 69 494 55 457 55 c 0
 381 55 337 118 332 220 c 1
 593 220 l 1
 595 237 597 257 597 276 c 0
 597 395 549 498 448 498 c 0
 394 498 341 469 308 398 c 1
 285 469 243 498 185 498 c 0
 128 498 73 472 33 446 c 1
 64 390 l 1
 95 411 138 430 178 430 c 0
 229 430 263 397 266 302 c 1
 90 280 17 219 17 120 c 0
 17 38 71 -12 145 -12 c 0
167 54 m 0
 123 54 93 81 93 128 c 0
 93 187 131 229 266 249 c 1
 266 242 l 2
 266 198 272 158 283 123 c 1
 248 78 204 54 167 54 c 0
443 433 m 0
 499 433 527 384 530 284 c 1
 333 284 l 1
 343 392 393 433 443 433 c 0
295 568 m 1
 452 721 l 1
 394 777 l 1
 252 609 l 1
 295 568 l 1
EndSplineSet
Validated: 9
EndChar

StartChar: Oslashacute
Encoding: 510 510 360
Width: 600
GlyphClass: 2
Flags: W
LayerCount: 2
Fore
SplineSet
300 -12 m 0
 448 -12 552 116 552 331 c 0
 552 425 532 502 496 558 c 1
 560 652 l 1
 504 688 l 1
 452 611 l 1
 410 648 359 668 300 668 c 0
 152 668 48 543 48 331 c 0
 48 237 68 159 103 102 c 1
 36 4 l 1
 92 -32 l 1
 146 48 l 1
 188 9 240 -12 300 -12 c 0
134 331 m 0
 134 496 200 595 300 595 c 0
 342 595 378 577 406 545 c 1
 157 181 l 1
 142 222 134 272 134 331 c 0
300 61 m 0
 257 61 220 80 192 115 c 1
 442 480 l 1
 458 440 466 390 466 331 c 0
 466 163 400 61 300 61 c 0
271 697 m 1
 423 812 l 1
 376 867 l 1
 235 739 l 1
 271 697 l 1
EndSplineSet
Validated: 9
EndChar

StartChar: oslashacute
Encoding: 511 511 361
Width: 600
GlyphClass: 2
Flags: W
LayerCount: 2
Fore
SplineSet
300 -12 m 0
 428 -12 540 81 540 242 c 0
 540 312 519 370 485 412 c 1
 538 474 l 1
 492 516 l 1
 440 455 l 1
 400 483 351 498 300 498 c 0
 172 498 60 405 60 242 c 0
 60 173 81 116 115 74 c 1
 62 12 l 1
 108 -30 l 1
 160 31 l 1
 200 3 249 -12 300 -12 c 0
145 242 m 0
 145 354 207 432 300 432 c 0
 336 432 368 420 392 399 c 1
 168 136 l 1
 153 166 145 202 145 242 c 0
300 54 m 0
 264 54 232 66 207 86 c 1
 432 349 l 1
 447 320 455 283 455 242 c 0
 455 131 393 54 300 54 c 0
279 568 m 1
 436 721 l 1
 378 777 l 1
 236 609 l 1
 279 568 l 1
EndSplineSet
Validated: 9
EndChar

StartChar: uni0218
Encoding: 536 536 362
Width: 600
GlyphClass: 2
Flags: W
LayerCount: 2
Fore
SplineSet
305 -12 m 0
 449 -12 537 71 537 175 c 0
 537 272 473 317 392 350 c 2
 300 390 l 2
 244 413 183 436 183 499 c 0
 183 558 234 595 310 595 c 0
 378 595 428 571 471 533 c 1
 515 587 l 1
 467 635 395 668 313 668 c 0
 188 668 98 594 98 494 c 0
 98 398 174 351 240 325 c 2
 334 284 l 2
 401 255 452 235 452 165 c 0
 452 104 399 61 309 61 c 0
 234 61 166 94 117 143 c 1
 67 85 l 1
 126 26 209 -12 305 -12 c 0
226 -226 m 1
 332 -221 391 -193 391 -135 c 0
 391 -90 361 -68 274 -58 c 1
 256 -96 l 1
 302 -100 327 -112 327 -138 c 0
 327 -165 302 -180 218 -186 c 1
 226 -226 l 1
EndSplineSet
Validated: 9
EndChar

StartChar: uni0219
Encoding: 537 537 363
Width: 600
GlyphClass: 2
Flags: W
LayerCount: 2
Fore
SplineSet
310 -12 m 0
 449 -12 526 54 526 133 c 0
 526 207 487 248 325 283 c 0
 226 304 184 322 184 364 c 0
 184 401 213 434 296 434 c 0
 358 434 414 414 459 383 c 1
 499 436 l 1
 451 469 377 498 303 498 c 0
 170 498 101 438 101 360 c 0
 101 287 165 244 291 218 c 0
 423 191 443 165 443 128 c 0
 443 87 402 52 320 52 c 0
 230 52 165 78 109 118 c 1
 71 64 l 1
 130 23 215 -12 310 -12 c 0
222 -226 m 1
 328 -221 387 -193 387 -135 c 0
 387 -90 357 -68 270 -58 c 1
 252 -96 l 1
 298 -100 323 -112 323 -138 c 0
 323 -165 298 -180 214 -186 c 1
 222 -226 l 1
EndSplineSet
Validated: 9
EndChar

StartChar: uni021A
Encoding: 538 538 364
Width: 600
GlyphClass: 2
Flags: W
LayerCount: 2
Fore
SplineSet
258 0 m 1
 342 0 l 1
 342 586 l 1
 558 586 l 1
 558 656 l 1
 42 656 l 1
 42 586 l 1
 258 586 l 1
 258 0 l 1
213 -226 m 1
 319 -221 378 -193 378 -135 c 0
 378 -90 348 -68 261 -58 c 1
 243 -96 l 1
 289 -100 314 -112 314 -138 c 0
 314 -165 289 -180 205 -186 c 1
 213 -226 l 1
EndSplineSet
Validated: 9
EndChar

StartChar: uni021B
Encoding: 539 539 365
Width: 600
GlyphClass: 2
Flags: W
LayerCount: 2
Fore
SplineSet
394 -12 m 0
 455 -12 502 1 546 17 c 1
 528 77 l 1
 493 64 457 55 411 55 c 0
 317 55 288 101 288 188 c 2
 288 419 l 1
 527 419 l 1
 527 486 l 1
 288 486 l 1
 288 642 l 1
 220 642 l 1
 209 486 l 1
 69 481 l 1
 69 419 l 1
 206 419 l 1
 206 189 l 2
 206 69 252 -12 394 -12 c 0
292 -226 m 1
 398 -221 457 -193 457 -135 c 0
 457 -90 427 -68 340 -58 c 1
 322 -96 l 1
 368 -100 393 -112 393 -138 c 0
 393 -165 368 -180 284 -186 c 1
 292 -226 l 1
EndSplineSet
Validated: 9
EndChar

StartChar: uni0237
Encoding: 567 567 366
Width: 600
GlyphClass: 2
Flags: W
LayerCount: 2
Fore
SplineSet
194 -217 m 0
 351 -217 398 -132 398 -12 c 2
 398 486 l 1
 90 486 l 1
 90 419 l 1
 316 419 l 1
 316 -18 l 2
 316 -101 290 -150 193 -150 c 0
 156 -150 117 -140 82 -123 c 1
 55 -184 l 1
 94 -203 143 -217 194 -217 c 0
EndSplineSet
Validated: 9
EndChar

StartChar: uni0243
Encoding: 579 579 367
Width: 600
GlyphClass: 2
Flags: W
LayerCount: 2
Fore
SplineSet
105 0 m 1
 306 0 l 2
 453 0 553 63 553 192 c 0
 553 282 497 334 401 349 c 1
 401 353 l 1
 479 373 516 431 516 496 c 0
 516 611 425 656 291 656 c 2
 105 656 l 1
 105 224 l 1
 26 218 l 1
 26 162 l 1
 105 162 l 1
 105 0 l 1
188 70 m 1
 188 162 l 1
 330 162 l 1
 330 224 l 1
 188 224 l 1
 188 310 l 1
 294 310 l 2
 409 310 471 277 471 196 c 0
 471 107 406 70 294 70 c 2
 188 70 l 1
188 380 m 1
 188 586 l 1
 281 586 l 2
 382 586 434 560 434 489 c 0
 434 416 389 380 277 380 c 2
 188 380 l 1
EndSplineSet
Validated: 9
EndChar

StartChar: uni0250
Encoding: 592 592 368
Width: 600
GlyphClass: 2
Flags: W
LayerCount: 2
Fore
SplineSet
292 -12 m 0
 377 -12 459 26 508 58 c 1
 476 114 l 1
 431 86 369 56 305 56 c 0
 212 56 179 112 177 179 c 1
 427 198 529 251 529 360 c 0
 529 448 455 498 363 498 c 0
 295 498 225 462 172 420 c 1
 169 420 l 1
 162 486 l 1
 94 486 l 1
 94 188 l 2
 94 67 159 -12 292 -12 c 0
177 232 m 1
 177 360 l 1
 232 406 286 432 342 432 c 0
 398 432 449 409 449 354 c 0
 449 290 385 249 177 232 c 1
EndSplineSet
Validated: 9
EndChar

StartChar: uni0251
Encoding: 593 593 369
Width: 600
GlyphClass: 2
Flags: W
LayerCount: 2
Fore
SplineSet
270 -12 m 0
 331 -12 390 23 429 64 c 1
 432 64 l 1
 439 0 l 1
 507 0 l 1
 507 486 l 1
 441 486 l 1
 434 432 l 1
 431 432 l 1
 386 475 339 498 282 498 c 0
 165 498 60 400 60 242 c 0
 60 80 145 -12 270 -12 c 0
288 57 m 0
 198 57 145 127 145 243 c 0
 145 354 213 429 297 429 c 0
 339 429 381 413 425 372 c 1
 425 130 l 1
 382 82 336 57 288 57 c 0
EndSplineSet
Validated: 9
EndChar

StartChar: uni0252
Encoding: 594 594 370
Width: 600
GlyphClass: 2
Flags: W
LayerCount: 2
Fore
SplineSet
320 -12 m 0
 436 -12 540 85 540 251 c 0
 540 401 469 498 339 498 c 0
 274 498 210 463 171 422 c 1
 168 422 l 1
 161 486 l 1
 93 486 l 1
 93 0 l 1
 159 0 l 1
 166 54 l 1
 169 54 l 1
 215 13 272 -12 320 -12 c 0
306 57 m 0
 270 57 222 72 175 114 c 1
 175 356 l 1
 218 404 269 429 317 429 c 0
 414 429 455 357 455 247 c 0
 455 130 391 57 306 57 c 0
EndSplineSet
Validated: 9
EndChar

StartChar: uni0253
Encoding: 595 595 371
Width: 600
GlyphClass: 2
Flags: W
LayerCount: 2
Fore
SplineSet
321 -12 m 0
 435 -12 540 83 540 247 c 0
 540 395 469 491 338 491 c 0
 281 491 219 462 175 417 c 1
 175 417 171 417 171 417 c 1
 171 417 175 539 175 539 c 2
 178 613 209 657 281 657 c 0
 301 657 325 652 347 642 c 1
 366 705 l 1
 341 715 307 724 273 724 c 0
 152 724 93 648 93 537 c 2
 93 0 l 1
 159 0 l 1
 166 54 l 1
 169 54 l 1
 215 12 273 -12 321 -12 c 0
307 57 m 0
 272 57 221 72 175 114 c 1
 175 349 l 1
 224 399 275 422 318 422 c 0
 414 422 455 351 455 246 c 0
 455 129 391 57 307 57 c 0
EndSplineSet
Validated: 9
EndChar

StartChar: uni0254
Encoding: 596 596 372
Width: 600
GlyphClass: 2
Flags: W
LayerCount: 2
Fore
SplineSet
257 -12 m 0
 405 -12 520 81 520 242 c 0
 520 405 402 498 263 498 c 0
 175 498 112 466 71 427 c 1
 113 374 l 1
 154 409 200 430 258 430 c 0
 361 430 435 354 435 242 c 0
 435 131 360 56 249 56 c 0
 189 56 137 83 98 117 c 1
 61 64 l 1
 113 16 182 -12 257 -12 c 0
EndSplineSet
Validated: 9
EndChar

StartChar: uni0255
Encoding: 597 597 373
Width: 600
GlyphClass: 2
Flags: W
LayerCount: 2
Fore
SplineSet
361 54 m 0
 331 54 302 59 277 69 c 1
 322 121 373 152 412 152 c 0
 455 152 472 135 472 111 c 0
 472 78 434 54 361 54 c 0
185 -102 m 1
 197 -61 214 -23 234 11 c 1
 272 -4 314 -12 359 -12 c 0
 477 -12 537 43 537 112 c 0
 537 172 494 211 417 211 c 0
 354 211 282 172 220 103 c 1
 183 135 161 183 161 242 c 0
 161 356 242 433 348 433 c 0
 404 433 449 412 488 376 c 1
 528 427 l 1
 486 468 428 498 345 498 c 0
 204 498 80 405 80 242 c 0
 80 154 117 86 176 43 c 1
 153 9 134 -31 118 -74 c 1
 185 -102 l 1
EndSplineSet
Validated: 9
EndChar

StartChar: uni0256
Encoding: 598 598 374
Width: 600
GlyphClass: 2
Flags: W
LayerCount: 2
Fore
SplineSet
546 -176 m 0
 571 -176 593 -170 607 -163 c 1
 591 -100 l 1
 581 -104 568 -109 555 -109 c 0
 516 -109 505 -76 505 -21 c 2
 505 712 l 1
 422 712 l 1
 422 525 l 1
 427 435 l 1
 424 435 l 1
 382 474 338 498 280 498 c 0
 166 498 60 400 60 242 c 0
 60 80 144 -12 269 -12 c 0
 329 -12 386 21 424 61 c 1
 427 61 l 1
 425 -39 l 2
 425 -124 463 -176 546 -176 c 0
288 57 m 0
 199 57 145 127 145 243 c 0
 145 354 212 429 294 429 c 0
 335 429 378 413 422 372 c 1
 422 130 l 1
 380 82 335 57 288 57 c 0
EndSplineSet
Validated: 9
EndChar

StartChar: uni0257
Encoding: 599 599 375
Width: 600
GlyphClass: 2
Flags: W
LayerCount: 2
Fore
SplineSet
269 -12 m 0
 329 -12 387 23 426 64 c 1
 429 64 l 1
 436 0 l 1
 504 0 l 1
 504 567 l 2
 504 623 519 659 563 659 c 0
 575 659 585 656 594 653 c 1
 610 716 l 1
 595 722 577 726 554 726 c 0
 466 726 424 671 424 581 c 2
 424 525 l 1
 426 435 l 1
 423 435 l 1
 381 475 336 498 279 498 c 0
 165 498 60 400 60 242 c 0
 60 80 143 -12 269 -12 c 0
287 57 m 0
 198 57 145 127 145 243 c 0
 145 354 212 429 293 429 c 0
 335 429 378 413 422 372 c 1
 422 130 l 1
 379 82 334 57 287 57 c 0
EndSplineSet
Validated: 9
EndChar

StartChar: uni0258
Encoding: 600 600 376
Width: 600
GlyphClass: 2
Flags: W
LayerCount: 2
Fore
SplineSet
290 433 m 0
 370 433 433 380 447 284 c 1
 137 284 l 1
 145 384 207 433 290 433 c 0
270 -12 m 0
 414 -12 531 83 531 242 c 0
 531 401 423 498 295 498 c 0
 156 498 63 407 63 270 c 0
 63 253 64 232 66 220 c 1
 449 220 l 1
 439 110 361 54 261 54 c 0
 203 54 157 71 112 99 c 1
 83 45 l 1
 131 14 192 -12 270 -12 c 0
EndSplineSet
Validated: 9
EndChar

StartChar: uni0259
Encoding: 601 601 377
Width: 600
GlyphClass: 2
Flags: W
LayerCount: 2
Fore
SplineSet
297 -12 m 0
 431 -12 537 82 537 244 c 0
 537 403 435 498 288 498 c 0
 210 498 149 472 100 441 c 1
 130 387 l 1
 174 415 221 433 279 433 c 0
 378 433 444 379 454 274 c 1
 73 274 l 1
 71 262 69 241 69 224 c 0
 69 85 151 -12 297 -12 c 0
295 54 m 0
 205 54 150 107 143 210 c 1
 454 210 l 1
 444 107 382 54 295 54 c 0
EndSplineSet
Validated: 9
EndChar

StartChar: uni025A
Encoding: 602 602 378
Width: 600
GlyphClass: 2
Flags: W
LayerCount: 2
Fore
SplineSet
217 -12 m 0
 339 -12 419 93 419 236 c 0
 419 259 417 281 414 302 c 1
 467 324 l 1
 480 252 521 230 559 230 c 0
 586 230 606 243 621 255 c 1
 599 298 l 1
 591 291 578 283 565 283 c 0
 537 283 522 298 516 374 c 1
 473 391 l 1
 400 359 l 1
 367 450 297 498 207 498 c 0
 142 498 94 478 51 448 c 1
 80 392 l 1
 115 416 149 433 200 433 c 0
 257 433 305 402 327 328 c 1
 22 197 l 1
 32 81 94 -12 217 -12 c 0
216 53 m 0
 157 53 112 86 94 166 c 1
 339 270 l 1
 340 254 341 238 341 220 c 0
 341 121 292 53 216 53 c 0
EndSplineSet
Validated: 9
EndChar

StartChar: uni025B
Encoding: 603 603 379
Width: 600
GlyphClass: 2
Flags: W
LayerCount: 2
Fore
SplineSet
318 -12 m 0
 406 -12 474 6 535 59 c 1
 499 113 l 1
 451 70 396 54 331 54 c 0
 230 54 173 85 173 142 c 0
 173 197 229 220 331 220 c 2
 398 220 l 1
 398 284 l 1
 345 284 l 2
 248 284 198 310 198 358 c 0
 198 408 245 433 330 433 c 0
 396 433 443 414 490 382 c 1
 523 436 l 1
 471 473 407 498 326 498 c 0
 204 498 116 456 116 368 c 0
 116 320 150 281 205 260 c 1
 205 256 l 1
 141 239 91 204 91 135 c 0
 91 41 183 -12 318 -12 c 0
EndSplineSet
Validated: 9
EndChar

StartChar: uni025C
Encoding: 604 604 380
Width: 600
GlyphClass: 2
Flags: W
LayerCount: 2
Fore
SplineSet
280 -12 m 0
 419 -12 513 41 513 134 c 0
 513 204 468 238 402 255 c 1
 402 259 l 1
 460 281 489 319 489 367 c 0
 489 456 402 498 279 498 c 0
 194 498 130 474 74 433 c 1
 108 378 l 1
 159 415 204 433 274 433 c 0
 362 433 408 408 408 359 c 0
 408 311 362 284 269 284 c 2
 197 284 l 1
 197 220 l 1
 281 220 l 2
 378 220 431 196 431 141 c 0
 431 85 374 54 273 54 c 0
 213 54 154 69 98 115 c 1
 62 61 l 1
 131 5 201 -12 280 -12 c 0
EndSplineSet
Validated: 9
EndChar

StartChar: uni025E
Encoding: 606 606 381
Width: 600
GlyphClass: 2
Flags: W
LayerCount: 2
Fore
SplineSet
327 -12 m 0
 455 -12 537 41 537 134 c 0
 537 203 487 242 428 255 c 1
 428 259 l 1
 483 277 512 319 512 367 c 0
 512 456 429 498 321 498 c 0
 185 498 61 410 61 241 c 0
 61 75 175 -12 327 -12 c 0
328 54 m 0
 215 54 144 118 144 241 c 0
 144 362 222 433 324 433 c 0
 389 433 432 408 432 358 c 0
 432 313 391 284 322 284 c 2
 295 284 l 1
 295 220 l 1
 330 220 l 2
 402 220 455 194 455 141 c 0
 455 85 409 54 328 54 c 0
EndSplineSet
Validated: 9
EndChar

StartChar: uni025F
Encoding: 607 607 382
Width: 600
GlyphClass: 2
Flags: W
LayerCount: 2
Fore
SplineSet
194 -217 m 0
 351 -217 398 -132 398 -12 c 2
 398 206 l 1
 564 206 l 1
 564 272 l 1
 398 272 l 1
 398 486 l 1
 90 486 l 1
 90 419 l 1
 316 419 l 1
 316 272 l 1
 122 266 l 1
 122 206 l 1
 316 206 l 1
 316 -18 l 2
 316 -101 290 -150 193 -150 c 0
 156 -150 117 -140 82 -123 c 1
 55 -184 l 1
 94 -203 143 -217 194 -217 c 0
EndSplineSet
Validated: 9
EndChar

StartChar: uni0260
Encoding: 608 608 383
Width: 600
GlyphClass: 2
Flags: W
LayerCount: 2
Fore
SplineSet
279 -216 m 0
 420 -216 505 -144 505 -24 c 2
 505 470 l 2
 505 526 520 562 564 562 c 0
 576 562 586 560 595 556 c 1
 611 619 l 1
 596 625 578 629 555 629 c 0
 465 629 424 570 424 483 c 2
 426 435 l 1
 423 435 l 1
 384 473 338 498 281 498 c 0
 167 498 60 402 60 250 c 0
 60 97 144 5 269 5 c 0
 329 5 386 36 423 75 c 1
 426 75 l 1
 422 -22 l 2
 421 -100 372 -150 279 -150 c 0
 230 -150 175 -137 126 -105 c 1
 95 -163 l 1
 149 -197 216 -216 279 -216 c 0
288 73 m 0
 199 73 145 142 145 251 c 0
 145 355 212 429 294 429 c 0
 335 429 378 414 422 372 c 1
 422 146 l 1
 379 98 335 73 288 73 c 0
EndSplineSet
Validated: 9
EndChar

StartChar: uni0261
Encoding: 609 609 384
Width: 600
GlyphClass: 2
Flags: W
LayerCount: 2
Fore
SplineSet
280 -217 m 0
 424 -217 507 -141 507 -19 c 2
 507 486 l 1
 441 486 l 1
 434 432 l 1
 431 432 l 1
 388 473 339 498 282 498 c 0
 164 498 60 402 60 250 c 0
 60 97 145 5 270 5 c 0
 330 5 388 36 426 75 c 1
 429 75 l 1
 427 -22 l 2
 425 -100 373 -151 280 -151 c 0
 231 -151 175 -138 125 -106 c 1
 95 -165 l 1
 148 -199 217 -217 280 -217 c 0
288 73 m 0
 199 73 144 142 144 251 c 0
 144 355 214 429 296 429 c 0
 339 429 381 413 425 372 c 1
 425 146 l 1
 381 98 335 73 288 73 c 0
EndSplineSet
Validated: 9
EndChar

StartChar: uni0262
Encoding: 610 610 385
Width: 600
GlyphClass: 2
Flags: W
LayerCount: 2
Fore
SplineSet
339 -12 m 0
 418 -12 485 18 526 57 c 1
 526 262 l 1
 320 262 l 1
 320 203 l 1
 454 203 l 1
 454 91 l 1
 426 68 387 54 343 54 c 0
 239 54 162 125 162 243 c 0
 162 364 248 433 348 433 c 0
 411 433 449 406 483 376 c 1
 524 428 l 1
 484 465 430 498 344 498 c 0
 201 498 78 402 78 243 c 0
 78 78 195 -12 339 -12 c 0
EndSplineSet
Validated: 9
EndChar

StartChar: uni0263
Encoding: 611 611 386
Width: 600
GlyphClass: 2
Flags: W
LayerCount: 2
Fore
SplineSet
302 -224 m 0
 376 -224 418 -176 418 -106 c 0
 418 -59 392 -18 356 52 c 1
 549 486 l 1
 469 486 l 1
 357 220 l 2
 338 174 324 142 304 97 c 1
 300 97 l 1
 280 142 267 174 248 220 c 2
 135 486 l 1
 51 486 l 1
 248 52 l 1
 212 -18 186 -59 186 -106 c 0
 186 -176 228 -224 302 -224 c 0
302 -167 m 0
 272 -167 257 -141 257 -108 c 0
 257 -76 275 -34 299 11 c 1
 304 11 l 1
 329 -34 347 -74 347 -108 c 0
 347 -141 333 -167 302 -167 c 0
EndSplineSet
Validated: 9
EndChar

StartChar: uni0264
Encoding: 612 612 387
Width: 600
GlyphClass: 2
Flags: W
LayerCount: 2
Fore
SplineSet
300 -12 m 0
 414 -12 486 52 486 157 c 0
 486 231 432 299 357 363 c 1
 398 408 428 430 466 430 c 0
 484 430 501 425 514 416 c 1
 540 476 l 1
 519 490 487 498 456 498 c 0
 402 498 352 467 300 411 c 1
 247 467 198 498 144 498 c 0
 113 498 81 490 60 476 c 1
 86 416 l 1
 99 425 116 430 134 430 c 0
 171 430 202 408 243 363 c 1
 167 299 114 231 114 157 c 0
 114 52 186 -12 300 -12 c 0
300 56 m 0
 234 56 193 99 193 159 c 0
 193 217 238 271 300 324 c 0
 362 377 407 217 407 159 c 0
 407 99 366 56 300 56 c 0
EndSplineSet
Validated: 41
EndChar

StartChar: uni0265
Encoding: 613 613 388
Width: 600
GlyphClass: 2
Flags: W
LayerCount: 2
Fore
SplineSet
425 -205 m 1
 507 -205 l 1
 507 486 l 1
 425 486 l 1
 425 147 l 1
 368 89 329 59 271 59 c 0
 191 59 159 103 159 195 c 2
 159 486 l 1
 77 486 l 1
 77 184 l 2
 77 56 130 -12 245 -12 c 0
 321 -12 377 30 429 83 c 1
 425 -31 l 1
 425 -205 l 1
EndSplineSet
Validated: 9
EndChar

StartChar: uni0266
Encoding: 614 614 389
Width: 600
GlyphClass: 2
Flags: W
LayerCount: 2
Fore
SplineSet
93 0 m 1
 175 0 l 1
 175 332 l 1
 232 390 271 419 329 419 c 0
 409 419 441 376 441 284 c 2
 441 0 l 1
 523 0 l 1
 523 294 l 2
 523 423 470 491 355 491 c 0
 279 491 223 449 173 396 c 1
 169 396 l 1
 175 539 l 2
 178 613 209 657 281 657 c 0
 301 657 325 652 347 642 c 1
 366 705 l 1
 341 715 307 724 273 724 c 0
 152 724 93 648 93 537 c 2
 93 0 l 1
EndSplineSet
Validated: 9
EndChar

StartChar: uni0267
Encoding: 615 615 390
Width: 600
GlyphClass: 2
Flags: W
LayerCount: 2
Fore
SplineSet
384 -183 m 0
 485 -183 523 -118 523 -14 c 2
 523 294 l 2
 523 423 470 491 355 491 c 0
 279 491 223 449 173 396 c 1
 169 396 l 1
 175 539 l 2
 178 613 209 657 281 657 c 0
 301 657 324 652 347 642 c 1
 366 705 l 1
 340 715 307 724 273 724 c 0
 152 724 93 648 93 537 c 2
 93 0 l 1
 175 0 l 1
 175 332 l 1
 232 390 271 419 329 419 c 0
 409 419 441 376 441 284 c 2
 441 -14 l 2
 441 -77 428 -116 375 -116 c 0
 355 -116 336 -111 322 -106 c 1
 306 -169 l 1
 324 -176 352 -183 384 -183 c 0
EndSplineSet
Validated: 9
EndChar

StartChar: uni0268
Encoding: 616 616 391
Width: 600
GlyphClass: 2
Flags: W
LayerCount: 2
Fore
SplineSet
132 210 m 1
 316 210 l 1
 316 0 l 1
 398 0 l 1
 398 210 l 1
 564 210 l 1
 564 272 l 1
 398 272 l 1
 398 486 l 1
 90 486 l 1
 90 419 l 1
 316 419 l 1
 316 272 l 1
 132 266 l 1
 132 210 l 1
348 588 m 0
 385 588 414 613 414 652 c 0
 414 690 385 716 348 716 c 0
 311 716 282 690 282 652 c 0
 282 613 311 588 348 588 c 0
EndSplineSet
Validated: 9
EndChar

StartChar: uni026A
Encoding: 618 618 392
Width: 600
GlyphClass: 2
Flags: W
LayerCount: 2
Fore
SplineSet
86 0 m 1
 514 0 l 1
 514 67 l 1
 340 67 l 1
 340 419 l 1
 514 419 l 1
 514 486 l 1
 86 486 l 1
 86 419 l 1
 258 419 l 1
 258 67 l 1
 86 67 l 1
 86 0 l 1
EndSplineSet
Validated: 9
EndChar

StartChar: uni026B
Encoding: 619 619 393
Width: 600
GlyphClass: 2
Flags: W
LayerCount: 2
Fore
SplineSet
407 -12 m 0
 460 -12 492 -2 537 17 c 1
 516 78 l 1
 483 63 453 56 425 56 c 0
 367 56 329 86 329 157 c 2
 329 326 l 1
 345 319 362 315 382 315 c 0
 447 315 473 371 477 443 c 1
 422 452 l 1
 419 407 405 375 376 375 c 0
 359 375 344 382 329 392 c 1
 329 712 l 1
 74 712 l 1
 74 645 l 1
 247 645 l 1
 247 448 l 1
 231 455 214 459 194 459 c 0
 129 459 103 403 99 331 c 1
 154 321 l 1
 157 367 171 399 200 399 c 0
 217 399 232 392 247 382 c 1
 247 163 l 2
 247 48 304 -12 407 -12 c 0
EndSplineSet
Validated: 9
EndChar

StartChar: uni026C
Encoding: 620 620 394
Width: 600
GlyphClass: 2
Flags: W
LayerCount: 2
Fore
SplineSet
232 302 m 2
 247 302 l 1
 247 163 l 2
 247 48 304 -12 407 -12 c 0
 460 -12 492 -2 537 17 c 1
 516 78 l 1
 483 63 453 56 425 56 c 0
 367 56 329 86 329 157 c 2
 329 302 l 1
 469 302 l 1
 469 366 l 1
 329 366 l 1
 329 712 l 1
 74 712 l 1
 74 645 l 1
 247 645 l 1
 247 460 l 1
 229 480 203 494 166 494 c 0
 114 494 76 458 76 408 c 0
 76 346 120 302 232 302 c 2
214 366 m 2
 166 366 142 380 142 404 c 0
 142 424 156 436 174 436 c 0
 224 436 247 402 247 372 c 2
 247 366 l 1
 214 366 l 2
EndSplineSet
Validated: 9
EndChar

StartChar: uni026D
Encoding: 621 621 395
Width: 600
GlyphClass: 2
Flags: W
LayerCount: 2
Fore
SplineSet
406 -183 m 0
 459 -183 493 -170 537 -154 c 1
 516 -92 l 1
 480 -108 452 -114 424 -114 c 0
 366 -114 329 -85 329 -14 c 2
 329 712 l 1
 74 712 l 1
 74 645 l 1
 247 645 l 1
 247 -8 l 2
 247 -123 303 -183 406 -183 c 0
EndSplineSet
Validated: 9
EndChar

StartChar: uni026E
Encoding: 622 622 396
Width: 600
GlyphClass: 2
Flags: W
LayerCount: 2
Fore
SplineSet
358 -217 m 0
 468 -217 571 -138 571 2 c 0
 571 112 496 201 358 190 c 1
 549 442 l 1
 549 486 l 1
 161 486 l 1
 161 712 l 1
 79 712 l 1
 79 0 l 1
 161 0 l 1
 161 419 l 1
 446 419 l 1
 251 161 l 1
 285 117 l 1
 307 127 321 132 355 132 c 0
 437 132 487 82 487 0 c 0
 487 -90 426 -149 351 -149 c 0
 277 -149 231 -120 196 -87 c 1
 155 -139 l 1
 197 -179 258 -217 358 -217 c 0
EndSplineSet
Validated: 41
EndChar

StartChar: uni026F
Encoding: 623 623 397
Width: 600
GlyphClass: 2
Flags: W
LayerCount: 2
Fore
SplineSet
542 486 m 1
 460 486 l 1
 460 134 l 1
 436 84 414 59 380 59 c 0
 344 59 330 88 330 144 c 2
 330 486 l 1
 254 486 l 1
 254 134 l 1
 228 84 210 59 176 59 c 0
 140 59 124 88 124 144 c 2
 124 486 l 1
 42 486 l 1
 42 138 l 2
 42 41 82 -12 150 -12 c 0
 206 -12 236 20 264 72 c 1
 278 16 308 -12 356 -12 c 0
 412 -12 442 19 467 64 c 1
 469 64 l 1
 476 0 l 1
 542 0 l 1
 542 486 l 1
EndSplineSet
Validated: 9
EndChar

StartChar: uni0270
Encoding: 624 624 398
Width: 600
GlyphClass: 2
Flags: W
LayerCount: 2
Fore
SplineSet
464 -205 m 1
 542 -205 l 1
 542 486 l 1
 460 486 l 1
 460 134 l 1
 436 84 414 59 380 59 c 0
 344 59 330 88 330 144 c 2
 330 486 l 1
 254 486 l 1
 254 134 l 1
 228 84 210 59 176 59 c 0
 140 59 124 88 124 144 c 2
 124 486 l 1
 42 486 l 1
 42 138 l 2
 42 41 82 -12 150 -12 c 0
 206 -12 236 20 264 72 c 1
 278 16 308 -12 356 -12 c 0
 412 -12 440 18 466 67 c 1
 470 67 l 1
 464 -33 l 1
 464 -205 l 1
EndSplineSet
Validated: 9
EndChar

StartChar: uni0271
Encoding: 625 625 399
Width: 600
GlyphClass: 2
Flags: W
LayerCount: 2
Fore
SplineSet
435 -183 m 0
 522 -183 558 -126 558 -32 c 2
 558 348 l 2
 558 445 518 498 450 498 c 0
 394 498 364 466 336 414 c 1
 322 470 292 498 244 498 c 0
 188 498 158 467 133 422 c 1
 131 422 l 1
 124 486 l 1
 58 486 l 1
 58 0 l 1
 140 0 l 1
 140 352 l 1
 164 402 186 427 220 427 c 0
 256 427 270 398 270 342 c 2
 270 0 l 1
 346 0 l 1
 346 352 l 1
 372 402 390 427 424 427 c 0
 460 427 476 398 476 342 c 2
 476 -28 l 2
 476 -81 469 -116 426 -116 c 0
 411 -116 396 -112 385 -108 c 1
 369 -171 l 1
 385 -178 409 -183 435 -183 c 0
EndSplineSet
Validated: 9
EndChar

StartChar: uni0272
Encoding: 626 626 400
Width: 600
GlyphClass: 2
Flags: W
LayerCount: 2
Fore
SplineSet
56 -183 m 0
 147 -183 180 -124 180 -28 c 2
 180 339 l 1
 236 398 274 427 332 427 c 0
 408 427 441 386 441 291 c 2
 441 0 l 1
 523 0 l 1
 523 302 l 2
 523 430 470 498 356 498 c 0
 282 498 227 457 176 403 c 1
 172 403 l 1
 165 486 l 1
 97 486 l 1
 97 -28 l 2
 97 -83 86 -116 47 -116 c 0
 34 -116 21 -111 11 -107 c 1
 -5 -170 l 1
 9 -177 31 -183 56 -183 c 0
EndSplineSet
Validated: 9
EndChar

StartChar: uni0273
Encoding: 627 627 401
Width: 600
GlyphClass: 2
Flags: W
LayerCount: 2
Fore
SplineSet
560 -183 m 0
 585 -183 607 -177 621 -170 c 1
 605 -107 l 1
 595 -111 582 -116 569 -116 c 0
 530 -116 519 -83 519 -28 c 2
 519 302 l 2
 519 430 466 498 351 498 c 0
 277 498 223 457 172 403 c 1
 168 403 l 1
 161 486 l 1
 93 486 l 1
 93 0 l 1
 175 0 l 1
 175 339 l 1
 232 398 270 427 327 427 c 0
 404 427 437 386 437 291 c 2
 437 -28 l 2
 437 -124 470 -183 560 -183 c 0
EndSplineSet
Validated: 9
EndChar

StartChar: uni0274
Encoding: 628 628 402
Width: 600
GlyphClass: 2
Flags: W
LayerCount: 2
Fore
SplineSet
96 0 m 1
 174 0 l 1
 174 202 l 2
 174 254 170 316 166 379 c 1
 170 379 l 1
 190 348 217 305 237 275 c 2
 425 0 l 1
 504 0 l 1
 504 486 l 1
 426 486 l 1
 426 284 l 2
 426 232 430 170 434 107 c 1
 430 107 l 1
 409 138 383 181 363 211 c 2
 175 486 l 1
 96 486 l 1
 96 0 l 1
EndSplineSet
Validated: 9
EndChar

StartChar: uni0275
Encoding: 629 629 403
Width: 600
GlyphClass: 2
Flags: W
LayerCount: 2
Fore
SplineSet
300 -12 m 0
 429 -12 540 75 540 242 c 0
 540 411 429 498 300 498 c 0
 171 498 60 411 60 242 c 0
 60 75 171 -12 300 -12 c 0
300 434 m 0
 384 434 445 379 459 284 c 1
 141 284 l 1
 155 379 216 434 300 434 c 0
300 53 m 0
 210 53 147 114 139 220 c 1
 461 220 l 1
 453 114 390 53 300 53 c 0
EndSplineSet
Validated: 9
EndChar

StartChar: uni0276
Encoding: 630 630 404
Width: 600
GlyphClass: 2
Flags: W
LayerCount: 2
Fore
SplineSet
238 -12 m 0
 270 -12 299 -9 336 0 c 1
 587 0 l 1
 587 68 l 1
 387 68 l 1
 387 220 l 1
 540 220 l 1
 540 284 l 1
 387 284 l 1
 387 418 l 1
 577 418 l 1
 577 486 l 1
 336 486 l 1
 297 496 270 498 238 498 c 0
 126 498 33 410 33 243 c 0
 33 76 126 -12 238 -12 c 0
245 55 m 0
 174 55 118 114 118 243 c 0
 118 369 174 430 245 430 c 0
 266 430 291 424 311 418 c 1
 311 67 l 1
 290 61 265 55 245 55 c 0
EndSplineSet
Validated: 9
EndChar

StartChar: uni0278
Encoding: 632 632 405
Width: 600
GlyphClass: 2
Flags: W
LayerCount: 2
Fore
SplineSet
128 244 m 0
 128 356 184 423 260 429 c 1
 260 57 l 1
 184 63 128 131 128 244 c 0
472 244 m 0
 472 131 416 63 340 57 c 1
 340 429 l 1
 416 423 472 356 472 244 c 0
260 -205 m 1
 340 -205 l 1
 340 -9 l 1
 456 -2 556 87 556 244 c 0
 556 400 456 488 340 495 c 1
 340 712 l 1
 260 712 l 1
 260 495 l 1
 144 488 44 400 44 244 c 0
 44 87 144 -2 260 -9 c 1
 260 -205 l 1
EndSplineSet
Validated: 9
EndChar

StartChar: uni0279
Encoding: 633 633 406
Width: 600
GlyphClass: 2
Flags: W
LayerCount: 2
Fore
SplineSet
454 486 m 1
 372 486 l 1
 372 201 l 1
 314 100 245 62 172 62 c 0
 134 62 116 67 82 79 c 1
 63 8 l 1
 93 -7 123 -12 159 -12 c 0
 249 -12 325 37 376 115 c 1
 379 115 l 1
 386 0 l 1
 454 0 l 1
 454 486 l 1
EndSplineSet
Validated: 9
EndChar

StartChar: uni027A
Encoding: 634 634 407
Width: 600
GlyphClass: 2
Flags: W
LayerCount: 2
Fore
SplineSet
159 -12 m 0
 249 -12 325 37 376 115 c 1
 379 115 l 1
 386 0 l 1
 454 0 l 1
 454 712 l 1
 372 712 l 1
 372 201 l 1
 314 100 245 62 172 62 c 0
 134 62 116 67 82 79 c 1
 63 8 l 1
 93 -7 123 -12 159 -12 c 0
EndSplineSet
Validated: 9
EndChar

